<svg xmlns="http://www.w3.org/2000/svg" xmlns:xlink="http://www.w3.org/1999/xlink" width="75" zoomAndPan="magnify" viewBox="0 0 56.25 44.999999" height="60" preserveAspectRatio="xMidYMid meet" version="1.0"><defs><clipPath id="8b77a9290c"><path d="M 14.121094 11.394531 L 41.503906 11.394531 L 41.503906 33.597656 L 14.121094 33.597656 Z M 14.121094 11.394531 " clip-rule="nonzero"/></clipPath></defs><g clip-path="url(#8b77a9290c)"><path fill="#dcdcdc" d="M 41.425781 23.757812 C 41.261719 22.632812 40.871094 21.5625 40.261719 20.585938 C 39.726562 19.730469 39.042969 18.96875 38.222656 18.324219 L 38.226562 18.320312 L 29.640625 11.753906 C 29.636719 11.75 29.628906 11.746094 29.621094 11.738281 C 29.335938 11.523438 28.949219 11.402344 28.535156 11.402344 C 28.117188 11.402344 27.714844 11.523438 27.402344 11.738281 C 27.066406 11.972656 26.875 12.285156 26.863281 12.613281 C 26.851562 12.921875 27 13.214844 27.277344 13.449219 C 27.832031 13.882812 28.382812 14.324219 28.933594 14.769531 C 29.472656 15.199219 30.023438 15.644531 30.570312 16.078125 L 20.058594 16.070312 C 18.855469 16.070312 18.035156 16.632812 17.867188 17.574219 C 17.792969 17.984375 17.921875 18.4375 18.214844 18.785156 C 18.527344 19.15625 18.976562 19.359375 19.480469 19.359375 L 20.285156 19.359375 C 21.390625 19.359375 22.503906 19.355469 23.613281 19.351562 L 24.671875 19.351562 L 15.128906 26.382812 L 15.09375 26.410156 C 14.558594 26.816406 14.210938 27.386719 14.132812 27.972656 C 14.078125 28.417969 14.183594 28.824219 14.4375 29.148438 C 14.738281 29.539062 15.214844 29.75 15.769531 29.75 C 16.316406 29.75 16.875 29.542969 17.34375 29.167969 L 22.496094 24.96875 C 22.472656 25.171875 22.445312 25.472656 22.449219 25.691406 C 22.457031 26.039062 22.566406 26.734375 22.742188 27.296875 C 23.109375 28.453125 23.722656 29.511719 24.570312 30.441406 C 25.449219 31.410156 26.523438 32.175781 27.757812 32.722656 C 29.0625 33.296875 30.464844 33.589844 31.929688 33.589844 L 31.941406 33.589844 C 33.410156 33.585938 34.816406 33.289062 36.128906 32.707031 C 37.363281 32.15625 38.4375 31.386719 39.3125 30.417969 C 40.160156 29.484375 40.773438 28.421875 41.136719 27.265625 C 41.316406 26.691406 41.433594 26.105469 41.480469 25.503906 C 41.527344 24.925781 41.507812 24.339844 41.425781 23.757812 Z M 32.035156 29.304688 C 28.8125 29.304688 26.199219 26.976562 26.199219 24.105469 C 26.199219 21.234375 28.8125 18.90625 32.035156 18.90625 C 35.257812 18.90625 37.871094 21.234375 37.871094 24.105469 C 37.871094 26.976562 35.257812 29.304688 32.035156 29.304688 Z M 35.402344 23.648438 C 35.449219 24.503906 35.105469 25.300781 34.5 25.890625 C 33.886719 26.488281 33.011719 26.867188 32.03125 26.867188 C 31.050781 26.867188 30.175781 26.488281 29.558594 25.890625 C 28.957031 25.300781 28.613281 24.503906 28.660156 23.648438 C 28.707031 22.816406 29.113281 22.082031 29.730469 21.558594 C 30.332031 21.046875 31.144531 20.734375 32.03125 20.734375 C 32.917969 20.734375 33.726562 21.046875 34.332031 21.558594 C 34.945312 22.082031 35.355469 22.816406 35.402344 23.648438 Z M 35.402344 23.648438 " fill-opacity="1" fill-rule="nonzero"/></g></svg>