<svg xmlns="http://www.w3.org/2000/svg" xmlns:xlink="http://www.w3.org/1999/xlink" width="75" zoomAndPan="magnify" viewBox="0 0 56.25 44.999999" height="60" preserveAspectRatio="xMidYMid meet" version="1.0"><defs><clipPath id="36a8747795"><path d="M 20 26 L 28 26 L 28 33.714844 L 20 33.714844 Z M 20 26 " clip-rule="nonzero"/></clipPath><clipPath id="62b56b750b"><path d="M 20 11.507812 L 28 11.507812 L 28 19 L 20 19 Z M 20 11.507812 " clip-rule="nonzero"/></clipPath><clipPath id="34098071b2"><path d="M 27 11.507812 L 36 11.507812 L 36 19 L 27 19 Z M 27 11.507812 " clip-rule="nonzero"/></clipPath></defs><g clip-path="url(#36a8747795)"><path fill="#dcdcdc" d="M 24.167969 33.714844 C 24.660156 33.714844 25.132812 33.617188 25.585938 33.429688 C 26.039062 33.242188 26.4375 32.976562 26.785156 32.628906 C 27.132812 32.28125 27.398438 31.882812 27.585938 31.429688 C 27.773438 30.976562 27.867188 30.503906 27.867188 30.011719 L 27.867188 26.3125 L 24.167969 26.3125 C 23.675781 26.3125 23.207031 26.40625 22.753906 26.59375 C 22.296875 26.78125 21.898438 27.046875 21.550781 27.394531 C 21.203125 27.742188 20.9375 28.144531 20.75 28.597656 C 20.5625 29.050781 20.46875 29.523438 20.46875 30.011719 C 20.46875 30.503906 20.5625 30.976562 20.75 31.429688 C 20.9375 31.882812 21.203125 32.28125 21.550781 32.628906 C 21.898438 32.976562 22.296875 33.242188 22.753906 33.429688 C 23.207031 33.617188 23.675781 33.714844 24.167969 33.714844 Z M 24.167969 33.714844 " fill-opacity="1" fill-rule="nonzero"/></g><path fill="#dcdcdc" d="M 20.46875 22.609375 C 20.46875 22.121094 20.5625 21.648438 20.75 21.195312 C 20.9375 20.742188 21.203125 20.339844 21.550781 19.996094 C 21.898438 19.648438 22.296875 19.378906 22.753906 19.191406 C 23.207031 19.003906 23.675781 18.910156 24.167969 18.910156 L 27.867188 18.910156 L 27.867188 26.3125 L 24.167969 26.3125 C 23.675781 26.3125 23.207031 26.21875 22.753906 26.03125 C 22.296875 25.84375 21.898438 25.574219 21.550781 25.226562 C 21.203125 24.878906 20.9375 24.480469 20.75 24.027344 C 20.5625 23.574219 20.46875 23.101562 20.46875 22.609375 Z M 20.46875 22.609375 " fill-opacity="1" fill-rule="nonzero"/><g clip-path="url(#62b56b750b)"><path fill="#dcdcdc" d="M 20.46875 15.210938 C 20.46875 14.71875 20.5625 14.246094 20.75 13.792969 C 20.9375 13.339844 21.203125 12.941406 21.550781 12.59375 C 21.898438 12.246094 22.296875 11.980469 22.75 11.792969 C 23.203125 11.605469 23.675781 11.507812 24.164062 11.507812 L 27.867188 11.507812 L 27.867188 18.910156 L 24.167969 18.910156 C 23.675781 18.910156 23.207031 18.816406 22.753906 18.628906 C 22.296875 18.441406 21.898438 18.171875 21.550781 17.828125 C 21.203125 17.480469 20.9375 17.078125 20.75 16.625 C 20.5625 16.171875 20.46875 15.699219 20.46875 15.210938 Z M 20.46875 15.210938 " fill-opacity="1" fill-rule="nonzero"/></g><g clip-path="url(#34098071b2)"><path fill="#dcdcdc" d="M 27.867188 11.507812 L 31.570312 11.507812 C 32.058594 11.507812 32.53125 11.601562 32.984375 11.789062 C 33.4375 11.980469 33.839844 12.246094 34.1875 12.59375 C 34.535156 12.941406 34.800781 13.339844 34.988281 13.792969 C 35.175781 14.246094 35.269531 14.71875 35.269531 15.210938 C 35.269531 15.699219 35.175781 16.171875 34.988281 16.625 C 34.800781 17.078125 34.535156 17.480469 34.1875 17.828125 C 33.839844 18.171875 33.4375 18.441406 32.984375 18.628906 C 32.53125 18.816406 32.058594 18.910156 31.570312 18.910156 L 27.867188 18.910156 Z M 27.867188 11.507812 " fill-opacity="1" fill-rule="nonzero"/></g><path fill="#dcdcdc" d="M 35.269531 22.609375 C 35.269531 23.101562 35.175781 23.574219 34.988281 24.027344 C 34.800781 24.480469 34.535156 24.878906 34.1875 25.226562 C 33.839844 25.574219 33.4375 25.84375 32.984375 26.03125 C 32.53125 26.21875 32.058594 26.3125 31.570312 26.3125 C 31.078125 26.3125 30.605469 26.21875 30.152344 26.03125 C 29.699219 25.84375 29.300781 25.574219 28.953125 25.226562 C 28.605469 24.878906 28.339844 24.480469 28.152344 24.027344 C 27.960938 23.574219 27.867188 23.101562 27.867188 22.609375 C 27.867188 22.121094 27.960938 21.648438 28.152344 21.195312 C 28.339844 20.742188 28.605469 20.339844 28.953125 19.996094 C 29.300781 19.648438 29.699219 19.378906 30.152344 19.191406 C 30.605469 19.003906 31.078125 18.910156 31.570312 18.910156 C 32.058594 18.910156 32.53125 19.003906 32.984375 19.191406 C 33.4375 19.378906 33.839844 19.648438 34.1875 19.996094 C 34.535156 20.339844 34.800781 20.742188 34.988281 21.195312 C 35.175781 21.648438 35.269531 22.121094 35.269531 22.609375 Z M 35.269531 22.609375 " fill-opacity="1" fill-rule="nonzero"/></svg>