<svg xmlns="http://www.w3.org/2000/svg" xmlns:xlink="http://www.w3.org/1999/xlink" width="60" zoomAndPan="magnify" viewBox="0 0 45 44.999999" height="60" preserveAspectRatio="xMidYMid meet" version="1.0"><defs><clipPath id="413f36aac5"><path d="M 3.710938 3.710938 L 41.210938 3.710938 L 41.210938 41.210938 L 3.710938 41.210938 Z M 3.710938 3.710938 " clip-rule="nonzero"/></clipPath></defs><path fill="#DCDCDC" d="M 22.460938 18.308594 C 20.171875 18.308594 18.308594 20.171875 18.308594 22.460938 C 18.308594 24.75 20.171875 26.617188 22.460938 26.617188 C 24.75 26.617188 26.617188 24.75 26.617188 22.460938 C 26.617188 20.171875 24.75 18.308594 22.460938 18.308594 Z M 22.460938 18.308594 " fill-opacity="1" fill-rule="nonzero"/><path fill="#DCDCDC" d="M 28.046875 12.269531 L 16.878906 12.269531 C 14.34375 12.269531 12.269531 14.328125 12.269531 16.878906 L 12.269531 28.046875 C 12.269531 30.578125 14.328125 32.65625 16.878906 32.65625 L 28.046875 32.65625 C 30.578125 32.65625 32.65625 30.59375 32.65625 28.046875 L 32.65625 16.878906 C 32.640625 14.328125 30.578125 12.269531 28.046875 12.269531 Z M 22.460938 28.710938 C 19.003906 28.710938 16.195312 25.902344 16.195312 22.445312 C 16.195312 18.988281 19.003906 16.179688 22.460938 16.179688 C 25.921875 16.179688 28.730469 18.988281 28.730469 22.445312 C 28.710938 25.902344 25.902344 28.710938 22.460938 28.710938 Z M 29.167969 17.234375 C 28.339844 17.234375 27.65625 16.554688 27.65625 15.726562 C 27.65625 14.898438 28.339844 14.214844 29.167969 14.214844 C 29.996094 14.214844 30.675781 14.898438 30.675781 15.726562 C 30.675781 16.570312 30.011719 17.234375 29.167969 17.234375 Z M 29.167969 17.234375 " fill-opacity="1" fill-rule="nonzero"/><g clip-path="url(#413f36aac5)"><path fill="#DCDCDC" d="M 22.460938 3.710938 C 12.105469 3.710938 3.710938 12.105469 3.710938 22.460938 C 3.710938 32.820312 12.105469 41.210938 22.460938 41.210938 C 32.820312 41.210938 41.210938 32.820312 41.210938 22.460938 C 41.195312 12.105469 32.804688 3.710938 22.460938 3.710938 Z M 34.75 28.046875 C 34.75 31.75 31.730469 34.769531 28.03125 34.769531 L 16.878906 34.769531 C 13.175781 34.769531 10.15625 31.75 10.15625 28.046875 L 10.15625 16.878906 C 10.15625 13.175781 13.175781 10.15625 16.878906 10.15625 L 28.046875 10.15625 C 31.75 10.15625 34.769531 13.175781 34.769531 16.878906 L 34.769531 28.046875 Z M 34.75 28.046875 " fill-opacity="1" fill-rule="nonzero"/></g></svg>