<svg xmlns="http://www.w3.org/2000/svg" xmlns:xlink="http://www.w3.org/1999/xlink" width="40" zoomAndPan="magnify" viewBox="0 0 30 30.000001" height="40" preserveAspectRatio="xMidYMid meet" version="1.0"><defs><clipPath id="87fe7f1a56"><path d="M 7.816406 7.332031 L 22.332031 7.332031 L 22.332031 21.847656 L 7.816406 21.847656 Z M 7.816406 7.332031 " clip-rule="nonzero"/></clipPath></defs><g clip-path="url(#87fe7f1a56)"><path fill="#dcdcdc" d="M 21.871094 17.753906 C 21.050781 15.679688 20.371094 13.550781 19.585938 11.460938 C 19.238281 10.574219 18.898438 9.675781 18.425781 8.84375 C 18.238281 8.546875 18.058594 8.21875 17.75 8.027344 C 17.671875 7.976562 17.585938 7.957031 17.5 7.957031 C 17.355469 7.960938 17.210938 8.023438 17.101562 8.117188 C 16.6875 8.445312 16.441406 8.921875 16.167969 9.359375 C 15.683594 10.171875 15.171875 11.023438 14.359375 11.554688 C 13.980469 11.824219 13.480469 11.851562 13.113281 12.140625 C 12.609375 12.519531 12.269531 13.054688 11.855469 13.523438 C 11.761719 13.632812 11.617188 13.679688 11.492188 13.738281 C 10.261719 14.242188 9.03125 14.742188 7.816406 15.265625 C 8.84375 16.0625 9.945312 16.773438 10.996094 17.542969 C 11.285156 17.488281 11.574219 17.367188 11.871094 17.421875 C 12.34375 17.570312 12.617188 18.019531 12.835938 18.433594 C 13.273438 19.335938 13.59375 20.285156 13.949219 21.21875 C 14.542969 21.179688 15.078125 20.871094 15.539062 20.511719 C 16.425781 19.792969 17.097656 18.867188 17.84375 18.011719 C 18.199219 17.636719 18.5625 17.191406 19.09375 17.085938 C 19.636719 16.957031 20.214844 17.148438 20.613281 17.519531 C 21.175781 18.023438 21.671875 18.605469 22.332031 18.988281 C 22.242188 18.554688 22.03125 18.164062 21.871094 17.753906 Z M 12.6875 16.289062 C 12.167969 16.597656 11.617188 16.851562 11.078125 17.117188 C 10.234375 16.550781 9.410156 15.949219 8.578125 15.363281 C 9.699219 14.875 10.835938 14.417969 11.972656 13.960938 C 12.507812 14.378906 13.0625 14.777344 13.601562 15.199219 C 13.347656 15.601562 13.042969 15.976562 12.6875 16.289062 Z M 13.839844 14.882812 C 13.304688 14.480469 12.765625 14.089844 12.238281 13.679688 C 12.574219 13.21875 12.945312 12.773438 13.386719 12.410156 C 13.679688 12.222656 14.039062 12.171875 14.34375 12.003906 C 15.066406 11.640625 15.558594 10.980469 16.027344 10.347656 C 15.425781 11.914062 14.78125 13.484375 13.839844 14.882812 Z M 13.839844 14.882812 " fill-opacity="1" fill-rule="nonzero"/></g></svg>