<svg xmlns="http://www.w3.org/2000/svg" xmlns:xlink="http://www.w3.org/1999/xlink" width="75" zoomAndPan="magnify" viewBox="0 0 56.25 44.999999" height="60" preserveAspectRatio="xMidYMid meet" version="1.0"><defs><clipPath id="7f7dc0ccc7"><path d="M 16.734375 11.539062 L 34 11.539062 L 34 29 L 16.734375 29 Z M 16.734375 11.539062 " clip-rule="nonzero"/></clipPath><clipPath id="e9e5cf53f6"><path d="M 27.761719 11.539062 C 22.125 11.539062 22.476562 13.996094 22.476562 13.996094 L 22.484375 16.539062 L 27.859375 16.539062 L 27.859375 17.304688 L 20.347656 17.304688 C 20.347656 17.304688 16.742188 16.894531 16.742188 22.609375 C 16.742188 28.324219 19.886719 28.125 19.886719 28.125 L 21.765625 28.125 L 21.765625 25.46875 C 21.765625 25.46875 21.664062 22.304688 24.863281 22.304688 L 30.199219 22.304688 C 30.199219 22.304688 33.195312 22.355469 33.195312 19.394531 L 33.195312 14.5 C 33.195312 14.5 33.648438 11.539062 27.761719 11.539062 Z M 24.796875 13.25 C 25.332031 13.25 25.761719 13.683594 25.761719 14.222656 C 25.761719 14.761719 25.332031 15.195312 24.796875 15.195312 C 24.261719 15.195312 23.828125 14.761719 23.828125 14.222656 C 23.828125 13.683594 24.261719 13.25 24.796875 13.25 Z M 24.796875 13.25 " clip-rule="nonzero"/></clipPath><clipPath id="73469aac25"><path d="M 22 17 L 38.9375 17 L 38.9375 33.746094 L 22 33.746094 Z M 22 17 " clip-rule="nonzero"/></clipPath><clipPath id="c623e074aa"><path d="M 27.921875 33.738281 C 33.554688 33.738281 33.203125 31.28125 33.203125 31.28125 L 33.199219 28.734375 L 27.820312 28.734375 L 27.820312 27.972656 L 35.332031 27.972656 C 35.332031 27.972656 38.941406 28.382812 38.941406 22.667969 C 38.941406 16.949219 35.792969 17.152344 35.792969 17.152344 L 33.914062 17.152344 L 33.914062 19.804688 C 33.914062 19.804688 34.015625 22.96875 30.816406 22.96875 L 25.484375 22.96875 C 25.484375 22.96875 22.484375 22.921875 22.484375 25.882812 L 22.484375 30.777344 C 22.484375 30.777344 22.03125 33.738281 27.921875 33.738281 Z M 30.886719 32.027344 C 30.351562 32.027344 29.917969 31.589844 29.917969 31.054688 C 29.917969 30.515625 30.351562 30.082031 30.886719 30.082031 C 31.421875 30.082031 31.851562 30.515625 31.851562 31.054688 C 31.851562 31.589844 31.421875 32.027344 30.886719 32.027344 Z M 30.886719 32.027344 " clip-rule="nonzero"/></clipPath></defs><g clip-path="url(#7f7dc0ccc7)"><g clip-path="url(#e9e5cf53f6)"><path fill="#dcdcdc" d="M 16.742188 11.539062 L 16.742188 28.324219 L 33.648438 28.324219 L 33.648438 11.539062 Z M 16.742188 11.539062 " fill-opacity="1" fill-rule="nonzero"/></g></g><g clip-path="url(#73469aac25)"><g clip-path="url(#c623e074aa)"><path fill="#dcdcdc" d="M 22.03125 16.949219 L 22.03125 33.738281 L 38.9375 33.738281 L 38.9375 16.949219 Z M 22.03125 16.949219 " fill-opacity="1" fill-rule="nonzero"/></g></g></svg>