<svg xmlns="http://www.w3.org/2000/svg" xmlns:xlink="http://www.w3.org/1999/xlink" width="75" zoomAndPan="magnify" viewBox="0 0 56.25 44.999999" height="60" preserveAspectRatio="xMidYMid meet" version="1.0"><defs><clipPath id="5a1aacfd8c"><path d="M 16 10.175781 L 39.855469 10.175781 L 39.855469 34.601562 L 16 34.601562 Z M 16 10.175781 " clip-rule="nonzero"/></clipPath></defs><g clip-path="url(#5a1aacfd8c)"><path stroke-linecap="butt" transform="matrix(0.130552, 0, 0, 0.130552, 14.122789, 7.669478)" fill="none" stroke-linejoin="round" d="M 63.030656 200.609042 L 19.794748 25.660698 L 193.037591 75.539079 Z M 63.030656 200.609042 " stroke="#dcdcdc" stroke-width="4" stroke-opacity="1" stroke-miterlimit="10"/></g><path stroke-linecap="butt" transform="matrix(0.130552, 0, 0, 0.130552, 14.122789, 7.669478)" fill="none" stroke-linejoin="round" d="M 106.386249 50.614849 L 127.989242 138.103981 L 41.427662 113.149831 Z M 106.386249 50.614849 " stroke="#dcdcdc" stroke-width="4" stroke-opacity="1" stroke-miterlimit="10"/><path stroke-linecap="butt" transform="matrix(0.130552, 0, 0, 0.130552, 14.122789, 7.669478)" fill="none" stroke-linejoin="round" d="M 84.902939 125.028485 L 74.191205 81.553208 L 117.187745 93.910599 Z M 84.902939 125.028485 " stroke="#dcdcdc" stroke-width="4" stroke-opacity="1" stroke-miterlimit="10"/><path stroke-linecap="butt" transform="matrix(0.130552, 0, 0, 0.130552, 14.122789, 7.669478)" fill="none" stroke-linejoin="round" d="M 63.449551 38.167695 L 74.191205 81.61305 L 31.164744 69.28558 Z M 63.449551 38.167695 " stroke="#dcdcdc" stroke-width="4" stroke-opacity="1" stroke-miterlimit="10"/><path stroke-linecap="butt" transform="matrix(0.130552, 0, 0, 0.130552, 14.122789, 7.669478)" fill="none" stroke-linejoin="round" d="M 149.472552 62.942319 L 160.184285 106.387675 L 117.187745 94.060205 Z M 149.472552 62.942319 " stroke="#dcdcdc" stroke-width="4" stroke-opacity="1" stroke-miterlimit="10"/><path stroke-linecap="butt" transform="matrix(0.130552, 0, 0, 0.130552, 14.122789, 7.669478)" fill="none" stroke-linejoin="round" d="M 84.902939 125.058406 L 95.644594 168.533683 L 52.618133 156.176292 Z M 84.902939 125.058406 " stroke="#dcdcdc" stroke-width="4" stroke-opacity="1" stroke-miterlimit="10"/></svg>