<svg xmlns="http://www.w3.org/2000/svg" xmlns:xlink="http://www.w3.org/1999/xlink" width="60" zoomAndPan="magnify" viewBox="0 0 45 44.999999" height="60" preserveAspectRatio="xMidYMid meet" version="1.0"><defs><clipPath id="199739fbe3"><path d="M 3.75 3.75 L 41.25 3.75 L 41.25 41.25 L 3.75 41.25 Z M 3.75 3.75 " clip-rule="nonzero"/></clipPath></defs><g clip-path="url(#199739fbe3)"><path fill="white" d="M 21.265625 3.75 C 11.601562 3.75 3.75 11.601562 3.75 21.265625 C 3.75 30.929688 11.601562 38.78125 21.265625 38.78125 C 22.90625 38.78125 24.507812 38.546875 26.042969 38.109375 L 26.042969 35.039062 C 24.851562 36.1875 23.503906 36.925781 22.0625 37.128906 L 22.0625 30.820312 L 26.042969 30.820312 L 26.042969 29.226562 L 22.0625 29.226562 L 22.0625 22.0625 L 26.042969 22.0625 L 26.042969 20.46875 L 22.0625 20.46875 L 22.0625 13.304688 L 29.523438 13.304688 C 30.234375 15.359375 30.6875 17.699219 30.785156 20.199219 L 31.617188 20.980469 L 32.402344 21.714844 L 32.773438 22.0625 L 37.160156 22.0625 C 37.097656 23.277344 36.90625 24.472656 36.578125 25.628906 L 37.863281 26.835938 C 38.464844 25.054688 38.78125 23.183594 38.78125 21.265625 C 38.78125 11.601562 30.929688 3.75 21.265625 3.75 Z M 20.46875 5.40625 L 20.46875 11.710938 L 13.65625 11.710938 C 13.953125 11.054688 14.269531 10.429688 14.621094 9.863281 C 16.210938 7.296875 18.261719 5.71875 20.46875 5.40625 Z M 22.0625 5.40625 C 24.851562 5.792969 27.300781 8.183594 28.890625 11.710938 L 22.0625 11.710938 Z M 27.238281 6.5 C 29.941406 7.59375 32.269531 9.414062 33.996094 11.710938 L 30.597656 11.710938 C 29.726562 9.617188 28.578125 7.84375 27.238281 6.5 Z M 15.234375 6.53125 C 14.515625 7.253906 13.851562 8.085938 13.269531 9.023438 C 12.761719 9.847656 12.304688 10.75 11.910156 11.710938 L 8.542969 11.710938 C 10.257812 9.433594 12.558594 7.625 15.234375 6.53125 Z M 7.484375 13.304688 L 11.328125 13.304688 C 10.628906 15.476562 10.214844 17.902344 10.144531 20.46875 L 5.359375 20.46875 C 5.492188 17.863281 6.253906 15.429688 7.484375 13.304688 Z M 13.015625 13.304688 L 20.46875 13.304688 L 20.46875 20.46875 L 11.738281 20.46875 C 11.8125 17.863281 12.269531 15.425781 13.015625 13.304688 Z M 31.179688 13.304688 L 35.058594 13.304688 C 36.289062 15.429688 37.039062 17.867188 37.167969 20.46875 L 32.386719 20.46875 C 32.3125 17.898438 31.890625 15.472656 31.179688 13.304688 Z M 5.359375 22.0625 L 10.144531 22.0625 C 10.214844 24.632812 10.628906 27.058594 11.328125 29.226562 L 7.484375 29.226562 C 6.253906 27.101562 5.492188 24.667969 5.359375 22.0625 Z M 11.738281 22.0625 L 20.46875 22.0625 L 20.46875 29.226562 L 13.015625 29.226562 C 12.269531 27.105469 11.8125 24.667969 11.738281 22.0625 Z M 29.191406 22.0625 C 28.765625 22.082031 28.429688 22.433594 28.429688 22.859375 L 28.429688 38.183594 C 28.429688 38.507812 28.625 38.796875 28.921875 38.917969 C 29.222656 39.042969 29.5625 38.976562 29.789062 38.746094 L 32.1875 36.347656 L 34.1875 40.707031 C 34.371094 41.105469 34.84375 41.277344 35.246094 41.097656 L 38.320312 39.691406 C 38.714844 39.507812 38.890625 39.035156 38.707031 38.632812 L 36.632812 34.105469 L 40.375 34.105469 C 40.699219 34.105469 40.996094 33.90625 41.113281 33.601562 C 41.234375 33.296875 41.15625 32.949219 40.917969 32.726562 L 29.773438 22.277344 C 29.613281 22.128906 29.40625 22.054688 29.191406 22.0625 Z M 30.023438 24.695312 L 38.359375 32.511719 L 35.496094 32.511719 C 35.375 32.511719 35.25 32.539062 35.140625 32.597656 L 35.054688 32.640625 C 34.671875 32.832031 34.507812 33.292969 34.6875 33.679688 L 36.929688 38.570312 L 35.300781 39.316406 L 33.160156 34.640625 C 33.054688 34.40625 32.832031 34.238281 32.578125 34.191406 C 32.320312 34.144531 32.058594 34.230469 31.875 34.414062 L 30.023438 36.261719 Z M 8.542969 30.820312 L 11.910156 30.820312 C 12.304688 31.78125 12.761719 32.683594 13.269531 33.507812 C 13.851562 34.445312 14.515625 35.277344 15.234375 36 C 12.558594 34.90625 10.257812 33.101562 8.542969 30.820312 Z M 13.65625 30.820312 L 20.46875 30.820312 L 20.46875 37.125 C 18.261719 36.8125 16.210938 35.234375 14.621094 32.671875 C 14.269531 32.101562 13.953125 31.476562 13.65625 30.820312 Z M 13.65625 30.820312 " fill-opacity="1" fill-rule="nonzero"/></g></svg>