<svg xmlns="http://www.w3.org/2000/svg" xmlns:xlink="http://www.w3.org/1999/xlink" width="300" zoomAndPan="magnify" viewBox="0 0 224.87999 149.999998" height="200" preserveAspectRatio="xMidYMid meet" version="1.0"><defs><g/><clipPath id="8085d54992"><path d="M 0 0.0390625 L 224.761719 0.0390625 L 224.761719 149.960938 L 0 149.960938 Z M 0 0.0390625 " clip-rule="nonzero"/></clipPath><clipPath id="df399b2148"><path d="M 40.992188 95.0625 L 133.882812 95.0625 L 133.882812 108.324219 L 40.992188 108.324219 Z M 40.992188 95.0625 " clip-rule="nonzero"/></clipPath><clipPath id="0b8c2518c1"><path d="M 40.992188 90.207031 L 133.882812 90.207031 L 133.882812 103.46875 L 40.992188 103.46875 Z M 40.992188 90.207031 " clip-rule="nonzero"/></clipPath><clipPath id="cd2f7c6e86"><path d="M 40.992188 85.191406 L 133.882812 85.191406 L 133.882812 98.453125 L 40.992188 98.453125 Z M 40.992188 85.191406 " clip-rule="nonzero"/></clipPath><clipPath id="a2c3e95f6e"><path d="M 40.992188 79.546875 L 133.882812 79.546875 L 133.882812 92.808594 L 40.992188 92.808594 Z M 40.992188 79.546875 " clip-rule="nonzero"/></clipPath><clipPath id="61c297abe8"><path d="M 40.992188 71.929688 L 133.882812 71.929688 L 133.882812 85.191406 L 40.992188 85.191406 Z M 40.992188 71.929688 " clip-rule="nonzero"/></clipPath><clipPath id="f002021392"><path d="M 40.992188 63.640625 L 133.882812 63.640625 L 133.882812 76.902344 L 40.992188 76.902344 Z M 40.992188 63.640625 " clip-rule="nonzero"/></clipPath><clipPath id="ffdb224596"><path d="M 40.992188 53.421875 L 133.882812 53.421875 L 133.882812 66.683594 L 40.992188 66.683594 Z M 40.992188 53.421875 " clip-rule="nonzero"/></clipPath><clipPath id="2e2d7105d4"><path d="M 40.992188 41.496094 L 133.882812 41.496094 L 133.882812 54.757812 L 40.992188 54.757812 Z M 40.992188 41.496094 " clip-rule="nonzero"/></clipPath></defs><g clip-path="url(#8085d54992)"><path fill="#ffffff" d="M 0 0.0390625 L 224.878906 0.0390625 L 224.878906 157.457031 L 0 157.457031 Z M 0 0.0390625 " fill-opacity="1" fill-rule="nonzero"/><path fill="#ffffff" d="M 0 0.0390625 L 224.878906 0.0390625 L 224.878906 149.960938 L 0 149.960938 Z M 0 0.0390625 " fill-opacity="1" fill-rule="nonzero"/><path fill="#1f1d1d" d="M 0 0.0390625 L 224.878906 0.0390625 L 224.878906 149.960938 L 0 149.960938 Z M 0 0.0390625 " fill-opacity="1" fill-rule="nonzero"/></g><g fill="#282626" fill-opacity="1"><g transform="translate(41.333939, 109.951585)"><g><path d="M 4 -8.25 C 4.363281 -9.039062 4.816406 -9.613281 5.359375 -9.96875 C 5.910156 -10.320312 6.5625 -10.5 7.3125 -10.5 C 8.40625 -10.5 9.242188 -10.160156 9.828125 -9.484375 C 10.410156 -8.816406 10.703125 -7.832031 10.703125 -6.53125 L 10.703125 0 L 8.046875 0 L 8.046875 -5.78125 C 8.046875 -7.582031 7.429688 -8.484375 6.203125 -8.484375 C 5.554688 -8.484375 5.035156 -8.207031 4.640625 -7.65625 C 4.242188 -7.101562 4.046875 -6.390625 4.046875 -5.515625 L 4.046875 0 L 1.359375 0 L 1.359375 -14.140625 L 4.046875 -14.140625 L 4.046875 -10.28125 C 4.046875 -9.59375 4.019531 -8.914062 3.96875 -8.25 Z M 4 -8.25 "/></g></g></g><g fill="#282626" fill-opacity="1"><g transform="translate(53.256259, 109.951585)"><g><path d="M 3.75 0.1875 C 2.75 0.1875 1.96875 -0.0820312 1.40625 -0.625 C 0.851562 -1.164062 0.578125 -1.929688 0.578125 -2.921875 C 0.578125 -3.984375 0.921875 -4.789062 1.609375 -5.34375 C 2.304688 -5.90625 3.316406 -6.195312 4.640625 -6.21875 L 6.859375 -6.25 L 6.859375 -6.78125 C 6.859375 -7.445312 6.738281 -7.941406 6.5 -8.265625 C 6.269531 -8.597656 5.890625 -8.765625 5.359375 -8.765625 C 4.859375 -8.765625 4.492188 -8.648438 4.265625 -8.421875 C 4.035156 -8.203125 3.890625 -7.832031 3.828125 -7.3125 L 1.03125 -7.4375 C 1.207031 -8.445312 1.664062 -9.207031 2.40625 -9.71875 C 3.15625 -10.238281 4.175781 -10.5 5.46875 -10.5 C 6.769531 -10.5 7.769531 -10.175781 8.46875 -9.53125 C 9.175781 -8.894531 9.53125 -7.984375 9.53125 -6.796875 L 9.53125 -3.046875 C 9.53125 -2.472656 9.59375 -2.078125 9.71875 -1.859375 C 9.851562 -1.640625 10.078125 -1.53125 10.390625 -1.53125 C 10.585938 -1.53125 10.785156 -1.546875 10.984375 -1.578125 L 10.984375 -0.140625 C 10.816406 -0.0976562 10.671875 -0.0625 10.546875 -0.03125 C 10.421875 0 10.296875 0.0234375 10.171875 0.046875 C 10.046875 0.0664062 9.910156 0.0820312 9.765625 0.09375 C 9.617188 0.101562 9.453125 0.109375 9.265625 0.109375 C 8.585938 0.109375 8.085938 -0.0507812 7.765625 -0.375 C 7.453125 -0.707031 7.257812 -1.195312 7.1875 -1.84375 L 7.140625 -1.84375 C 6.390625 -0.488281 5.257812 0.1875 3.75 0.1875 Z M 6.859375 -4.78125 L 5.484375 -4.75 C 4.867188 -4.726562 4.429688 -4.660156 4.171875 -4.546875 C 3.910156 -4.441406 3.707031 -4.273438 3.5625 -4.046875 C 3.425781 -3.816406 3.359375 -3.507812 3.359375 -3.125 C 3.359375 -2.632812 3.472656 -2.269531 3.703125 -2.03125 C 3.929688 -1.789062 4.234375 -1.671875 4.609375 -1.671875 C 5.023438 -1.671875 5.40625 -1.785156 5.75 -2.015625 C 6.09375 -2.242188 6.363281 -2.5625 6.5625 -2.96875 C 6.757812 -3.375 6.859375 -3.800781 6.859375 -4.25 Z M 6.859375 -4.78125 "/></g></g></g><g fill="#282626" fill-opacity="1"><g transform="translate(64.111194, 109.951585)"><g><path d="M 7.4375 0 L 7.4375 -5.78125 C 7.4375 -7.59375 6.914062 -8.5 5.875 -8.5 C 5.332031 -8.5 4.890625 -8.222656 4.546875 -7.671875 C 4.210938 -7.117188 4.046875 -6.40625 4.046875 -5.53125 L 4.046875 0 L 1.359375 0 L 1.359375 -8 C 1.359375 -8.550781 1.347656 -9.003906 1.328125 -9.359375 C 1.316406 -9.710938 1.300781 -10.03125 1.28125 -10.3125 L 3.84375 -10.3125 C 3.863281 -10.1875 3.890625 -9.863281 3.921875 -9.34375 C 3.953125 -8.820312 3.96875 -8.460938 3.96875 -8.265625 L 4 -8.265625 C 4.332031 -9.046875 4.742188 -9.613281 5.234375 -9.96875 C 5.722656 -10.332031 6.3125 -10.515625 7 -10.515625 C 8.570312 -10.515625 9.53125 -9.765625 9.875 -8.265625 L 9.921875 -8.265625 C 10.273438 -9.066406 10.695312 -9.640625 11.1875 -9.984375 C 11.675781 -10.335938 12.300781 -10.515625 13.0625 -10.515625 C 14.0625 -10.515625 14.820312 -10.171875 15.34375 -9.484375 C 15.875 -8.804688 16.140625 -7.828125 16.140625 -6.546875 L 16.140625 0 L 13.484375 0 L 13.484375 -5.78125 C 13.484375 -7.59375 12.960938 -8.5 11.921875 -8.5 C 11.398438 -8.5 10.972656 -8.242188 10.640625 -7.734375 C 10.304688 -7.234375 10.125 -6.539062 10.09375 -5.65625 L 10.09375 0 Z M 7.4375 0 "/></g></g></g><g fill="#282626" fill-opacity="1"><g transform="translate(81.465747, 109.951585)"><g><path d="M 1.359375 0 L 1.359375 -7.890625 C 1.359375 -8.453125 1.347656 -8.921875 1.328125 -9.296875 C 1.316406 -9.679688 1.300781 -10.019531 1.28125 -10.3125 L 3.84375 -10.3125 C 3.863281 -10.195312 3.890625 -9.847656 3.921875 -9.265625 C 3.953125 -8.679688 3.96875 -8.296875 3.96875 -8.109375 L 4 -8.109375 C 4.257812 -8.835938 4.488281 -9.347656 4.6875 -9.640625 C 4.894531 -9.929688 5.140625 -10.148438 5.421875 -10.296875 C 5.703125 -10.441406 6.050781 -10.515625 6.46875 -10.515625 C 6.8125 -10.515625 7.085938 -10.46875 7.296875 -10.375 L 7.296875 -8.125 C 6.867188 -8.21875 6.488281 -8.265625 6.15625 -8.265625 C 5.488281 -8.265625 4.96875 -7.992188 4.59375 -7.453125 C 4.226562 -6.921875 4.046875 -6.125 4.046875 -5.0625 L 4.046875 0 Z M 1.359375 0 "/></g></g></g><g fill="#282626" fill-opacity="1"><g transform="translate(89.061342, 109.951585)"><g><path d="M 5.578125 0.1875 C 4.035156 0.1875 2.847656 -0.269531 2.015625 -1.1875 C 1.179688 -2.101562 0.765625 -3.441406 0.765625 -5.203125 C 0.765625 -6.898438 1.1875 -8.207031 2.03125 -9.125 C 2.875 -10.039062 4.070312 -10.5 5.625 -10.5 C 7.101562 -10.5 8.234375 -10.007812 9.015625 -9.03125 C 9.796875 -8.050781 10.1875 -6.613281 10.1875 -4.71875 L 10.1875 -4.640625 L 3.578125 -4.640625 C 3.578125 -3.640625 3.757812 -2.878906 4.125 -2.359375 C 4.5 -1.847656 5.03125 -1.59375 5.71875 -1.59375 C 6.664062 -1.59375 7.265625 -2.003906 7.515625 -2.828125 L 10.03125 -2.609375 C 9.300781 -0.742188 7.816406 0.1875 5.578125 0.1875 Z M 5.578125 -8.8125 C 4.953125 -8.8125 4.46875 -8.59375 4.125 -8.15625 C 3.789062 -7.71875 3.613281 -7.101562 3.59375 -6.3125 L 7.59375 -6.3125 C 7.539062 -7.144531 7.335938 -7.769531 6.984375 -8.1875 C 6.640625 -8.601562 6.171875 -8.8125 5.578125 -8.8125 Z M 5.578125 -8.8125 "/></g></g></g><g fill="#282626" fill-opacity="1"><g transform="translate(99.916277, 109.951585)"><g><path d="M 1.359375 0 L 1.359375 -14.140625 L 4.046875 -14.140625 L 4.046875 0 Z M 1.359375 0 "/></g></g></g><g fill="#282626" fill-opacity="1"><g transform="translate(105.338979, 109.951585)"><g><path d="M 1.359375 -12.171875 L 1.359375 -14.140625 L 4.046875 -14.140625 L 4.046875 -12.171875 Z M 1.359375 0 L 1.359375 -10.3125 L 4.046875 -10.3125 L 4.046875 0 Z M 1.359375 0 "/></g></g></g><g fill="#282626" fill-opacity="1"><g transform="translate(110.761681, 109.951585)"><g><path d="M 3.890625 -10.3125 L 3.890625 -4.53125 C 3.890625 -2.71875 4.5 -1.8125 5.71875 -1.8125 C 6.363281 -1.8125 6.882812 -2.085938 7.28125 -2.640625 C 7.675781 -3.203125 7.875 -3.914062 7.875 -4.78125 L 7.875 -10.3125 L 10.5625 -10.3125 L 10.5625 -2.3125 C 10.5625 -1.425781 10.585938 -0.65625 10.640625 0 L 8.078125 0 C 8.003906 -0.914062 7.96875 -1.597656 7.96875 -2.046875 L 7.921875 -2.046875 C 7.566406 -1.265625 7.113281 -0.695312 6.5625 -0.34375 C 6.007812 0.0078125 5.359375 0.1875 4.609375 0.1875 C 3.515625 0.1875 2.671875 -0.144531 2.078125 -0.8125 C 1.492188 -1.476562 1.203125 -2.460938 1.203125 -3.765625 L 1.203125 -10.3125 Z M 3.890625 -10.3125 "/></g></g></g><g fill="#282626" fill-opacity="1"><g transform="translate(122.684002, 109.951585)"><g><path d="M 10.046875 -3.015625 C 10.046875 -2.015625 9.640625 -1.226562 8.828125 -0.65625 C 8.015625 -0.09375 6.882812 0.1875 5.4375 0.1875 C 4.019531 0.1875 2.9375 -0.0351562 2.1875 -0.484375 C 1.4375 -0.929688 0.9375 -1.628906 0.6875 -2.578125 L 3.046875 -2.921875 C 3.171875 -2.429688 3.394531 -2.082031 3.71875 -1.875 C 4.050781 -1.675781 4.625 -1.578125 5.4375 -1.578125 C 6.1875 -1.578125 6.734375 -1.671875 7.078125 -1.859375 C 7.421875 -2.054688 7.59375 -2.359375 7.59375 -2.765625 C 7.59375 -3.097656 7.453125 -3.359375 7.171875 -3.546875 C 6.898438 -3.742188 6.4375 -3.910156 5.78125 -4.046875 C 4.257812 -4.335938 3.234375 -4.613281 2.703125 -4.875 C 2.179688 -5.132812 1.78125 -5.46875 1.5 -5.875 C 1.226562 -6.28125 1.09375 -6.785156 1.09375 -7.390625 C 1.09375 -8.367188 1.472656 -9.132812 2.234375 -9.6875 C 2.992188 -10.238281 4.066406 -10.515625 5.453125 -10.515625 C 6.679688 -10.515625 7.664062 -10.273438 8.40625 -9.796875 C 9.15625 -9.316406 9.625 -8.628906 9.8125 -7.734375 L 7.4375 -7.484375 C 7.363281 -7.898438 7.175781 -8.210938 6.875 -8.421875 C 6.582031 -8.628906 6.109375 -8.734375 5.453125 -8.734375 C 4.816406 -8.734375 4.335938 -8.648438 4.015625 -8.484375 C 3.703125 -8.328125 3.546875 -8.054688 3.546875 -7.671875 C 3.546875 -7.367188 3.664062 -7.128906 3.90625 -6.953125 C 4.15625 -6.785156 4.570312 -6.644531 5.15625 -6.53125 C 5.957031 -6.363281 6.671875 -6.191406 7.296875 -6.015625 C 7.929688 -5.835938 8.4375 -5.628906 8.8125 -5.390625 C 9.1875 -5.148438 9.484375 -4.835938 9.703125 -4.453125 C 9.929688 -4.078125 10.046875 -3.597656 10.046875 -3.015625 Z M 10.046875 -3.015625 "/></g></g></g><g clip-path="url(#df399b2148)"><path fill="#1f1d1d" d="M 40.992188 95.0625 L 134.378906 95.0625 L 134.378906 109.070312 L 40.992188 109.070312 Z M 40.992188 95.0625 " fill-opacity="1" fill-rule="nonzero"/></g><g fill="#282626" fill-opacity="1"><g transform="translate(41.333939, 106.138136)"><g><path d="M 4 -8.25 C 4.363281 -9.039062 4.816406 -9.613281 5.359375 -9.96875 C 5.910156 -10.320312 6.5625 -10.5 7.3125 -10.5 C 8.40625 -10.5 9.242188 -10.160156 9.828125 -9.484375 C 10.410156 -8.816406 10.703125 -7.832031 10.703125 -6.53125 L 10.703125 0 L 8.046875 0 L 8.046875 -5.78125 C 8.046875 -7.582031 7.429688 -8.484375 6.203125 -8.484375 C 5.554688 -8.484375 5.035156 -8.207031 4.640625 -7.65625 C 4.242188 -7.101562 4.046875 -6.390625 4.046875 -5.515625 L 4.046875 0 L 1.359375 0 L 1.359375 -14.140625 L 4.046875 -14.140625 L 4.046875 -10.28125 C 4.046875 -9.59375 4.019531 -8.914062 3.96875 -8.25 Z M 4 -8.25 "/></g></g></g><g fill="#282626" fill-opacity="1"><g transform="translate(53.256259, 106.138136)"><g><path d="M 3.75 0.1875 C 2.75 0.1875 1.96875 -0.0820312 1.40625 -0.625 C 0.851562 -1.164062 0.578125 -1.929688 0.578125 -2.921875 C 0.578125 -3.984375 0.921875 -4.789062 1.609375 -5.34375 C 2.304688 -5.90625 3.316406 -6.195312 4.640625 -6.21875 L 6.859375 -6.25 L 6.859375 -6.78125 C 6.859375 -7.445312 6.738281 -7.941406 6.5 -8.265625 C 6.269531 -8.597656 5.890625 -8.765625 5.359375 -8.765625 C 4.859375 -8.765625 4.492188 -8.648438 4.265625 -8.421875 C 4.035156 -8.203125 3.890625 -7.832031 3.828125 -7.3125 L 1.03125 -7.4375 C 1.207031 -8.445312 1.664062 -9.207031 2.40625 -9.71875 C 3.15625 -10.238281 4.175781 -10.5 5.46875 -10.5 C 6.769531 -10.5 7.769531 -10.175781 8.46875 -9.53125 C 9.175781 -8.894531 9.53125 -7.984375 9.53125 -6.796875 L 9.53125 -3.046875 C 9.53125 -2.472656 9.59375 -2.078125 9.71875 -1.859375 C 9.851562 -1.640625 10.078125 -1.53125 10.390625 -1.53125 C 10.585938 -1.53125 10.785156 -1.546875 10.984375 -1.578125 L 10.984375 -0.140625 C 10.816406 -0.0976562 10.671875 -0.0625 10.546875 -0.03125 C 10.421875 0 10.296875 0.0234375 10.171875 0.046875 C 10.046875 0.0664062 9.910156 0.0820312 9.765625 0.09375 C 9.617188 0.101562 9.453125 0.109375 9.265625 0.109375 C 8.585938 0.109375 8.085938 -0.0507812 7.765625 -0.375 C 7.453125 -0.707031 7.257812 -1.195312 7.1875 -1.84375 L 7.140625 -1.84375 C 6.390625 -0.488281 5.257812 0.1875 3.75 0.1875 Z M 6.859375 -4.78125 L 5.484375 -4.75 C 4.867188 -4.726562 4.429688 -4.660156 4.171875 -4.546875 C 3.910156 -4.441406 3.707031 -4.273438 3.5625 -4.046875 C 3.425781 -3.816406 3.359375 -3.507812 3.359375 -3.125 C 3.359375 -2.632812 3.472656 -2.269531 3.703125 -2.03125 C 3.929688 -1.789062 4.234375 -1.671875 4.609375 -1.671875 C 5.023438 -1.671875 5.40625 -1.785156 5.75 -2.015625 C 6.09375 -2.242188 6.363281 -2.5625 6.5625 -2.96875 C 6.757812 -3.375 6.859375 -3.800781 6.859375 -4.25 Z M 6.859375 -4.78125 "/></g></g></g><g fill="#282626" fill-opacity="1"><g transform="translate(64.111194, 106.138136)"><g><path d="M 7.4375 0 L 7.4375 -5.78125 C 7.4375 -7.59375 6.914062 -8.5 5.875 -8.5 C 5.332031 -8.5 4.890625 -8.222656 4.546875 -7.671875 C 4.210938 -7.117188 4.046875 -6.40625 4.046875 -5.53125 L 4.046875 0 L 1.359375 0 L 1.359375 -8 C 1.359375 -8.550781 1.347656 -9.003906 1.328125 -9.359375 C 1.316406 -9.710938 1.300781 -10.03125 1.28125 -10.3125 L 3.84375 -10.3125 C 3.863281 -10.1875 3.890625 -9.863281 3.921875 -9.34375 C 3.953125 -8.820312 3.96875 -8.460938 3.96875 -8.265625 L 4 -8.265625 C 4.332031 -9.046875 4.742188 -9.613281 5.234375 -9.96875 C 5.722656 -10.332031 6.3125 -10.515625 7 -10.515625 C 8.570312 -10.515625 9.53125 -9.765625 9.875 -8.265625 L 9.921875 -8.265625 C 10.273438 -9.066406 10.695312 -9.640625 11.1875 -9.984375 C 11.675781 -10.335938 12.300781 -10.515625 13.0625 -10.515625 C 14.0625 -10.515625 14.820312 -10.171875 15.34375 -9.484375 C 15.875 -8.804688 16.140625 -7.828125 16.140625 -6.546875 L 16.140625 0 L 13.484375 0 L 13.484375 -5.78125 C 13.484375 -7.59375 12.960938 -8.5 11.921875 -8.5 C 11.398438 -8.5 10.972656 -8.242188 10.640625 -7.734375 C 10.304688 -7.234375 10.125 -6.539062 10.09375 -5.65625 L 10.09375 0 Z M 7.4375 0 "/></g></g></g><g fill="#282626" fill-opacity="1"><g transform="translate(81.465747, 106.138136)"><g><path d="M 1.359375 0 L 1.359375 -7.890625 C 1.359375 -8.453125 1.347656 -8.921875 1.328125 -9.296875 C 1.316406 -9.679688 1.300781 -10.019531 1.28125 -10.3125 L 3.84375 -10.3125 C 3.863281 -10.195312 3.890625 -9.847656 3.921875 -9.265625 C 3.953125 -8.679688 3.96875 -8.296875 3.96875 -8.109375 L 4 -8.109375 C 4.257812 -8.835938 4.488281 -9.347656 4.6875 -9.640625 C 4.894531 -9.929688 5.140625 -10.148438 5.421875 -10.296875 C 5.703125 -10.441406 6.050781 -10.515625 6.46875 -10.515625 C 6.8125 -10.515625 7.085938 -10.46875 7.296875 -10.375 L 7.296875 -8.125 C 6.867188 -8.21875 6.488281 -8.265625 6.15625 -8.265625 C 5.488281 -8.265625 4.96875 -7.992188 4.59375 -7.453125 C 4.226562 -6.921875 4.046875 -6.125 4.046875 -5.0625 L 4.046875 0 Z M 1.359375 0 "/></g></g></g><g fill="#282626" fill-opacity="1"><g transform="translate(89.061342, 106.138136)"><g><path d="M 5.578125 0.1875 C 4.035156 0.1875 2.847656 -0.269531 2.015625 -1.1875 C 1.179688 -2.101562 0.765625 -3.441406 0.765625 -5.203125 C 0.765625 -6.898438 1.1875 -8.207031 2.03125 -9.125 C 2.875 -10.039062 4.070312 -10.5 5.625 -10.5 C 7.101562 -10.5 8.234375 -10.007812 9.015625 -9.03125 C 9.796875 -8.050781 10.1875 -6.613281 10.1875 -4.71875 L 10.1875 -4.640625 L 3.578125 -4.640625 C 3.578125 -3.640625 3.757812 -2.878906 4.125 -2.359375 C 4.5 -1.847656 5.03125 -1.59375 5.71875 -1.59375 C 6.664062 -1.59375 7.265625 -2.003906 7.515625 -2.828125 L 10.03125 -2.609375 C 9.300781 -0.742188 7.816406 0.1875 5.578125 0.1875 Z M 5.578125 -8.8125 C 4.953125 -8.8125 4.46875 -8.59375 4.125 -8.15625 C 3.789062 -7.71875 3.613281 -7.101562 3.59375 -6.3125 L 7.59375 -6.3125 C 7.539062 -7.144531 7.335938 -7.769531 6.984375 -8.1875 C 6.640625 -8.601562 6.171875 -8.8125 5.578125 -8.8125 Z M 5.578125 -8.8125 "/></g></g></g><g fill="#282626" fill-opacity="1"><g transform="translate(99.916277, 106.138136)"><g><path d="M 1.359375 0 L 1.359375 -14.140625 L 4.046875 -14.140625 L 4.046875 0 Z M 1.359375 0 "/></g></g></g><g fill="#282626" fill-opacity="1"><g transform="translate(105.338979, 106.138136)"><g><path d="M 1.359375 -12.171875 L 1.359375 -14.140625 L 4.046875 -14.140625 L 4.046875 -12.171875 Z M 1.359375 0 L 1.359375 -10.3125 L 4.046875 -10.3125 L 4.046875 0 Z M 1.359375 0 "/></g></g></g><g fill="#282626" fill-opacity="1"><g transform="translate(110.761681, 106.138136)"><g><path d="M 3.890625 -10.3125 L 3.890625 -4.53125 C 3.890625 -2.71875 4.5 -1.8125 5.71875 -1.8125 C 6.363281 -1.8125 6.882812 -2.085938 7.28125 -2.640625 C 7.675781 -3.203125 7.875 -3.914062 7.875 -4.78125 L 7.875 -10.3125 L 10.5625 -10.3125 L 10.5625 -2.3125 C 10.5625 -1.425781 10.585938 -0.65625 10.640625 0 L 8.078125 0 C 8.003906 -0.914062 7.96875 -1.597656 7.96875 -2.046875 L 7.921875 -2.046875 C 7.566406 -1.265625 7.113281 -0.695312 6.5625 -0.34375 C 6.007812 0.0078125 5.359375 0.1875 4.609375 0.1875 C 3.515625 0.1875 2.671875 -0.144531 2.078125 -0.8125 C 1.492188 -1.476562 1.203125 -2.460938 1.203125 -3.765625 L 1.203125 -10.3125 Z M 3.890625 -10.3125 "/></g></g></g><g fill="#282626" fill-opacity="1"><g transform="translate(122.684002, 106.138136)"><g><path d="M 10.046875 -3.015625 C 10.046875 -2.015625 9.640625 -1.226562 8.828125 -0.65625 C 8.015625 -0.09375 6.882812 0.1875 5.4375 0.1875 C 4.019531 0.1875 2.9375 -0.0351562 2.1875 -0.484375 C 1.4375 -0.929688 0.9375 -1.628906 0.6875 -2.578125 L 3.046875 -2.921875 C 3.171875 -2.429688 3.394531 -2.082031 3.71875 -1.875 C 4.050781 -1.675781 4.625 -1.578125 5.4375 -1.578125 C 6.1875 -1.578125 6.734375 -1.671875 7.078125 -1.859375 C 7.421875 -2.054688 7.59375 -2.359375 7.59375 -2.765625 C 7.59375 -3.097656 7.453125 -3.359375 7.171875 -3.546875 C 6.898438 -3.742188 6.4375 -3.910156 5.78125 -4.046875 C 4.257812 -4.335938 3.234375 -4.613281 2.703125 -4.875 C 2.179688 -5.132812 1.78125 -5.46875 1.5 -5.875 C 1.226562 -6.28125 1.09375 -6.785156 1.09375 -7.390625 C 1.09375 -8.367188 1.472656 -9.132812 2.234375 -9.6875 C 2.992188 -10.238281 4.066406 -10.515625 5.453125 -10.515625 C 6.679688 -10.515625 7.664062 -10.273438 8.40625 -9.796875 C 9.15625 -9.316406 9.625 -8.628906 9.8125 -7.734375 L 7.4375 -7.484375 C 7.363281 -7.898438 7.175781 -8.210938 6.875 -8.421875 C 6.582031 -8.628906 6.109375 -8.734375 5.453125 -8.734375 C 4.816406 -8.734375 4.335938 -8.648438 4.015625 -8.484375 C 3.703125 -8.328125 3.546875 -8.054688 3.546875 -7.671875 C 3.546875 -7.367188 3.664062 -7.128906 3.90625 -6.953125 C 4.15625 -6.785156 4.570312 -6.644531 5.15625 -6.53125 C 5.957031 -6.363281 6.671875 -6.191406 7.296875 -6.015625 C 7.929688 -5.835938 8.4375 -5.628906 8.8125 -5.390625 C 9.1875 -5.148438 9.484375 -4.835938 9.703125 -4.453125 C 9.929688 -4.078125 10.046875 -3.597656 10.046875 -3.015625 Z M 10.046875 -3.015625 "/></g></g></g><g clip-path="url(#0b8c2518c1)"><path fill="#1f1d1d" d="M 40.992188 90.207031 L 134.378906 90.207031 L 134.378906 104.214844 L 40.992188 104.214844 Z M 40.992188 90.207031 " fill-opacity="1" fill-rule="nonzero"/></g><g fill="#282626" fill-opacity="1"><g transform="translate(41.333939, 101.54532)"><g><path d="M 4 -8.25 C 4.363281 -9.039062 4.816406 -9.613281 5.359375 -9.96875 C 5.910156 -10.320312 6.5625 -10.5 7.3125 -10.5 C 8.40625 -10.5 9.242188 -10.160156 9.828125 -9.484375 C 10.410156 -8.816406 10.703125 -7.832031 10.703125 -6.53125 L 10.703125 0 L 8.046875 0 L 8.046875 -5.78125 C 8.046875 -7.582031 7.429688 -8.484375 6.203125 -8.484375 C 5.554688 -8.484375 5.035156 -8.207031 4.640625 -7.65625 C 4.242188 -7.101562 4.046875 -6.390625 4.046875 -5.515625 L 4.046875 0 L 1.359375 0 L 1.359375 -14.140625 L 4.046875 -14.140625 L 4.046875 -10.28125 C 4.046875 -9.59375 4.019531 -8.914062 3.96875 -8.25 Z M 4 -8.25 "/></g></g></g><g fill="#282626" fill-opacity="1"><g transform="translate(53.256259, 101.54532)"><g><path d="M 3.75 0.1875 C 2.75 0.1875 1.96875 -0.0820312 1.40625 -0.625 C 0.851562 -1.164062 0.578125 -1.929688 0.578125 -2.921875 C 0.578125 -3.984375 0.921875 -4.789062 1.609375 -5.34375 C 2.304688 -5.90625 3.316406 -6.195312 4.640625 -6.21875 L 6.859375 -6.25 L 6.859375 -6.78125 C 6.859375 -7.445312 6.738281 -7.941406 6.5 -8.265625 C 6.269531 -8.597656 5.890625 -8.765625 5.359375 -8.765625 C 4.859375 -8.765625 4.492188 -8.648438 4.265625 -8.421875 C 4.035156 -8.203125 3.890625 -7.832031 3.828125 -7.3125 L 1.03125 -7.4375 C 1.207031 -8.445312 1.664062 -9.207031 2.40625 -9.71875 C 3.15625 -10.238281 4.175781 -10.5 5.46875 -10.5 C 6.769531 -10.5 7.769531 -10.175781 8.46875 -9.53125 C 9.175781 -8.894531 9.53125 -7.984375 9.53125 -6.796875 L 9.53125 -3.046875 C 9.53125 -2.472656 9.59375 -2.078125 9.71875 -1.859375 C 9.851562 -1.640625 10.078125 -1.53125 10.390625 -1.53125 C 10.585938 -1.53125 10.785156 -1.546875 10.984375 -1.578125 L 10.984375 -0.140625 C 10.816406 -0.0976562 10.671875 -0.0625 10.546875 -0.03125 C 10.421875 0 10.296875 0.0234375 10.171875 0.046875 C 10.046875 0.0664062 9.910156 0.0820312 9.765625 0.09375 C 9.617188 0.101562 9.453125 0.109375 9.265625 0.109375 C 8.585938 0.109375 8.085938 -0.0507812 7.765625 -0.375 C 7.453125 -0.707031 7.257812 -1.195312 7.1875 -1.84375 L 7.140625 -1.84375 C 6.390625 -0.488281 5.257812 0.1875 3.75 0.1875 Z M 6.859375 -4.78125 L 5.484375 -4.75 C 4.867188 -4.726562 4.429688 -4.660156 4.171875 -4.546875 C 3.910156 -4.441406 3.707031 -4.273438 3.5625 -4.046875 C 3.425781 -3.816406 3.359375 -3.507812 3.359375 -3.125 C 3.359375 -2.632812 3.472656 -2.269531 3.703125 -2.03125 C 3.929688 -1.789062 4.234375 -1.671875 4.609375 -1.671875 C 5.023438 -1.671875 5.40625 -1.785156 5.75 -2.015625 C 6.09375 -2.242188 6.363281 -2.5625 6.5625 -2.96875 C 6.757812 -3.375 6.859375 -3.800781 6.859375 -4.25 Z M 6.859375 -4.78125 "/></g></g></g><g fill="#282626" fill-opacity="1"><g transform="translate(64.111194, 101.54532)"><g><path d="M 7.4375 0 L 7.4375 -5.78125 C 7.4375 -7.59375 6.914062 -8.5 5.875 -8.5 C 5.332031 -8.5 4.890625 -8.222656 4.546875 -7.671875 C 4.210938 -7.117188 4.046875 -6.40625 4.046875 -5.53125 L 4.046875 0 L 1.359375 0 L 1.359375 -8 C 1.359375 -8.550781 1.347656 -9.003906 1.328125 -9.359375 C 1.316406 -9.710938 1.300781 -10.03125 1.28125 -10.3125 L 3.84375 -10.3125 C 3.863281 -10.1875 3.890625 -9.863281 3.921875 -9.34375 C 3.953125 -8.820312 3.96875 -8.460938 3.96875 -8.265625 L 4 -8.265625 C 4.332031 -9.046875 4.742188 -9.613281 5.234375 -9.96875 C 5.722656 -10.332031 6.3125 -10.515625 7 -10.515625 C 8.570312 -10.515625 9.53125 -9.765625 9.875 -8.265625 L 9.921875 -8.265625 C 10.273438 -9.066406 10.695312 -9.640625 11.1875 -9.984375 C 11.675781 -10.335938 12.300781 -10.515625 13.0625 -10.515625 C 14.0625 -10.515625 14.820312 -10.171875 15.34375 -9.484375 C 15.875 -8.804688 16.140625 -7.828125 16.140625 -6.546875 L 16.140625 0 L 13.484375 0 L 13.484375 -5.78125 C 13.484375 -7.59375 12.960938 -8.5 11.921875 -8.5 C 11.398438 -8.5 10.972656 -8.242188 10.640625 -7.734375 C 10.304688 -7.234375 10.125 -6.539062 10.09375 -5.65625 L 10.09375 0 Z M 7.4375 0 "/></g></g></g><g fill="#282626" fill-opacity="1"><g transform="translate(81.465747, 101.54532)"><g><path d="M 1.359375 0 L 1.359375 -7.890625 C 1.359375 -8.453125 1.347656 -8.921875 1.328125 -9.296875 C 1.316406 -9.679688 1.300781 -10.019531 1.28125 -10.3125 L 3.84375 -10.3125 C 3.863281 -10.195312 3.890625 -9.847656 3.921875 -9.265625 C 3.953125 -8.679688 3.96875 -8.296875 3.96875 -8.109375 L 4 -8.109375 C 4.257812 -8.835938 4.488281 -9.347656 4.6875 -9.640625 C 4.894531 -9.929688 5.140625 -10.148438 5.421875 -10.296875 C 5.703125 -10.441406 6.050781 -10.515625 6.46875 -10.515625 C 6.8125 -10.515625 7.085938 -10.46875 7.296875 -10.375 L 7.296875 -8.125 C 6.867188 -8.21875 6.488281 -8.265625 6.15625 -8.265625 C 5.488281 -8.265625 4.96875 -7.992188 4.59375 -7.453125 C 4.226562 -6.921875 4.046875 -6.125 4.046875 -5.0625 L 4.046875 0 Z M 1.359375 0 "/></g></g></g><g fill="#282626" fill-opacity="1"><g transform="translate(89.061342, 101.54532)"><g><path d="M 5.578125 0.1875 C 4.035156 0.1875 2.847656 -0.269531 2.015625 -1.1875 C 1.179688 -2.101562 0.765625 -3.441406 0.765625 -5.203125 C 0.765625 -6.898438 1.1875 -8.207031 2.03125 -9.125 C 2.875 -10.039062 4.070312 -10.5 5.625 -10.5 C 7.101562 -10.5 8.234375 -10.007812 9.015625 -9.03125 C 9.796875 -8.050781 10.1875 -6.613281 10.1875 -4.71875 L 10.1875 -4.640625 L 3.578125 -4.640625 C 3.578125 -3.640625 3.757812 -2.878906 4.125 -2.359375 C 4.5 -1.847656 5.03125 -1.59375 5.71875 -1.59375 C 6.664062 -1.59375 7.265625 -2.003906 7.515625 -2.828125 L 10.03125 -2.609375 C 9.300781 -0.742188 7.816406 0.1875 5.578125 0.1875 Z M 5.578125 -8.8125 C 4.953125 -8.8125 4.46875 -8.59375 4.125 -8.15625 C 3.789062 -7.71875 3.613281 -7.101562 3.59375 -6.3125 L 7.59375 -6.3125 C 7.539062 -7.144531 7.335938 -7.769531 6.984375 -8.1875 C 6.640625 -8.601562 6.171875 -8.8125 5.578125 -8.8125 Z M 5.578125 -8.8125 "/></g></g></g><g fill="#282626" fill-opacity="1"><g transform="translate(99.916277, 101.54532)"><g><path d="M 1.359375 0 L 1.359375 -14.140625 L 4.046875 -14.140625 L 4.046875 0 Z M 1.359375 0 "/></g></g></g><g fill="#282626" fill-opacity="1"><g transform="translate(105.338979, 101.54532)"><g><path d="M 1.359375 -12.171875 L 1.359375 -14.140625 L 4.046875 -14.140625 L 4.046875 -12.171875 Z M 1.359375 0 L 1.359375 -10.3125 L 4.046875 -10.3125 L 4.046875 0 Z M 1.359375 0 "/></g></g></g><g fill="#282626" fill-opacity="1"><g transform="translate(110.761681, 101.54532)"><g><path d="M 3.890625 -10.3125 L 3.890625 -4.53125 C 3.890625 -2.71875 4.5 -1.8125 5.71875 -1.8125 C 6.363281 -1.8125 6.882812 -2.085938 7.28125 -2.640625 C 7.675781 -3.203125 7.875 -3.914062 7.875 -4.78125 L 7.875 -10.3125 L 10.5625 -10.3125 L 10.5625 -2.3125 C 10.5625 -1.425781 10.585938 -0.65625 10.640625 0 L 8.078125 0 C 8.003906 -0.914062 7.96875 -1.597656 7.96875 -2.046875 L 7.921875 -2.046875 C 7.566406 -1.265625 7.113281 -0.695312 6.5625 -0.34375 C 6.007812 0.0078125 5.359375 0.1875 4.609375 0.1875 C 3.515625 0.1875 2.671875 -0.144531 2.078125 -0.8125 C 1.492188 -1.476562 1.203125 -2.460938 1.203125 -3.765625 L 1.203125 -10.3125 Z M 3.890625 -10.3125 "/></g></g></g><g fill="#282626" fill-opacity="1"><g transform="translate(122.684002, 101.54532)"><g><path d="M 10.046875 -3.015625 C 10.046875 -2.015625 9.640625 -1.226562 8.828125 -0.65625 C 8.015625 -0.09375 6.882812 0.1875 5.4375 0.1875 C 4.019531 0.1875 2.9375 -0.0351562 2.1875 -0.484375 C 1.4375 -0.929688 0.9375 -1.628906 0.6875 -2.578125 L 3.046875 -2.921875 C 3.171875 -2.429688 3.394531 -2.082031 3.71875 -1.875 C 4.050781 -1.675781 4.625 -1.578125 5.4375 -1.578125 C 6.1875 -1.578125 6.734375 -1.671875 7.078125 -1.859375 C 7.421875 -2.054688 7.59375 -2.359375 7.59375 -2.765625 C 7.59375 -3.097656 7.453125 -3.359375 7.171875 -3.546875 C 6.898438 -3.742188 6.4375 -3.910156 5.78125 -4.046875 C 4.257812 -4.335938 3.234375 -4.613281 2.703125 -4.875 C 2.179688 -5.132812 1.78125 -5.46875 1.5 -5.875 C 1.226562 -6.28125 1.09375 -6.785156 1.09375 -7.390625 C 1.09375 -8.367188 1.472656 -9.132812 2.234375 -9.6875 C 2.992188 -10.238281 4.066406 -10.515625 5.453125 -10.515625 C 6.679688 -10.515625 7.664062 -10.273438 8.40625 -9.796875 C 9.15625 -9.316406 9.625 -8.628906 9.8125 -7.734375 L 7.4375 -7.484375 C 7.363281 -7.898438 7.175781 -8.210938 6.875 -8.421875 C 6.582031 -8.628906 6.109375 -8.734375 5.453125 -8.734375 C 4.816406 -8.734375 4.335938 -8.648438 4.015625 -8.484375 C 3.703125 -8.328125 3.546875 -8.054688 3.546875 -7.671875 C 3.546875 -7.367188 3.664062 -7.128906 3.90625 -6.953125 C 4.15625 -6.785156 4.570312 -6.644531 5.15625 -6.53125 C 5.957031 -6.363281 6.671875 -6.191406 7.296875 -6.015625 C 7.929688 -5.835938 8.4375 -5.628906 8.8125 -5.390625 C 9.1875 -5.148438 9.484375 -4.835938 9.703125 -4.453125 C 9.929688 -4.078125 10.046875 -3.597656 10.046875 -3.015625 Z M 10.046875 -3.015625 "/></g></g></g><g clip-path="url(#cd2f7c6e86)"><path fill="#1f1d1d" d="M 40.992188 85.191406 L 134.378906 85.191406 L 134.378906 99.199219 L 40.992188 99.199219 Z M 40.992188 85.191406 " fill-opacity="1" fill-rule="nonzero"/></g><g fill="#282626" fill-opacity="1"><g transform="translate(41.333939, 96.532518)"><g><path d="M 4 -8.25 C 4.363281 -9.039062 4.816406 -9.613281 5.359375 -9.96875 C 5.910156 -10.320312 6.5625 -10.5 7.3125 -10.5 C 8.40625 -10.5 9.242188 -10.160156 9.828125 -9.484375 C 10.410156 -8.816406 10.703125 -7.832031 10.703125 -6.53125 L 10.703125 0 L 8.046875 0 L 8.046875 -5.78125 C 8.046875 -7.582031 7.429688 -8.484375 6.203125 -8.484375 C 5.554688 -8.484375 5.035156 -8.207031 4.640625 -7.65625 C 4.242188 -7.101562 4.046875 -6.390625 4.046875 -5.515625 L 4.046875 0 L 1.359375 0 L 1.359375 -14.140625 L 4.046875 -14.140625 L 4.046875 -10.28125 C 4.046875 -9.59375 4.019531 -8.914062 3.96875 -8.25 Z M 4 -8.25 "/></g></g></g><g fill="#282626" fill-opacity="1"><g transform="translate(53.256259, 96.532518)"><g><path d="M 3.75 0.1875 C 2.75 0.1875 1.96875 -0.0820312 1.40625 -0.625 C 0.851562 -1.164062 0.578125 -1.929688 0.578125 -2.921875 C 0.578125 -3.984375 0.921875 -4.789062 1.609375 -5.34375 C 2.304688 -5.90625 3.316406 -6.195312 4.640625 -6.21875 L 6.859375 -6.25 L 6.859375 -6.78125 C 6.859375 -7.445312 6.738281 -7.941406 6.5 -8.265625 C 6.269531 -8.597656 5.890625 -8.765625 5.359375 -8.765625 C 4.859375 -8.765625 4.492188 -8.648438 4.265625 -8.421875 C 4.035156 -8.203125 3.890625 -7.832031 3.828125 -7.3125 L 1.03125 -7.4375 C 1.207031 -8.445312 1.664062 -9.207031 2.40625 -9.71875 C 3.15625 -10.238281 4.175781 -10.5 5.46875 -10.5 C 6.769531 -10.5 7.769531 -10.175781 8.46875 -9.53125 C 9.175781 -8.894531 9.53125 -7.984375 9.53125 -6.796875 L 9.53125 -3.046875 C 9.53125 -2.472656 9.59375 -2.078125 9.71875 -1.859375 C 9.851562 -1.640625 10.078125 -1.53125 10.390625 -1.53125 C 10.585938 -1.53125 10.785156 -1.546875 10.984375 -1.578125 L 10.984375 -0.140625 C 10.816406 -0.0976562 10.671875 -0.0625 10.546875 -0.03125 C 10.421875 0 10.296875 0.0234375 10.171875 0.046875 C 10.046875 0.0664062 9.910156 0.0820312 9.765625 0.09375 C 9.617188 0.101562 9.453125 0.109375 9.265625 0.109375 C 8.585938 0.109375 8.085938 -0.0507812 7.765625 -0.375 C 7.453125 -0.707031 7.257812 -1.195312 7.1875 -1.84375 L 7.140625 -1.84375 C 6.390625 -0.488281 5.257812 0.1875 3.75 0.1875 Z M 6.859375 -4.78125 L 5.484375 -4.75 C 4.867188 -4.726562 4.429688 -4.660156 4.171875 -4.546875 C 3.910156 -4.441406 3.707031 -4.273438 3.5625 -4.046875 C 3.425781 -3.816406 3.359375 -3.507812 3.359375 -3.125 C 3.359375 -2.632812 3.472656 -2.269531 3.703125 -2.03125 C 3.929688 -1.789062 4.234375 -1.671875 4.609375 -1.671875 C 5.023438 -1.671875 5.40625 -1.785156 5.75 -2.015625 C 6.09375 -2.242188 6.363281 -2.5625 6.5625 -2.96875 C 6.757812 -3.375 6.859375 -3.800781 6.859375 -4.25 Z M 6.859375 -4.78125 "/></g></g></g><g fill="#282626" fill-opacity="1"><g transform="translate(64.111194, 96.532518)"><g><path d="M 7.4375 0 L 7.4375 -5.78125 C 7.4375 -7.59375 6.914062 -8.5 5.875 -8.5 C 5.332031 -8.5 4.890625 -8.222656 4.546875 -7.671875 C 4.210938 -7.117188 4.046875 -6.40625 4.046875 -5.53125 L 4.046875 0 L 1.359375 0 L 1.359375 -8 C 1.359375 -8.550781 1.347656 -9.003906 1.328125 -9.359375 C 1.316406 -9.710938 1.300781 -10.03125 1.28125 -10.3125 L 3.84375 -10.3125 C 3.863281 -10.1875 3.890625 -9.863281 3.921875 -9.34375 C 3.953125 -8.820312 3.96875 -8.460938 3.96875 -8.265625 L 4 -8.265625 C 4.332031 -9.046875 4.742188 -9.613281 5.234375 -9.96875 C 5.722656 -10.332031 6.3125 -10.515625 7 -10.515625 C 8.570312 -10.515625 9.53125 -9.765625 9.875 -8.265625 L 9.921875 -8.265625 C 10.273438 -9.066406 10.695312 -9.640625 11.1875 -9.984375 C 11.675781 -10.335938 12.300781 -10.515625 13.0625 -10.515625 C 14.0625 -10.515625 14.820312 -10.171875 15.34375 -9.484375 C 15.875 -8.804688 16.140625 -7.828125 16.140625 -6.546875 L 16.140625 0 L 13.484375 0 L 13.484375 -5.78125 C 13.484375 -7.59375 12.960938 -8.5 11.921875 -8.5 C 11.398438 -8.5 10.972656 -8.242188 10.640625 -7.734375 C 10.304688 -7.234375 10.125 -6.539062 10.09375 -5.65625 L 10.09375 0 Z M 7.4375 0 "/></g></g></g><g fill="#282626" fill-opacity="1"><g transform="translate(81.465747, 96.532518)"><g><path d="M 1.359375 0 L 1.359375 -7.890625 C 1.359375 -8.453125 1.347656 -8.921875 1.328125 -9.296875 C 1.316406 -9.679688 1.300781 -10.019531 1.28125 -10.3125 L 3.84375 -10.3125 C 3.863281 -10.195312 3.890625 -9.847656 3.921875 -9.265625 C 3.953125 -8.679688 3.96875 -8.296875 3.96875 -8.109375 L 4 -8.109375 C 4.257812 -8.835938 4.488281 -9.347656 4.6875 -9.640625 C 4.894531 -9.929688 5.140625 -10.148438 5.421875 -10.296875 C 5.703125 -10.441406 6.050781 -10.515625 6.46875 -10.515625 C 6.8125 -10.515625 7.085938 -10.46875 7.296875 -10.375 L 7.296875 -8.125 C 6.867188 -8.21875 6.488281 -8.265625 6.15625 -8.265625 C 5.488281 -8.265625 4.96875 -7.992188 4.59375 -7.453125 C 4.226562 -6.921875 4.046875 -6.125 4.046875 -5.0625 L 4.046875 0 Z M 1.359375 0 "/></g></g></g><g fill="#282626" fill-opacity="1"><g transform="translate(89.061342, 96.532518)"><g><path d="M 5.578125 0.1875 C 4.035156 0.1875 2.847656 -0.269531 2.015625 -1.1875 C 1.179688 -2.101562 0.765625 -3.441406 0.765625 -5.203125 C 0.765625 -6.898438 1.1875 -8.207031 2.03125 -9.125 C 2.875 -10.039062 4.070312 -10.5 5.625 -10.5 C 7.101562 -10.5 8.234375 -10.007812 9.015625 -9.03125 C 9.796875 -8.050781 10.1875 -6.613281 10.1875 -4.71875 L 10.1875 -4.640625 L 3.578125 -4.640625 C 3.578125 -3.640625 3.757812 -2.878906 4.125 -2.359375 C 4.5 -1.847656 5.03125 -1.59375 5.71875 -1.59375 C 6.664062 -1.59375 7.265625 -2.003906 7.515625 -2.828125 L 10.03125 -2.609375 C 9.300781 -0.742188 7.816406 0.1875 5.578125 0.1875 Z M 5.578125 -8.8125 C 4.953125 -8.8125 4.46875 -8.59375 4.125 -8.15625 C 3.789062 -7.71875 3.613281 -7.101562 3.59375 -6.3125 L 7.59375 -6.3125 C 7.539062 -7.144531 7.335938 -7.769531 6.984375 -8.1875 C 6.640625 -8.601562 6.171875 -8.8125 5.578125 -8.8125 Z M 5.578125 -8.8125 "/></g></g></g><g fill="#282626" fill-opacity="1"><g transform="translate(99.916277, 96.532518)"><g><path d="M 1.359375 0 L 1.359375 -14.140625 L 4.046875 -14.140625 L 4.046875 0 Z M 1.359375 0 "/></g></g></g><g fill="#282626" fill-opacity="1"><g transform="translate(105.338979, 96.532518)"><g><path d="M 1.359375 -12.171875 L 1.359375 -14.140625 L 4.046875 -14.140625 L 4.046875 -12.171875 Z M 1.359375 0 L 1.359375 -10.3125 L 4.046875 -10.3125 L 4.046875 0 Z M 1.359375 0 "/></g></g></g><g fill="#282626" fill-opacity="1"><g transform="translate(110.761681, 96.532518)"><g><path d="M 3.890625 -10.3125 L 3.890625 -4.53125 C 3.890625 -2.71875 4.5 -1.8125 5.71875 -1.8125 C 6.363281 -1.8125 6.882812 -2.085938 7.28125 -2.640625 C 7.675781 -3.203125 7.875 -3.914062 7.875 -4.78125 L 7.875 -10.3125 L 10.5625 -10.3125 L 10.5625 -2.3125 C 10.5625 -1.425781 10.585938 -0.65625 10.640625 0 L 8.078125 0 C 8.003906 -0.914062 7.96875 -1.597656 7.96875 -2.046875 L 7.921875 -2.046875 C 7.566406 -1.265625 7.113281 -0.695312 6.5625 -0.34375 C 6.007812 0.0078125 5.359375 0.1875 4.609375 0.1875 C 3.515625 0.1875 2.671875 -0.144531 2.078125 -0.8125 C 1.492188 -1.476562 1.203125 -2.460938 1.203125 -3.765625 L 1.203125 -10.3125 Z M 3.890625 -10.3125 "/></g></g></g><g fill="#282626" fill-opacity="1"><g transform="translate(122.684002, 96.532518)"><g><path d="M 10.046875 -3.015625 C 10.046875 -2.015625 9.640625 -1.226562 8.828125 -0.65625 C 8.015625 -0.09375 6.882812 0.1875 5.4375 0.1875 C 4.019531 0.1875 2.9375 -0.0351562 2.1875 -0.484375 C 1.4375 -0.929688 0.9375 -1.628906 0.6875 -2.578125 L 3.046875 -2.921875 C 3.171875 -2.429688 3.394531 -2.082031 3.71875 -1.875 C 4.050781 -1.675781 4.625 -1.578125 5.4375 -1.578125 C 6.1875 -1.578125 6.734375 -1.671875 7.078125 -1.859375 C 7.421875 -2.054688 7.59375 -2.359375 7.59375 -2.765625 C 7.59375 -3.097656 7.453125 -3.359375 7.171875 -3.546875 C 6.898438 -3.742188 6.4375 -3.910156 5.78125 -4.046875 C 4.257812 -4.335938 3.234375 -4.613281 2.703125 -4.875 C 2.179688 -5.132812 1.78125 -5.46875 1.5 -5.875 C 1.226562 -6.28125 1.09375 -6.785156 1.09375 -7.390625 C 1.09375 -8.367188 1.472656 -9.132812 2.234375 -9.6875 C 2.992188 -10.238281 4.066406 -10.515625 5.453125 -10.515625 C 6.679688 -10.515625 7.664062 -10.273438 8.40625 -9.796875 C 9.15625 -9.316406 9.625 -8.628906 9.8125 -7.734375 L 7.4375 -7.484375 C 7.363281 -7.898438 7.175781 -8.210938 6.875 -8.421875 C 6.582031 -8.628906 6.109375 -8.734375 5.453125 -8.734375 C 4.816406 -8.734375 4.335938 -8.648438 4.015625 -8.484375 C 3.703125 -8.328125 3.546875 -8.054688 3.546875 -7.671875 C 3.546875 -7.367188 3.664062 -7.128906 3.90625 -6.953125 C 4.15625 -6.785156 4.570312 -6.644531 5.15625 -6.53125 C 5.957031 -6.363281 6.671875 -6.191406 7.296875 -6.015625 C 7.929688 -5.835938 8.4375 -5.628906 8.8125 -5.390625 C 9.1875 -5.148438 9.484375 -4.835938 9.703125 -4.453125 C 9.929688 -4.078125 10.046875 -3.597656 10.046875 -3.015625 Z M 10.046875 -3.015625 "/></g></g></g><g clip-path="url(#a2c3e95f6e)"><path fill="#1f1d1d" d="M 40.992188 79.546875 L 134.378906 79.546875 L 134.378906 93.554688 L 40.992188 93.554688 Z M 40.992188 79.546875 " fill-opacity="1" fill-rule="nonzero"/></g><g fill="#282626" fill-opacity="1"><g transform="translate(41.333939, 91.043074)"><g><path d="M 4 -8.25 C 4.363281 -9.039062 4.816406 -9.613281 5.359375 -9.96875 C 5.910156 -10.320312 6.5625 -10.5 7.3125 -10.5 C 8.40625 -10.5 9.242188 -10.160156 9.828125 -9.484375 C 10.410156 -8.816406 10.703125 -7.832031 10.703125 -6.53125 L 10.703125 0 L 8.046875 0 L 8.046875 -5.78125 C 8.046875 -7.582031 7.429688 -8.484375 6.203125 -8.484375 C 5.554688 -8.484375 5.035156 -8.207031 4.640625 -7.65625 C 4.242188 -7.101562 4.046875 -6.390625 4.046875 -5.515625 L 4.046875 0 L 1.359375 0 L 1.359375 -14.140625 L 4.046875 -14.140625 L 4.046875 -10.28125 C 4.046875 -9.59375 4.019531 -8.914062 3.96875 -8.25 Z M 4 -8.25 "/></g></g></g><g fill="#282626" fill-opacity="1"><g transform="translate(53.256259, 91.043074)"><g><path d="M 3.75 0.1875 C 2.75 0.1875 1.96875 -0.0820312 1.40625 -0.625 C 0.851562 -1.164062 0.578125 -1.929688 0.578125 -2.921875 C 0.578125 -3.984375 0.921875 -4.789062 1.609375 -5.34375 C 2.304688 -5.90625 3.316406 -6.195312 4.640625 -6.21875 L 6.859375 -6.25 L 6.859375 -6.78125 C 6.859375 -7.445312 6.738281 -7.941406 6.5 -8.265625 C 6.269531 -8.597656 5.890625 -8.765625 5.359375 -8.765625 C 4.859375 -8.765625 4.492188 -8.648438 4.265625 -8.421875 C 4.035156 -8.203125 3.890625 -7.832031 3.828125 -7.3125 L 1.03125 -7.4375 C 1.207031 -8.445312 1.664062 -9.207031 2.40625 -9.71875 C 3.15625 -10.238281 4.175781 -10.5 5.46875 -10.5 C 6.769531 -10.5 7.769531 -10.175781 8.46875 -9.53125 C 9.175781 -8.894531 9.53125 -7.984375 9.53125 -6.796875 L 9.53125 -3.046875 C 9.53125 -2.472656 9.59375 -2.078125 9.71875 -1.859375 C 9.851562 -1.640625 10.078125 -1.53125 10.390625 -1.53125 C 10.585938 -1.53125 10.785156 -1.546875 10.984375 -1.578125 L 10.984375 -0.140625 C 10.816406 -0.0976562 10.671875 -0.0625 10.546875 -0.03125 C 10.421875 0 10.296875 0.0234375 10.171875 0.046875 C 10.046875 0.0664062 9.910156 0.0820312 9.765625 0.09375 C 9.617188 0.101562 9.453125 0.109375 9.265625 0.109375 C 8.585938 0.109375 8.085938 -0.0507812 7.765625 -0.375 C 7.453125 -0.707031 7.257812 -1.195312 7.1875 -1.84375 L 7.140625 -1.84375 C 6.390625 -0.488281 5.257812 0.1875 3.75 0.1875 Z M 6.859375 -4.78125 L 5.484375 -4.75 C 4.867188 -4.726562 4.429688 -4.660156 4.171875 -4.546875 C 3.910156 -4.441406 3.707031 -4.273438 3.5625 -4.046875 C 3.425781 -3.816406 3.359375 -3.507812 3.359375 -3.125 C 3.359375 -2.632812 3.472656 -2.269531 3.703125 -2.03125 C 3.929688 -1.789062 4.234375 -1.671875 4.609375 -1.671875 C 5.023438 -1.671875 5.40625 -1.785156 5.75 -2.015625 C 6.09375 -2.242188 6.363281 -2.5625 6.5625 -2.96875 C 6.757812 -3.375 6.859375 -3.800781 6.859375 -4.25 Z M 6.859375 -4.78125 "/></g></g></g><g fill="#282626" fill-opacity="1"><g transform="translate(64.111194, 91.043074)"><g><path d="M 7.4375 0 L 7.4375 -5.78125 C 7.4375 -7.59375 6.914062 -8.5 5.875 -8.5 C 5.332031 -8.5 4.890625 -8.222656 4.546875 -7.671875 C 4.210938 -7.117188 4.046875 -6.40625 4.046875 -5.53125 L 4.046875 0 L 1.359375 0 L 1.359375 -8 C 1.359375 -8.550781 1.347656 -9.003906 1.328125 -9.359375 C 1.316406 -9.710938 1.300781 -10.03125 1.28125 -10.3125 L 3.84375 -10.3125 C 3.863281 -10.1875 3.890625 -9.863281 3.921875 -9.34375 C 3.953125 -8.820312 3.96875 -8.460938 3.96875 -8.265625 L 4 -8.265625 C 4.332031 -9.046875 4.742188 -9.613281 5.234375 -9.96875 C 5.722656 -10.332031 6.3125 -10.515625 7 -10.515625 C 8.570312 -10.515625 9.53125 -9.765625 9.875 -8.265625 L 9.921875 -8.265625 C 10.273438 -9.066406 10.695312 -9.640625 11.1875 -9.984375 C 11.675781 -10.335938 12.300781 -10.515625 13.0625 -10.515625 C 14.0625 -10.515625 14.820312 -10.171875 15.34375 -9.484375 C 15.875 -8.804688 16.140625 -7.828125 16.140625 -6.546875 L 16.140625 0 L 13.484375 0 L 13.484375 -5.78125 C 13.484375 -7.59375 12.960938 -8.5 11.921875 -8.5 C 11.398438 -8.5 10.972656 -8.242188 10.640625 -7.734375 C 10.304688 -7.234375 10.125 -6.539062 10.09375 -5.65625 L 10.09375 0 Z M 7.4375 0 "/></g></g></g><g fill="#282626" fill-opacity="1"><g transform="translate(81.465747, 91.043074)"><g><path d="M 1.359375 0 L 1.359375 -7.890625 C 1.359375 -8.453125 1.347656 -8.921875 1.328125 -9.296875 C 1.316406 -9.679688 1.300781 -10.019531 1.28125 -10.3125 L 3.84375 -10.3125 C 3.863281 -10.195312 3.890625 -9.847656 3.921875 -9.265625 C 3.953125 -8.679688 3.96875 -8.296875 3.96875 -8.109375 L 4 -8.109375 C 4.257812 -8.835938 4.488281 -9.347656 4.6875 -9.640625 C 4.894531 -9.929688 5.140625 -10.148438 5.421875 -10.296875 C 5.703125 -10.441406 6.050781 -10.515625 6.46875 -10.515625 C 6.8125 -10.515625 7.085938 -10.46875 7.296875 -10.375 L 7.296875 -8.125 C 6.867188 -8.21875 6.488281 -8.265625 6.15625 -8.265625 C 5.488281 -8.265625 4.96875 -7.992188 4.59375 -7.453125 C 4.226562 -6.921875 4.046875 -6.125 4.046875 -5.0625 L 4.046875 0 Z M 1.359375 0 "/></g></g></g><g fill="#282626" fill-opacity="1"><g transform="translate(89.061342, 91.043074)"><g><path d="M 5.578125 0.1875 C 4.035156 0.1875 2.847656 -0.269531 2.015625 -1.1875 C 1.179688 -2.101562 0.765625 -3.441406 0.765625 -5.203125 C 0.765625 -6.898438 1.1875 -8.207031 2.03125 -9.125 C 2.875 -10.039062 4.070312 -10.5 5.625 -10.5 C 7.101562 -10.5 8.234375 -10.007812 9.015625 -9.03125 C 9.796875 -8.050781 10.1875 -6.613281 10.1875 -4.71875 L 10.1875 -4.640625 L 3.578125 -4.640625 C 3.578125 -3.640625 3.757812 -2.878906 4.125 -2.359375 C 4.5 -1.847656 5.03125 -1.59375 5.71875 -1.59375 C 6.664062 -1.59375 7.265625 -2.003906 7.515625 -2.828125 L 10.03125 -2.609375 C 9.300781 -0.742188 7.816406 0.1875 5.578125 0.1875 Z M 5.578125 -8.8125 C 4.953125 -8.8125 4.46875 -8.59375 4.125 -8.15625 C 3.789062 -7.71875 3.613281 -7.101562 3.59375 -6.3125 L 7.59375 -6.3125 C 7.539062 -7.144531 7.335938 -7.769531 6.984375 -8.1875 C 6.640625 -8.601562 6.171875 -8.8125 5.578125 -8.8125 Z M 5.578125 -8.8125 "/></g></g></g><g fill="#282626" fill-opacity="1"><g transform="translate(99.916277, 91.043074)"><g><path d="M 1.359375 0 L 1.359375 -14.140625 L 4.046875 -14.140625 L 4.046875 0 Z M 1.359375 0 "/></g></g></g><g fill="#282626" fill-opacity="1"><g transform="translate(105.338979, 91.043074)"><g><path d="M 1.359375 -12.171875 L 1.359375 -14.140625 L 4.046875 -14.140625 L 4.046875 -12.171875 Z M 1.359375 0 L 1.359375 -10.3125 L 4.046875 -10.3125 L 4.046875 0 Z M 1.359375 0 "/></g></g></g><g fill="#282626" fill-opacity="1"><g transform="translate(110.761681, 91.043074)"><g><path d="M 3.890625 -10.3125 L 3.890625 -4.53125 C 3.890625 -2.71875 4.5 -1.8125 5.71875 -1.8125 C 6.363281 -1.8125 6.882812 -2.085938 7.28125 -2.640625 C 7.675781 -3.203125 7.875 -3.914062 7.875 -4.78125 L 7.875 -10.3125 L 10.5625 -10.3125 L 10.5625 -2.3125 C 10.5625 -1.425781 10.585938 -0.65625 10.640625 0 L 8.078125 0 C 8.003906 -0.914062 7.96875 -1.597656 7.96875 -2.046875 L 7.921875 -2.046875 C 7.566406 -1.265625 7.113281 -0.695312 6.5625 -0.34375 C 6.007812 0.0078125 5.359375 0.1875 4.609375 0.1875 C 3.515625 0.1875 2.671875 -0.144531 2.078125 -0.8125 C 1.492188 -1.476562 1.203125 -2.460938 1.203125 -3.765625 L 1.203125 -10.3125 Z M 3.890625 -10.3125 "/></g></g></g><g fill="#282626" fill-opacity="1"><g transform="translate(122.684002, 91.043074)"><g><path d="M 10.046875 -3.015625 C 10.046875 -2.015625 9.640625 -1.226562 8.828125 -0.65625 C 8.015625 -0.09375 6.882812 0.1875 5.4375 0.1875 C 4.019531 0.1875 2.9375 -0.0351562 2.1875 -0.484375 C 1.4375 -0.929688 0.9375 -1.628906 0.6875 -2.578125 L 3.046875 -2.921875 C 3.171875 -2.429688 3.394531 -2.082031 3.71875 -1.875 C 4.050781 -1.675781 4.625 -1.578125 5.4375 -1.578125 C 6.1875 -1.578125 6.734375 -1.671875 7.078125 -1.859375 C 7.421875 -2.054688 7.59375 -2.359375 7.59375 -2.765625 C 7.59375 -3.097656 7.453125 -3.359375 7.171875 -3.546875 C 6.898438 -3.742188 6.4375 -3.910156 5.78125 -4.046875 C 4.257812 -4.335938 3.234375 -4.613281 2.703125 -4.875 C 2.179688 -5.132812 1.78125 -5.46875 1.5 -5.875 C 1.226562 -6.28125 1.09375 -6.785156 1.09375 -7.390625 C 1.09375 -8.367188 1.472656 -9.132812 2.234375 -9.6875 C 2.992188 -10.238281 4.066406 -10.515625 5.453125 -10.515625 C 6.679688 -10.515625 7.664062 -10.273438 8.40625 -9.796875 C 9.15625 -9.316406 9.625 -8.628906 9.8125 -7.734375 L 7.4375 -7.484375 C 7.363281 -7.898438 7.175781 -8.210938 6.875 -8.421875 C 6.582031 -8.628906 6.109375 -8.734375 5.453125 -8.734375 C 4.816406 -8.734375 4.335938 -8.648438 4.015625 -8.484375 C 3.703125 -8.328125 3.546875 -8.054688 3.546875 -7.671875 C 3.546875 -7.367188 3.664062 -7.128906 3.90625 -6.953125 C 4.15625 -6.785156 4.570312 -6.644531 5.15625 -6.53125 C 5.957031 -6.363281 6.671875 -6.191406 7.296875 -6.015625 C 7.929688 -5.835938 8.4375 -5.628906 8.8125 -5.390625 C 9.1875 -5.148438 9.484375 -4.835938 9.703125 -4.453125 C 9.929688 -4.078125 10.046875 -3.597656 10.046875 -3.015625 Z M 10.046875 -3.015625 "/></g></g></g><g clip-path="url(#61c297abe8)"><path fill="#1f1d1d" d="M 40.992188 71.929688 L 134.378906 71.929688 L 134.378906 85.9375 L 40.992188 85.9375 Z M 40.992188 71.929688 " fill-opacity="1" fill-rule="nonzero"/></g><g fill="#282626" fill-opacity="1"><g transform="translate(41.333939, 82.850854)"><g><path d="M 4 -8.25 C 4.363281 -9.039062 4.816406 -9.613281 5.359375 -9.96875 C 5.910156 -10.320312 6.5625 -10.5 7.3125 -10.5 C 8.40625 -10.5 9.242188 -10.160156 9.828125 -9.484375 C 10.410156 -8.816406 10.703125 -7.832031 10.703125 -6.53125 L 10.703125 0 L 8.046875 0 L 8.046875 -5.78125 C 8.046875 -7.582031 7.429688 -8.484375 6.203125 -8.484375 C 5.554688 -8.484375 5.035156 -8.207031 4.640625 -7.65625 C 4.242188 -7.101562 4.046875 -6.390625 4.046875 -5.515625 L 4.046875 0 L 1.359375 0 L 1.359375 -14.140625 L 4.046875 -14.140625 L 4.046875 -10.28125 C 4.046875 -9.59375 4.019531 -8.914062 3.96875 -8.25 Z M 4 -8.25 "/></g></g></g><g fill="#282626" fill-opacity="1"><g transform="translate(53.256259, 82.850854)"><g><path d="M 3.75 0.1875 C 2.75 0.1875 1.96875 -0.0820312 1.40625 -0.625 C 0.851562 -1.164062 0.578125 -1.929688 0.578125 -2.921875 C 0.578125 -3.984375 0.921875 -4.789062 1.609375 -5.34375 C 2.304688 -5.90625 3.316406 -6.195312 4.640625 -6.21875 L 6.859375 -6.25 L 6.859375 -6.78125 C 6.859375 -7.445312 6.738281 -7.941406 6.5 -8.265625 C 6.269531 -8.597656 5.890625 -8.765625 5.359375 -8.765625 C 4.859375 -8.765625 4.492188 -8.648438 4.265625 -8.421875 C 4.035156 -8.203125 3.890625 -7.832031 3.828125 -7.3125 L 1.03125 -7.4375 C 1.207031 -8.445312 1.664062 -9.207031 2.40625 -9.71875 C 3.15625 -10.238281 4.175781 -10.5 5.46875 -10.5 C 6.769531 -10.5 7.769531 -10.175781 8.46875 -9.53125 C 9.175781 -8.894531 9.53125 -7.984375 9.53125 -6.796875 L 9.53125 -3.046875 C 9.53125 -2.472656 9.59375 -2.078125 9.71875 -1.859375 C 9.851562 -1.640625 10.078125 -1.53125 10.390625 -1.53125 C 10.585938 -1.53125 10.785156 -1.546875 10.984375 -1.578125 L 10.984375 -0.140625 C 10.816406 -0.0976562 10.671875 -0.0625 10.546875 -0.03125 C 10.421875 0 10.296875 0.0234375 10.171875 0.046875 C 10.046875 0.0664062 9.910156 0.0820312 9.765625 0.09375 C 9.617188 0.101562 9.453125 0.109375 9.265625 0.109375 C 8.585938 0.109375 8.085938 -0.0507812 7.765625 -0.375 C 7.453125 -0.707031 7.257812 -1.195312 7.1875 -1.84375 L 7.140625 -1.84375 C 6.390625 -0.488281 5.257812 0.1875 3.75 0.1875 Z M 6.859375 -4.78125 L 5.484375 -4.75 C 4.867188 -4.726562 4.429688 -4.660156 4.171875 -4.546875 C 3.910156 -4.441406 3.707031 -4.273438 3.5625 -4.046875 C 3.425781 -3.816406 3.359375 -3.507812 3.359375 -3.125 C 3.359375 -2.632812 3.472656 -2.269531 3.703125 -2.03125 C 3.929688 -1.789062 4.234375 -1.671875 4.609375 -1.671875 C 5.023438 -1.671875 5.40625 -1.785156 5.75 -2.015625 C 6.09375 -2.242188 6.363281 -2.5625 6.5625 -2.96875 C 6.757812 -3.375 6.859375 -3.800781 6.859375 -4.25 Z M 6.859375 -4.78125 "/></g></g></g><g fill="#282626" fill-opacity="1"><g transform="translate(64.111194, 82.850854)"><g><path d="M 7.4375 0 L 7.4375 -5.78125 C 7.4375 -7.59375 6.914062 -8.5 5.875 -8.5 C 5.332031 -8.5 4.890625 -8.222656 4.546875 -7.671875 C 4.210938 -7.117188 4.046875 -6.40625 4.046875 -5.53125 L 4.046875 0 L 1.359375 0 L 1.359375 -8 C 1.359375 -8.550781 1.347656 -9.003906 1.328125 -9.359375 C 1.316406 -9.710938 1.300781 -10.03125 1.28125 -10.3125 L 3.84375 -10.3125 C 3.863281 -10.1875 3.890625 -9.863281 3.921875 -9.34375 C 3.953125 -8.820312 3.96875 -8.460938 3.96875 -8.265625 L 4 -8.265625 C 4.332031 -9.046875 4.742188 -9.613281 5.234375 -9.96875 C 5.722656 -10.332031 6.3125 -10.515625 7 -10.515625 C 8.570312 -10.515625 9.53125 -9.765625 9.875 -8.265625 L 9.921875 -8.265625 C 10.273438 -9.066406 10.695312 -9.640625 11.1875 -9.984375 C 11.675781 -10.335938 12.300781 -10.515625 13.0625 -10.515625 C 14.0625 -10.515625 14.820312 -10.171875 15.34375 -9.484375 C 15.875 -8.804688 16.140625 -7.828125 16.140625 -6.546875 L 16.140625 0 L 13.484375 0 L 13.484375 -5.78125 C 13.484375 -7.59375 12.960938 -8.5 11.921875 -8.5 C 11.398438 -8.5 10.972656 -8.242188 10.640625 -7.734375 C 10.304688 -7.234375 10.125 -6.539062 10.09375 -5.65625 L 10.09375 0 Z M 7.4375 0 "/></g></g></g><g fill="#282626" fill-opacity="1"><g transform="translate(81.465747, 82.850854)"><g><path d="M 1.359375 0 L 1.359375 -7.890625 C 1.359375 -8.453125 1.347656 -8.921875 1.328125 -9.296875 C 1.316406 -9.679688 1.300781 -10.019531 1.28125 -10.3125 L 3.84375 -10.3125 C 3.863281 -10.195312 3.890625 -9.847656 3.921875 -9.265625 C 3.953125 -8.679688 3.96875 -8.296875 3.96875 -8.109375 L 4 -8.109375 C 4.257812 -8.835938 4.488281 -9.347656 4.6875 -9.640625 C 4.894531 -9.929688 5.140625 -10.148438 5.421875 -10.296875 C 5.703125 -10.441406 6.050781 -10.515625 6.46875 -10.515625 C 6.8125 -10.515625 7.085938 -10.46875 7.296875 -10.375 L 7.296875 -8.125 C 6.867188 -8.21875 6.488281 -8.265625 6.15625 -8.265625 C 5.488281 -8.265625 4.96875 -7.992188 4.59375 -7.453125 C 4.226562 -6.921875 4.046875 -6.125 4.046875 -5.0625 L 4.046875 0 Z M 1.359375 0 "/></g></g></g><g fill="#282626" fill-opacity="1"><g transform="translate(89.061342, 82.850854)"><g><path d="M 5.578125 0.1875 C 4.035156 0.1875 2.847656 -0.269531 2.015625 -1.1875 C 1.179688 -2.101562 0.765625 -3.441406 0.765625 -5.203125 C 0.765625 -6.898438 1.1875 -8.207031 2.03125 -9.125 C 2.875 -10.039062 4.070312 -10.5 5.625 -10.5 C 7.101562 -10.5 8.234375 -10.007812 9.015625 -9.03125 C 9.796875 -8.050781 10.1875 -6.613281 10.1875 -4.71875 L 10.1875 -4.640625 L 3.578125 -4.640625 C 3.578125 -3.640625 3.757812 -2.878906 4.125 -2.359375 C 4.5 -1.847656 5.03125 -1.59375 5.71875 -1.59375 C 6.664062 -1.59375 7.265625 -2.003906 7.515625 -2.828125 L 10.03125 -2.609375 C 9.300781 -0.742188 7.816406 0.1875 5.578125 0.1875 Z M 5.578125 -8.8125 C 4.953125 -8.8125 4.46875 -8.59375 4.125 -8.15625 C 3.789062 -7.71875 3.613281 -7.101562 3.59375 -6.3125 L 7.59375 -6.3125 C 7.539062 -7.144531 7.335938 -7.769531 6.984375 -8.1875 C 6.640625 -8.601562 6.171875 -8.8125 5.578125 -8.8125 Z M 5.578125 -8.8125 "/></g></g></g><g fill="#282626" fill-opacity="1"><g transform="translate(99.916277, 82.850854)"><g><path d="M 1.359375 0 L 1.359375 -14.140625 L 4.046875 -14.140625 L 4.046875 0 Z M 1.359375 0 "/></g></g></g><g fill="#282626" fill-opacity="1"><g transform="translate(105.338979, 82.850854)"><g><path d="M 1.359375 -12.171875 L 1.359375 -14.140625 L 4.046875 -14.140625 L 4.046875 -12.171875 Z M 1.359375 0 L 1.359375 -10.3125 L 4.046875 -10.3125 L 4.046875 0 Z M 1.359375 0 "/></g></g></g><g fill="#282626" fill-opacity="1"><g transform="translate(110.761681, 82.850854)"><g><path d="M 3.890625 -10.3125 L 3.890625 -4.53125 C 3.890625 -2.71875 4.5 -1.8125 5.71875 -1.8125 C 6.363281 -1.8125 6.882812 -2.085938 7.28125 -2.640625 C 7.675781 -3.203125 7.875 -3.914062 7.875 -4.78125 L 7.875 -10.3125 L 10.5625 -10.3125 L 10.5625 -2.3125 C 10.5625 -1.425781 10.585938 -0.65625 10.640625 0 L 8.078125 0 C 8.003906 -0.914062 7.96875 -1.597656 7.96875 -2.046875 L 7.921875 -2.046875 C 7.566406 -1.265625 7.113281 -0.695312 6.5625 -0.34375 C 6.007812 0.0078125 5.359375 0.1875 4.609375 0.1875 C 3.515625 0.1875 2.671875 -0.144531 2.078125 -0.8125 C 1.492188 -1.476562 1.203125 -2.460938 1.203125 -3.765625 L 1.203125 -10.3125 Z M 3.890625 -10.3125 "/></g></g></g><g fill="#282626" fill-opacity="1"><g transform="translate(122.684002, 82.850854)"><g><path d="M 10.046875 -3.015625 C 10.046875 -2.015625 9.640625 -1.226562 8.828125 -0.65625 C 8.015625 -0.09375 6.882812 0.1875 5.4375 0.1875 C 4.019531 0.1875 2.9375 -0.0351562 2.1875 -0.484375 C 1.4375 -0.929688 0.9375 -1.628906 0.6875 -2.578125 L 3.046875 -2.921875 C 3.171875 -2.429688 3.394531 -2.082031 3.71875 -1.875 C 4.050781 -1.675781 4.625 -1.578125 5.4375 -1.578125 C 6.1875 -1.578125 6.734375 -1.671875 7.078125 -1.859375 C 7.421875 -2.054688 7.59375 -2.359375 7.59375 -2.765625 C 7.59375 -3.097656 7.453125 -3.359375 7.171875 -3.546875 C 6.898438 -3.742188 6.4375 -3.910156 5.78125 -4.046875 C 4.257812 -4.335938 3.234375 -4.613281 2.703125 -4.875 C 2.179688 -5.132812 1.78125 -5.46875 1.5 -5.875 C 1.226562 -6.28125 1.09375 -6.785156 1.09375 -7.390625 C 1.09375 -8.367188 1.472656 -9.132812 2.234375 -9.6875 C 2.992188 -10.238281 4.066406 -10.515625 5.453125 -10.515625 C 6.679688 -10.515625 7.664062 -10.273438 8.40625 -9.796875 C 9.15625 -9.316406 9.625 -8.628906 9.8125 -7.734375 L 7.4375 -7.484375 C 7.363281 -7.898438 7.175781 -8.210938 6.875 -8.421875 C 6.582031 -8.628906 6.109375 -8.734375 5.453125 -8.734375 C 4.816406 -8.734375 4.335938 -8.648438 4.015625 -8.484375 C 3.703125 -8.328125 3.546875 -8.054688 3.546875 -7.671875 C 3.546875 -7.367188 3.664062 -7.128906 3.90625 -6.953125 C 4.15625 -6.785156 4.570312 -6.644531 5.15625 -6.53125 C 5.957031 -6.363281 6.671875 -6.191406 7.296875 -6.015625 C 7.929688 -5.835938 8.4375 -5.628906 8.8125 -5.390625 C 9.1875 -5.148438 9.484375 -4.835938 9.703125 -4.453125 C 9.929688 -4.078125 10.046875 -3.597656 10.046875 -3.015625 Z M 10.046875 -3.015625 "/></g></g></g><g clip-path="url(#f002021392)"><path fill="#1f1d1d" d="M 40.992188 63.640625 L 134.378906 63.640625 L 134.378906 77.648438 L 40.992188 77.648438 Z M 40.992188 63.640625 " fill-opacity="1" fill-rule="nonzero"/></g><g fill="#282626" fill-opacity="1"><g transform="translate(41.333939, 74.386626)"><g><path d="M 4 -8.25 C 4.363281 -9.039062 4.816406 -9.613281 5.359375 -9.96875 C 5.910156 -10.320312 6.5625 -10.5 7.3125 -10.5 C 8.40625 -10.5 9.242188 -10.160156 9.828125 -9.484375 C 10.410156 -8.816406 10.703125 -7.832031 10.703125 -6.53125 L 10.703125 0 L 8.046875 0 L 8.046875 -5.78125 C 8.046875 -7.582031 7.429688 -8.484375 6.203125 -8.484375 C 5.554688 -8.484375 5.035156 -8.207031 4.640625 -7.65625 C 4.242188 -7.101562 4.046875 -6.390625 4.046875 -5.515625 L 4.046875 0 L 1.359375 0 L 1.359375 -14.140625 L 4.046875 -14.140625 L 4.046875 -10.28125 C 4.046875 -9.59375 4.019531 -8.914062 3.96875 -8.25 Z M 4 -8.25 "/></g></g></g><g fill="#282626" fill-opacity="1"><g transform="translate(53.256259, 74.386626)"><g><path d="M 3.75 0.1875 C 2.75 0.1875 1.96875 -0.0820312 1.40625 -0.625 C 0.851562 -1.164062 0.578125 -1.929688 0.578125 -2.921875 C 0.578125 -3.984375 0.921875 -4.789062 1.609375 -5.34375 C 2.304688 -5.90625 3.316406 -6.195312 4.640625 -6.21875 L 6.859375 -6.25 L 6.859375 -6.78125 C 6.859375 -7.445312 6.738281 -7.941406 6.5 -8.265625 C 6.269531 -8.597656 5.890625 -8.765625 5.359375 -8.765625 C 4.859375 -8.765625 4.492188 -8.648438 4.265625 -8.421875 C 4.035156 -8.203125 3.890625 -7.832031 3.828125 -7.3125 L 1.03125 -7.4375 C 1.207031 -8.445312 1.664062 -9.207031 2.40625 -9.71875 C 3.15625 -10.238281 4.175781 -10.5 5.46875 -10.5 C 6.769531 -10.5 7.769531 -10.175781 8.46875 -9.53125 C 9.175781 -8.894531 9.53125 -7.984375 9.53125 -6.796875 L 9.53125 -3.046875 C 9.53125 -2.472656 9.59375 -2.078125 9.71875 -1.859375 C 9.851562 -1.640625 10.078125 -1.53125 10.390625 -1.53125 C 10.585938 -1.53125 10.785156 -1.546875 10.984375 -1.578125 L 10.984375 -0.140625 C 10.816406 -0.0976562 10.671875 -0.0625 10.546875 -0.03125 C 10.421875 0 10.296875 0.0234375 10.171875 0.046875 C 10.046875 0.0664062 9.910156 0.0820312 9.765625 0.09375 C 9.617188 0.101562 9.453125 0.109375 9.265625 0.109375 C 8.585938 0.109375 8.085938 -0.0507812 7.765625 -0.375 C 7.453125 -0.707031 7.257812 -1.195312 7.1875 -1.84375 L 7.140625 -1.84375 C 6.390625 -0.488281 5.257812 0.1875 3.75 0.1875 Z M 6.859375 -4.78125 L 5.484375 -4.75 C 4.867188 -4.726562 4.429688 -4.660156 4.171875 -4.546875 C 3.910156 -4.441406 3.707031 -4.273438 3.5625 -4.046875 C 3.425781 -3.816406 3.359375 -3.507812 3.359375 -3.125 C 3.359375 -2.632812 3.472656 -2.269531 3.703125 -2.03125 C 3.929688 -1.789062 4.234375 -1.671875 4.609375 -1.671875 C 5.023438 -1.671875 5.40625 -1.785156 5.75 -2.015625 C 6.09375 -2.242188 6.363281 -2.5625 6.5625 -2.96875 C 6.757812 -3.375 6.859375 -3.800781 6.859375 -4.25 Z M 6.859375 -4.78125 "/></g></g></g><g fill="#282626" fill-opacity="1"><g transform="translate(64.111194, 74.386626)"><g><path d="M 7.4375 0 L 7.4375 -5.78125 C 7.4375 -7.59375 6.914062 -8.5 5.875 -8.5 C 5.332031 -8.5 4.890625 -8.222656 4.546875 -7.671875 C 4.210938 -7.117188 4.046875 -6.40625 4.046875 -5.53125 L 4.046875 0 L 1.359375 0 L 1.359375 -8 C 1.359375 -8.550781 1.347656 -9.003906 1.328125 -9.359375 C 1.316406 -9.710938 1.300781 -10.03125 1.28125 -10.3125 L 3.84375 -10.3125 C 3.863281 -10.1875 3.890625 -9.863281 3.921875 -9.34375 C 3.953125 -8.820312 3.96875 -8.460938 3.96875 -8.265625 L 4 -8.265625 C 4.332031 -9.046875 4.742188 -9.613281 5.234375 -9.96875 C 5.722656 -10.332031 6.3125 -10.515625 7 -10.515625 C 8.570312 -10.515625 9.53125 -9.765625 9.875 -8.265625 L 9.921875 -8.265625 C 10.273438 -9.066406 10.695312 -9.640625 11.1875 -9.984375 C 11.675781 -10.335938 12.300781 -10.515625 13.0625 -10.515625 C 14.0625 -10.515625 14.820312 -10.171875 15.34375 -9.484375 C 15.875 -8.804688 16.140625 -7.828125 16.140625 -6.546875 L 16.140625 0 L 13.484375 0 L 13.484375 -5.78125 C 13.484375 -7.59375 12.960938 -8.5 11.921875 -8.5 C 11.398438 -8.5 10.972656 -8.242188 10.640625 -7.734375 C 10.304688 -7.234375 10.125 -6.539062 10.09375 -5.65625 L 10.09375 0 Z M 7.4375 0 "/></g></g></g><g fill="#282626" fill-opacity="1"><g transform="translate(81.465747, 74.386626)"><g><path d="M 1.359375 0 L 1.359375 -7.890625 C 1.359375 -8.453125 1.347656 -8.921875 1.328125 -9.296875 C 1.316406 -9.679688 1.300781 -10.019531 1.28125 -10.3125 L 3.84375 -10.3125 C 3.863281 -10.195312 3.890625 -9.847656 3.921875 -9.265625 C 3.953125 -8.679688 3.96875 -8.296875 3.96875 -8.109375 L 4 -8.109375 C 4.257812 -8.835938 4.488281 -9.347656 4.6875 -9.640625 C 4.894531 -9.929688 5.140625 -10.148438 5.421875 -10.296875 C 5.703125 -10.441406 6.050781 -10.515625 6.46875 -10.515625 C 6.8125 -10.515625 7.085938 -10.46875 7.296875 -10.375 L 7.296875 -8.125 C 6.867188 -8.21875 6.488281 -8.265625 6.15625 -8.265625 C 5.488281 -8.265625 4.96875 -7.992188 4.59375 -7.453125 C 4.226562 -6.921875 4.046875 -6.125 4.046875 -5.0625 L 4.046875 0 Z M 1.359375 0 "/></g></g></g><g fill="#282626" fill-opacity="1"><g transform="translate(89.061342, 74.386626)"><g><path d="M 5.578125 0.1875 C 4.035156 0.1875 2.847656 -0.269531 2.015625 -1.1875 C 1.179688 -2.101562 0.765625 -3.441406 0.765625 -5.203125 C 0.765625 -6.898438 1.1875 -8.207031 2.03125 -9.125 C 2.875 -10.039062 4.070312 -10.5 5.625 -10.5 C 7.101562 -10.5 8.234375 -10.007812 9.015625 -9.03125 C 9.796875 -8.050781 10.1875 -6.613281 10.1875 -4.71875 L 10.1875 -4.640625 L 3.578125 -4.640625 C 3.578125 -3.640625 3.757812 -2.878906 4.125 -2.359375 C 4.5 -1.847656 5.03125 -1.59375 5.71875 -1.59375 C 6.664062 -1.59375 7.265625 -2.003906 7.515625 -2.828125 L 10.03125 -2.609375 C 9.300781 -0.742188 7.816406 0.1875 5.578125 0.1875 Z M 5.578125 -8.8125 C 4.953125 -8.8125 4.46875 -8.59375 4.125 -8.15625 C 3.789062 -7.71875 3.613281 -7.101562 3.59375 -6.3125 L 7.59375 -6.3125 C 7.539062 -7.144531 7.335938 -7.769531 6.984375 -8.1875 C 6.640625 -8.601562 6.171875 -8.8125 5.578125 -8.8125 Z M 5.578125 -8.8125 "/></g></g></g><g fill="#282626" fill-opacity="1"><g transform="translate(99.916277, 74.386626)"><g><path d="M 1.359375 0 L 1.359375 -14.140625 L 4.046875 -14.140625 L 4.046875 0 Z M 1.359375 0 "/></g></g></g><g fill="#282626" fill-opacity="1"><g transform="translate(105.338979, 74.386626)"><g><path d="M 1.359375 -12.171875 L 1.359375 -14.140625 L 4.046875 -14.140625 L 4.046875 -12.171875 Z M 1.359375 0 L 1.359375 -10.3125 L 4.046875 -10.3125 L 4.046875 0 Z M 1.359375 0 "/></g></g></g><g fill="#282626" fill-opacity="1"><g transform="translate(110.761681, 74.386626)"><g><path d="M 3.890625 -10.3125 L 3.890625 -4.53125 C 3.890625 -2.71875 4.5 -1.8125 5.71875 -1.8125 C 6.363281 -1.8125 6.882812 -2.085938 7.28125 -2.640625 C 7.675781 -3.203125 7.875 -3.914062 7.875 -4.78125 L 7.875 -10.3125 L 10.5625 -10.3125 L 10.5625 -2.3125 C 10.5625 -1.425781 10.585938 -0.65625 10.640625 0 L 8.078125 0 C 8.003906 -0.914062 7.96875 -1.597656 7.96875 -2.046875 L 7.921875 -2.046875 C 7.566406 -1.265625 7.113281 -0.695312 6.5625 -0.34375 C 6.007812 0.0078125 5.359375 0.1875 4.609375 0.1875 C 3.515625 0.1875 2.671875 -0.144531 2.078125 -0.8125 C 1.492188 -1.476562 1.203125 -2.460938 1.203125 -3.765625 L 1.203125 -10.3125 Z M 3.890625 -10.3125 "/></g></g></g><g fill="#282626" fill-opacity="1"><g transform="translate(122.684002, 74.386626)"><g><path d="M 10.046875 -3.015625 C 10.046875 -2.015625 9.640625 -1.226562 8.828125 -0.65625 C 8.015625 -0.09375 6.882812 0.1875 5.4375 0.1875 C 4.019531 0.1875 2.9375 -0.0351562 2.1875 -0.484375 C 1.4375 -0.929688 0.9375 -1.628906 0.6875 -2.578125 L 3.046875 -2.921875 C 3.171875 -2.429688 3.394531 -2.082031 3.71875 -1.875 C 4.050781 -1.675781 4.625 -1.578125 5.4375 -1.578125 C 6.1875 -1.578125 6.734375 -1.671875 7.078125 -1.859375 C 7.421875 -2.054688 7.59375 -2.359375 7.59375 -2.765625 C 7.59375 -3.097656 7.453125 -3.359375 7.171875 -3.546875 C 6.898438 -3.742188 6.4375 -3.910156 5.78125 -4.046875 C 4.257812 -4.335938 3.234375 -4.613281 2.703125 -4.875 C 2.179688 -5.132812 1.78125 -5.46875 1.5 -5.875 C 1.226562 -6.28125 1.09375 -6.785156 1.09375 -7.390625 C 1.09375 -8.367188 1.472656 -9.132812 2.234375 -9.6875 C 2.992188 -10.238281 4.066406 -10.515625 5.453125 -10.515625 C 6.679688 -10.515625 7.664062 -10.273438 8.40625 -9.796875 C 9.15625 -9.316406 9.625 -8.628906 9.8125 -7.734375 L 7.4375 -7.484375 C 7.363281 -7.898438 7.175781 -8.210938 6.875 -8.421875 C 6.582031 -8.628906 6.109375 -8.734375 5.453125 -8.734375 C 4.816406 -8.734375 4.335938 -8.648438 4.015625 -8.484375 C 3.703125 -8.328125 3.546875 -8.054688 3.546875 -7.671875 C 3.546875 -7.367188 3.664062 -7.128906 3.90625 -6.953125 C 4.15625 -6.785156 4.570312 -6.644531 5.15625 -6.53125 C 5.957031 -6.363281 6.671875 -6.191406 7.296875 -6.015625 C 7.929688 -5.835938 8.4375 -5.628906 8.8125 -5.390625 C 9.1875 -5.148438 9.484375 -4.835938 9.703125 -4.453125 C 9.929688 -4.078125 10.046875 -3.597656 10.046875 -3.015625 Z M 10.046875 -3.015625 "/></g></g></g><g clip-path="url(#ffdb224596)"><path fill="#1f1d1d" d="M 40.992188 53.421875 L 134.378906 53.421875 L 134.378906 67.429688 L 40.992188 67.429688 Z M 40.992188 53.421875 " fill-opacity="1" fill-rule="nonzero"/></g><g fill="#282626" fill-opacity="1"><g transform="translate(41.333939, 64.523003)"><g><path d="M 4 -8.25 C 4.363281 -9.039062 4.816406 -9.613281 5.359375 -9.96875 C 5.910156 -10.320312 6.5625 -10.5 7.3125 -10.5 C 8.40625 -10.5 9.242188 -10.160156 9.828125 -9.484375 C 10.410156 -8.816406 10.703125 -7.832031 10.703125 -6.53125 L 10.703125 0 L 8.046875 0 L 8.046875 -5.78125 C 8.046875 -7.582031 7.429688 -8.484375 6.203125 -8.484375 C 5.554688 -8.484375 5.035156 -8.207031 4.640625 -7.65625 C 4.242188 -7.101562 4.046875 -6.390625 4.046875 -5.515625 L 4.046875 0 L 1.359375 0 L 1.359375 -14.140625 L 4.046875 -14.140625 L 4.046875 -10.28125 C 4.046875 -9.59375 4.019531 -8.914062 3.96875 -8.25 Z M 4 -8.25 "/></g></g></g><g fill="#282626" fill-opacity="1"><g transform="translate(53.256259, 64.523003)"><g><path d="M 3.75 0.1875 C 2.75 0.1875 1.96875 -0.0820312 1.40625 -0.625 C 0.851562 -1.164062 0.578125 -1.929688 0.578125 -2.921875 C 0.578125 -3.984375 0.921875 -4.789062 1.609375 -5.34375 C 2.304688 -5.90625 3.316406 -6.195312 4.640625 -6.21875 L 6.859375 -6.25 L 6.859375 -6.78125 C 6.859375 -7.445312 6.738281 -7.941406 6.5 -8.265625 C 6.269531 -8.597656 5.890625 -8.765625 5.359375 -8.765625 C 4.859375 -8.765625 4.492188 -8.648438 4.265625 -8.421875 C 4.035156 -8.203125 3.890625 -7.832031 3.828125 -7.3125 L 1.03125 -7.4375 C 1.207031 -8.445312 1.664062 -9.207031 2.40625 -9.71875 C 3.15625 -10.238281 4.175781 -10.5 5.46875 -10.5 C 6.769531 -10.5 7.769531 -10.175781 8.46875 -9.53125 C 9.175781 -8.894531 9.53125 -7.984375 9.53125 -6.796875 L 9.53125 -3.046875 C 9.53125 -2.472656 9.59375 -2.078125 9.71875 -1.859375 C 9.851562 -1.640625 10.078125 -1.53125 10.390625 -1.53125 C 10.585938 -1.53125 10.785156 -1.546875 10.984375 -1.578125 L 10.984375 -0.140625 C 10.816406 -0.0976562 10.671875 -0.0625 10.546875 -0.03125 C 10.421875 0 10.296875 0.0234375 10.171875 0.046875 C 10.046875 0.0664062 9.910156 0.0820312 9.765625 0.09375 C 9.617188 0.101562 9.453125 0.109375 9.265625 0.109375 C 8.585938 0.109375 8.085938 -0.0507812 7.765625 -0.375 C 7.453125 -0.707031 7.257812 -1.195312 7.1875 -1.84375 L 7.140625 -1.84375 C 6.390625 -0.488281 5.257812 0.1875 3.75 0.1875 Z M 6.859375 -4.78125 L 5.484375 -4.75 C 4.867188 -4.726562 4.429688 -4.660156 4.171875 -4.546875 C 3.910156 -4.441406 3.707031 -4.273438 3.5625 -4.046875 C 3.425781 -3.816406 3.359375 -3.507812 3.359375 -3.125 C 3.359375 -2.632812 3.472656 -2.269531 3.703125 -2.03125 C 3.929688 -1.789062 4.234375 -1.671875 4.609375 -1.671875 C 5.023438 -1.671875 5.40625 -1.785156 5.75 -2.015625 C 6.09375 -2.242188 6.363281 -2.5625 6.5625 -2.96875 C 6.757812 -3.375 6.859375 -3.800781 6.859375 -4.25 Z M 6.859375 -4.78125 "/></g></g></g><g fill="#282626" fill-opacity="1"><g transform="translate(64.111194, 64.523003)"><g><path d="M 7.4375 0 L 7.4375 -5.78125 C 7.4375 -7.59375 6.914062 -8.5 5.875 -8.5 C 5.332031 -8.5 4.890625 -8.222656 4.546875 -7.671875 C 4.210938 -7.117188 4.046875 -6.40625 4.046875 -5.53125 L 4.046875 0 L 1.359375 0 L 1.359375 -8 C 1.359375 -8.550781 1.347656 -9.003906 1.328125 -9.359375 C 1.316406 -9.710938 1.300781 -10.03125 1.28125 -10.3125 L 3.84375 -10.3125 C 3.863281 -10.1875 3.890625 -9.863281 3.921875 -9.34375 C 3.953125 -8.820312 3.96875 -8.460938 3.96875 -8.265625 L 4 -8.265625 C 4.332031 -9.046875 4.742188 -9.613281 5.234375 -9.96875 C 5.722656 -10.332031 6.3125 -10.515625 7 -10.515625 C 8.570312 -10.515625 9.53125 -9.765625 9.875 -8.265625 L 9.921875 -8.265625 C 10.273438 -9.066406 10.695312 -9.640625 11.1875 -9.984375 C 11.675781 -10.335938 12.300781 -10.515625 13.0625 -10.515625 C 14.0625 -10.515625 14.820312 -10.171875 15.34375 -9.484375 C 15.875 -8.804688 16.140625 -7.828125 16.140625 -6.546875 L 16.140625 0 L 13.484375 0 L 13.484375 -5.78125 C 13.484375 -7.59375 12.960938 -8.5 11.921875 -8.5 C 11.398438 -8.5 10.972656 -8.242188 10.640625 -7.734375 C 10.304688 -7.234375 10.125 -6.539062 10.09375 -5.65625 L 10.09375 0 Z M 7.4375 0 "/></g></g></g><g fill="#282626" fill-opacity="1"><g transform="translate(81.465747, 64.523003)"><g><path d="M 1.359375 0 L 1.359375 -7.890625 C 1.359375 -8.453125 1.347656 -8.921875 1.328125 -9.296875 C 1.316406 -9.679688 1.300781 -10.019531 1.28125 -10.3125 L 3.84375 -10.3125 C 3.863281 -10.195312 3.890625 -9.847656 3.921875 -9.265625 C 3.953125 -8.679688 3.96875 -8.296875 3.96875 -8.109375 L 4 -8.109375 C 4.257812 -8.835938 4.488281 -9.347656 4.6875 -9.640625 C 4.894531 -9.929688 5.140625 -10.148438 5.421875 -10.296875 C 5.703125 -10.441406 6.050781 -10.515625 6.46875 -10.515625 C 6.8125 -10.515625 7.085938 -10.46875 7.296875 -10.375 L 7.296875 -8.125 C 6.867188 -8.21875 6.488281 -8.265625 6.15625 -8.265625 C 5.488281 -8.265625 4.96875 -7.992188 4.59375 -7.453125 C 4.226562 -6.921875 4.046875 -6.125 4.046875 -5.0625 L 4.046875 0 Z M 1.359375 0 "/></g></g></g><g fill="#282626" fill-opacity="1"><g transform="translate(89.061342, 64.523003)"><g><path d="M 5.578125 0.1875 C 4.035156 0.1875 2.847656 -0.269531 2.015625 -1.1875 C 1.179688 -2.101562 0.765625 -3.441406 0.765625 -5.203125 C 0.765625 -6.898438 1.1875 -8.207031 2.03125 -9.125 C 2.875 -10.039062 4.070312 -10.5 5.625 -10.5 C 7.101562 -10.5 8.234375 -10.007812 9.015625 -9.03125 C 9.796875 -8.050781 10.1875 -6.613281 10.1875 -4.71875 L 10.1875 -4.640625 L 3.578125 -4.640625 C 3.578125 -3.640625 3.757812 -2.878906 4.125 -2.359375 C 4.5 -1.847656 5.03125 -1.59375 5.71875 -1.59375 C 6.664062 -1.59375 7.265625 -2.003906 7.515625 -2.828125 L 10.03125 -2.609375 C 9.300781 -0.742188 7.816406 0.1875 5.578125 0.1875 Z M 5.578125 -8.8125 C 4.953125 -8.8125 4.46875 -8.59375 4.125 -8.15625 C 3.789062 -7.71875 3.613281 -7.101562 3.59375 -6.3125 L 7.59375 -6.3125 C 7.539062 -7.144531 7.335938 -7.769531 6.984375 -8.1875 C 6.640625 -8.601562 6.171875 -8.8125 5.578125 -8.8125 Z M 5.578125 -8.8125 "/></g></g></g><g fill="#282626" fill-opacity="1"><g transform="translate(99.916277, 64.523003)"><g><path d="M 1.359375 0 L 1.359375 -14.140625 L 4.046875 -14.140625 L 4.046875 0 Z M 1.359375 0 "/></g></g></g><g fill="#282626" fill-opacity="1"><g transform="translate(105.338979, 64.523003)"><g><path d="M 1.359375 -12.171875 L 1.359375 -14.140625 L 4.046875 -14.140625 L 4.046875 -12.171875 Z M 1.359375 0 L 1.359375 -10.3125 L 4.046875 -10.3125 L 4.046875 0 Z M 1.359375 0 "/></g></g></g><g fill="#282626" fill-opacity="1"><g transform="translate(110.761681, 64.523003)"><g><path d="M 3.890625 -10.3125 L 3.890625 -4.53125 C 3.890625 -2.71875 4.5 -1.8125 5.71875 -1.8125 C 6.363281 -1.8125 6.882812 -2.085938 7.28125 -2.640625 C 7.675781 -3.203125 7.875 -3.914062 7.875 -4.78125 L 7.875 -10.3125 L 10.5625 -10.3125 L 10.5625 -2.3125 C 10.5625 -1.425781 10.585938 -0.65625 10.640625 0 L 8.078125 0 C 8.003906 -0.914062 7.96875 -1.597656 7.96875 -2.046875 L 7.921875 -2.046875 C 7.566406 -1.265625 7.113281 -0.695312 6.5625 -0.34375 C 6.007812 0.0078125 5.359375 0.1875 4.609375 0.1875 C 3.515625 0.1875 2.671875 -0.144531 2.078125 -0.8125 C 1.492188 -1.476562 1.203125 -2.460938 1.203125 -3.765625 L 1.203125 -10.3125 Z M 3.890625 -10.3125 "/></g></g></g><g fill="#282626" fill-opacity="1"><g transform="translate(122.684002, 64.523003)"><g><path d="M 10.046875 -3.015625 C 10.046875 -2.015625 9.640625 -1.226562 8.828125 -0.65625 C 8.015625 -0.09375 6.882812 0.1875 5.4375 0.1875 C 4.019531 0.1875 2.9375 -0.0351562 2.1875 -0.484375 C 1.4375 -0.929688 0.9375 -1.628906 0.6875 -2.578125 L 3.046875 -2.921875 C 3.171875 -2.429688 3.394531 -2.082031 3.71875 -1.875 C 4.050781 -1.675781 4.625 -1.578125 5.4375 -1.578125 C 6.1875 -1.578125 6.734375 -1.671875 7.078125 -1.859375 C 7.421875 -2.054688 7.59375 -2.359375 7.59375 -2.765625 C 7.59375 -3.097656 7.453125 -3.359375 7.171875 -3.546875 C 6.898438 -3.742188 6.4375 -3.910156 5.78125 -4.046875 C 4.257812 -4.335938 3.234375 -4.613281 2.703125 -4.875 C 2.179688 -5.132812 1.78125 -5.46875 1.5 -5.875 C 1.226562 -6.28125 1.09375 -6.785156 1.09375 -7.390625 C 1.09375 -8.367188 1.472656 -9.132812 2.234375 -9.6875 C 2.992188 -10.238281 4.066406 -10.515625 5.453125 -10.515625 C 6.679688 -10.515625 7.664062 -10.273438 8.40625 -9.796875 C 9.15625 -9.316406 9.625 -8.628906 9.8125 -7.734375 L 7.4375 -7.484375 C 7.363281 -7.898438 7.175781 -8.210938 6.875 -8.421875 C 6.582031 -8.628906 6.109375 -8.734375 5.453125 -8.734375 C 4.816406 -8.734375 4.335938 -8.648438 4.015625 -8.484375 C 3.703125 -8.328125 3.546875 -8.054688 3.546875 -7.671875 C 3.546875 -7.367188 3.664062 -7.128906 3.90625 -6.953125 C 4.15625 -6.785156 4.570312 -6.644531 5.15625 -6.53125 C 5.957031 -6.363281 6.671875 -6.191406 7.296875 -6.015625 C 7.929688 -5.835938 8.4375 -5.628906 8.8125 -5.390625 C 9.1875 -5.148438 9.484375 -4.835938 9.703125 -4.453125 C 9.929688 -4.078125 10.046875 -3.597656 10.046875 -3.015625 Z M 10.046875 -3.015625 "/></g></g></g><g clip-path="url(#2e2d7105d4)"><path fill="#1f1d1d" d="M 40.992188 41.496094 L 134.378906 41.496094 L 134.378906 55.503906 L 40.992188 55.503906 Z M 40.992188 41.496094 " fill-opacity="1" fill-rule="nonzero"/></g><g fill="#282626" fill-opacity="1"><g transform="translate(1.287686, 53.016777)"><g><path d="M 4.5 -8.5 L 4.5 0 L 1.84375 0 L 1.84375 -8.5 L 0.328125 -8.5 L 0.328125 -10.3125 L 1.84375 -10.3125 L 1.84375 -11.390625 C 1.84375 -12.316406 2.085938 -13.003906 2.578125 -13.453125 C 3.078125 -13.910156 3.832031 -14.140625 4.84375 -14.140625 C 5.34375 -14.140625 5.90625 -14.085938 6.53125 -13.984375 L 6.53125 -12.265625 C 6.269531 -12.316406 6.007812 -12.34375 5.75 -12.34375 C 5.289062 -12.34375 4.96875 -12.253906 4.78125 -12.078125 C 4.59375 -11.898438 4.5 -11.582031 4.5 -11.125 L 4.5 -10.3125 L 6.53125 -10.3125 L 6.53125 -8.5 Z M 4.5 -8.5 "/></g></g></g><g fill="#282626" fill-opacity="1"><g transform="translate(7.787304, 53.016777)"><g><path d="M 1.359375 -12.171875 L 1.359375 -14.140625 L 4.046875 -14.140625 L 4.046875 -12.171875 Z M 1.359375 0 L 1.359375 -10.3125 L 4.046875 -10.3125 L 4.046875 0 Z M 1.359375 0 "/></g></g></g><g fill="#282626" fill-opacity="1"><g transform="translate(13.210006, 53.016777)"><g><path d="M 1.359375 0 L 1.359375 -14.140625 L 4.046875 -14.140625 L 4.046875 0 Z M 1.359375 0 "/></g></g></g><g fill="#282626" fill-opacity="1"><g transform="translate(18.632708, 53.016777)"><g><path d="M 1.359375 -12.171875 L 1.359375 -14.140625 L 4.046875 -14.140625 L 4.046875 -12.171875 Z M 1.359375 0 L 1.359375 -10.3125 L 4.046875 -10.3125 L 4.046875 0 Z M 1.359375 0 "/></g></g></g><g fill="#282626" fill-opacity="1"><g transform="translate(24.055411, 53.016777)"><g><path d="M 11.125 -5.203125 C 11.125 -3.484375 10.773438 -2.15625 10.078125 -1.21875 C 9.390625 -0.28125 8.421875 0.1875 7.171875 0.1875 C 6.441406 0.1875 5.804688 0.03125 5.265625 -0.28125 C 4.734375 -0.59375 4.328125 -1.046875 4.046875 -1.640625 L 3.984375 -1.640625 C 4.023438 -1.453125 4.046875 -0.875 4.046875 0.09375 L 4.046875 4.046875 L 1.359375 4.046875 L 1.359375 -7.9375 C 1.359375 -8.90625 1.332031 -9.695312 1.28125 -10.3125 L 3.890625 -10.3125 C 3.921875 -10.195312 3.945312 -9.96875 3.96875 -9.625 C 3.988281 -9.289062 4 -8.960938 4 -8.640625 L 4.046875 -8.640625 C 4.648438 -9.898438 5.75 -10.53125 7.34375 -10.53125 C 8.539062 -10.53125 9.46875 -10.066406 10.125 -9.140625 C 10.789062 -8.210938 11.125 -6.898438 11.125 -5.203125 Z M 8.328125 -5.203125 C 8.328125 -7.515625 7.617188 -8.671875 6.203125 -8.671875 C 5.492188 -8.671875 4.945312 -8.359375 4.5625 -7.734375 C 4.1875 -7.109375 4 -6.238281 4 -5.125 C 4 -4.007812 4.1875 -3.148438 4.5625 -2.546875 C 4.945312 -1.941406 5.488281 -1.640625 6.1875 -1.640625 C 7.613281 -1.640625 8.328125 -2.828125 8.328125 -5.203125 Z M 8.328125 -5.203125 "/></g></g></g><g fill="#282626" fill-opacity="1"><g transform="translate(35.977731, 53.016777)"><g/></g></g><g fill="#282626" fill-opacity="1"><g transform="translate(41.400433, 53.016777)"><g><path d="M 4 -8.25 C 4.363281 -9.039062 4.816406 -9.613281 5.359375 -9.96875 C 5.910156 -10.320312 6.5625 -10.5 7.3125 -10.5 C 8.40625 -10.5 9.242188 -10.160156 9.828125 -9.484375 C 10.410156 -8.816406 10.703125 -7.832031 10.703125 -6.53125 L 10.703125 0 L 8.046875 0 L 8.046875 -5.78125 C 8.046875 -7.582031 7.429688 -8.484375 6.203125 -8.484375 C 5.554688 -8.484375 5.035156 -8.207031 4.640625 -7.65625 C 4.242188 -7.101562 4.046875 -6.390625 4.046875 -5.515625 L 4.046875 0 L 1.359375 0 L 1.359375 -14.140625 L 4.046875 -14.140625 L 4.046875 -10.28125 C 4.046875 -9.59375 4.019531 -8.914062 3.96875 -8.25 Z M 4 -8.25 "/></g></g></g><g fill="#282626" fill-opacity="1"><g transform="translate(53.322754, 53.016777)"><g><path d="M 3.75 0.1875 C 2.75 0.1875 1.96875 -0.0820312 1.40625 -0.625 C 0.851562 -1.164062 0.578125 -1.929688 0.578125 -2.921875 C 0.578125 -3.984375 0.921875 -4.789062 1.609375 -5.34375 C 2.304688 -5.90625 3.316406 -6.195312 4.640625 -6.21875 L 6.859375 -6.25 L 6.859375 -6.78125 C 6.859375 -7.445312 6.738281 -7.941406 6.5 -8.265625 C 6.269531 -8.597656 5.890625 -8.765625 5.359375 -8.765625 C 4.859375 -8.765625 4.492188 -8.648438 4.265625 -8.421875 C 4.035156 -8.203125 3.890625 -7.832031 3.828125 -7.3125 L 1.03125 -7.4375 C 1.207031 -8.445312 1.664062 -9.207031 2.40625 -9.71875 C 3.15625 -10.238281 4.175781 -10.5 5.46875 -10.5 C 6.769531 -10.5 7.769531 -10.175781 8.46875 -9.53125 C 9.175781 -8.894531 9.53125 -7.984375 9.53125 -6.796875 L 9.53125 -3.046875 C 9.53125 -2.472656 9.59375 -2.078125 9.71875 -1.859375 C 9.851562 -1.640625 10.078125 -1.53125 10.390625 -1.53125 C 10.585938 -1.53125 10.785156 -1.546875 10.984375 -1.578125 L 10.984375 -0.140625 C 10.816406 -0.0976562 10.671875 -0.0625 10.546875 -0.03125 C 10.421875 0 10.296875 0.0234375 10.171875 0.046875 C 10.046875 0.0664062 9.910156 0.0820312 9.765625 0.09375 C 9.617188 0.101562 9.453125 0.109375 9.265625 0.109375 C 8.585938 0.109375 8.085938 -0.0507812 7.765625 -0.375 C 7.453125 -0.707031 7.257812 -1.195312 7.1875 -1.84375 L 7.140625 -1.84375 C 6.390625 -0.488281 5.257812 0.1875 3.75 0.1875 Z M 6.859375 -4.78125 L 5.484375 -4.75 C 4.867188 -4.726562 4.429688 -4.660156 4.171875 -4.546875 C 3.910156 -4.441406 3.707031 -4.273438 3.5625 -4.046875 C 3.425781 -3.816406 3.359375 -3.507812 3.359375 -3.125 C 3.359375 -2.632812 3.472656 -2.269531 3.703125 -2.03125 C 3.929688 -1.789062 4.234375 -1.671875 4.609375 -1.671875 C 5.023438 -1.671875 5.40625 -1.785156 5.75 -2.015625 C 6.09375 -2.242188 6.363281 -2.5625 6.5625 -2.96875 C 6.757812 -3.375 6.859375 -3.800781 6.859375 -4.25 Z M 6.859375 -4.78125 "/></g></g></g><g fill="#282626" fill-opacity="1"><g transform="translate(64.177688, 53.016777)"><g><path d="M 7.4375 0 L 7.4375 -5.78125 C 7.4375 -7.59375 6.914062 -8.5 5.875 -8.5 C 5.332031 -8.5 4.890625 -8.222656 4.546875 -7.671875 C 4.210938 -7.117188 4.046875 -6.40625 4.046875 -5.53125 L 4.046875 0 L 1.359375 0 L 1.359375 -8 C 1.359375 -8.550781 1.347656 -9.003906 1.328125 -9.359375 C 1.316406 -9.710938 1.300781 -10.03125 1.28125 -10.3125 L 3.84375 -10.3125 C 3.863281 -10.1875 3.890625 -9.863281 3.921875 -9.34375 C 3.953125 -8.820312 3.96875 -8.460938 3.96875 -8.265625 L 4 -8.265625 C 4.332031 -9.046875 4.742188 -9.613281 5.234375 -9.96875 C 5.722656 -10.332031 6.3125 -10.515625 7 -10.515625 C 8.570312 -10.515625 9.53125 -9.765625 9.875 -8.265625 L 9.921875 -8.265625 C 10.273438 -9.066406 10.695312 -9.640625 11.1875 -9.984375 C 11.675781 -10.335938 12.300781 -10.515625 13.0625 -10.515625 C 14.0625 -10.515625 14.820312 -10.171875 15.34375 -9.484375 C 15.875 -8.804688 16.140625 -7.828125 16.140625 -6.546875 L 16.140625 0 L 13.484375 0 L 13.484375 -5.78125 C 13.484375 -7.59375 12.960938 -8.5 11.921875 -8.5 C 11.398438 -8.5 10.972656 -8.242188 10.640625 -7.734375 C 10.304688 -7.234375 10.125 -6.539062 10.09375 -5.65625 L 10.09375 0 Z M 7.4375 0 "/></g></g></g><g fill="#282626" fill-opacity="1"><g transform="translate(81.532241, 53.016777)"><g><path d="M 1.359375 0 L 1.359375 -7.890625 C 1.359375 -8.453125 1.347656 -8.921875 1.328125 -9.296875 C 1.316406 -9.679688 1.300781 -10.019531 1.28125 -10.3125 L 3.84375 -10.3125 C 3.863281 -10.195312 3.890625 -9.847656 3.921875 -9.265625 C 3.953125 -8.679688 3.96875 -8.296875 3.96875 -8.109375 L 4 -8.109375 C 4.257812 -8.835938 4.488281 -9.347656 4.6875 -9.640625 C 4.894531 -9.929688 5.140625 -10.148438 5.421875 -10.296875 C 5.703125 -10.441406 6.050781 -10.515625 6.46875 -10.515625 C 6.8125 -10.515625 7.085938 -10.46875 7.296875 -10.375 L 7.296875 -8.125 C 6.867188 -8.21875 6.488281 -8.265625 6.15625 -8.265625 C 5.488281 -8.265625 4.96875 -7.992188 4.59375 -7.453125 C 4.226562 -6.921875 4.046875 -6.125 4.046875 -5.0625 L 4.046875 0 Z M 1.359375 0 "/></g></g></g><g fill="#282626" fill-opacity="1"><g transform="translate(89.127837, 53.016777)"><g><path d="M 5.578125 0.1875 C 4.035156 0.1875 2.847656 -0.269531 2.015625 -1.1875 C 1.179688 -2.101562 0.765625 -3.441406 0.765625 -5.203125 C 0.765625 -6.898438 1.1875 -8.207031 2.03125 -9.125 C 2.875 -10.039062 4.070312 -10.5 5.625 -10.5 C 7.101562 -10.5 8.234375 -10.007812 9.015625 -9.03125 C 9.796875 -8.050781 10.1875 -6.613281 10.1875 -4.71875 L 10.1875 -4.640625 L 3.578125 -4.640625 C 3.578125 -3.640625 3.757812 -2.878906 4.125 -2.359375 C 4.5 -1.847656 5.03125 -1.59375 5.71875 -1.59375 C 6.664062 -1.59375 7.265625 -2.003906 7.515625 -2.828125 L 10.03125 -2.609375 C 9.300781 -0.742188 7.816406 0.1875 5.578125 0.1875 Z M 5.578125 -8.8125 C 4.953125 -8.8125 4.46875 -8.59375 4.125 -8.15625 C 3.789062 -7.71875 3.613281 -7.101562 3.59375 -6.3125 L 7.59375 -6.3125 C 7.539062 -7.144531 7.335938 -7.769531 6.984375 -8.1875 C 6.640625 -8.601562 6.171875 -8.8125 5.578125 -8.8125 Z M 5.578125 -8.8125 "/></g></g></g><g fill="#282626" fill-opacity="1"><g transform="translate(99.982771, 53.016777)"><g><path d="M 1.359375 0 L 1.359375 -14.140625 L 4.046875 -14.140625 L 4.046875 0 Z M 1.359375 0 "/></g></g></g><g fill="#282626" fill-opacity="1"><g transform="translate(105.405474, 53.016777)"><g><path d="M 1.359375 -12.171875 L 1.359375 -14.140625 L 4.046875 -14.140625 L 4.046875 -12.171875 Z M 1.359375 0 L 1.359375 -10.3125 L 4.046875 -10.3125 L 4.046875 0 Z M 1.359375 0 "/></g></g></g><g fill="#282626" fill-opacity="1"><g transform="translate(110.828176, 53.016777)"><g><path d="M 3.890625 -10.3125 L 3.890625 -4.53125 C 3.890625 -2.71875 4.5 -1.8125 5.71875 -1.8125 C 6.363281 -1.8125 6.882812 -2.085938 7.28125 -2.640625 C 7.675781 -3.203125 7.875 -3.914062 7.875 -4.78125 L 7.875 -10.3125 L 10.5625 -10.3125 L 10.5625 -2.3125 C 10.5625 -1.425781 10.585938 -0.65625 10.640625 0 L 8.078125 0 C 8.003906 -0.914062 7.96875 -1.597656 7.96875 -2.046875 L 7.921875 -2.046875 C 7.566406 -1.265625 7.113281 -0.695312 6.5625 -0.34375 C 6.007812 0.0078125 5.359375 0.1875 4.609375 0.1875 C 3.515625 0.1875 2.671875 -0.144531 2.078125 -0.8125 C 1.492188 -1.476562 1.203125 -2.460938 1.203125 -3.765625 L 1.203125 -10.3125 Z M 3.890625 -10.3125 "/></g></g></g><g fill="#282626" fill-opacity="1"><g transform="translate(122.75049, 53.016777)"><g><path d="M 10.046875 -3.015625 C 10.046875 -2.015625 9.640625 -1.226562 8.828125 -0.65625 C 8.015625 -0.09375 6.882812 0.1875 5.4375 0.1875 C 4.019531 0.1875 2.9375 -0.0351562 2.1875 -0.484375 C 1.4375 -0.929688 0.9375 -1.628906 0.6875 -2.578125 L 3.046875 -2.921875 C 3.171875 -2.429688 3.394531 -2.082031 3.71875 -1.875 C 4.050781 -1.675781 4.625 -1.578125 5.4375 -1.578125 C 6.1875 -1.578125 6.734375 -1.671875 7.078125 -1.859375 C 7.421875 -2.054688 7.59375 -2.359375 7.59375 -2.765625 C 7.59375 -3.097656 7.453125 -3.359375 7.171875 -3.546875 C 6.898438 -3.742188 6.4375 -3.910156 5.78125 -4.046875 C 4.257812 -4.335938 3.234375 -4.613281 2.703125 -4.875 C 2.179688 -5.132812 1.78125 -5.46875 1.5 -5.875 C 1.226562 -6.28125 1.09375 -6.785156 1.09375 -7.390625 C 1.09375 -8.367188 1.472656 -9.132812 2.234375 -9.6875 C 2.992188 -10.238281 4.066406 -10.515625 5.453125 -10.515625 C 6.679688 -10.515625 7.664062 -10.273438 8.40625 -9.796875 C 9.15625 -9.316406 9.625 -8.628906 9.8125 -7.734375 L 7.4375 -7.484375 C 7.363281 -7.898438 7.175781 -8.210938 6.875 -8.421875 C 6.582031 -8.628906 6.109375 -8.734375 5.453125 -8.734375 C 4.816406 -8.734375 4.335938 -8.648438 4.015625 -8.484375 C 3.703125 -8.328125 3.546875 -8.054688 3.546875 -7.671875 C 3.546875 -7.367188 3.664062 -7.128906 3.90625 -6.953125 C 4.15625 -6.785156 4.570312 -6.644531 5.15625 -6.53125 C 5.957031 -6.363281 6.671875 -6.191406 7.296875 -6.015625 C 7.929688 -5.835938 8.4375 -5.628906 8.8125 -5.390625 C 9.1875 -5.148438 9.484375 -4.835938 9.703125 -4.453125 C 9.929688 -4.078125 10.046875 -3.597656 10.046875 -3.015625 Z M 10.046875 -3.015625 "/></g></g></g><g fill="#282626" fill-opacity="1"><g transform="translate(133.605431, 53.016777)"><g/></g></g><g fill="#282626" fill-opacity="1"><g transform="translate(139.028126, 53.016777)"><g><path d="M 11.125 -5.203125 C 11.125 -3.484375 10.773438 -2.15625 10.078125 -1.21875 C 9.390625 -0.28125 8.421875 0.1875 7.171875 0.1875 C 6.441406 0.1875 5.804688 0.03125 5.265625 -0.28125 C 4.734375 -0.59375 4.328125 -1.046875 4.046875 -1.640625 L 3.984375 -1.640625 C 4.023438 -1.453125 4.046875 -0.875 4.046875 0.09375 L 4.046875 4.046875 L 1.359375 4.046875 L 1.359375 -7.9375 C 1.359375 -8.90625 1.332031 -9.695312 1.28125 -10.3125 L 3.890625 -10.3125 C 3.921875 -10.195312 3.945312 -9.96875 3.96875 -9.625 C 3.988281 -9.289062 4 -8.960938 4 -8.640625 L 4.046875 -8.640625 C 4.648438 -9.898438 5.75 -10.53125 7.34375 -10.53125 C 8.539062 -10.53125 9.46875 -10.066406 10.125 -9.140625 C 10.789062 -8.210938 11.125 -6.898438 11.125 -5.203125 Z M 8.328125 -5.203125 C 8.328125 -7.515625 7.617188 -8.671875 6.203125 -8.671875 C 5.492188 -8.671875 4.945312 -8.359375 4.5625 -7.734375 C 4.1875 -7.109375 4 -6.238281 4 -5.125 C 4 -4.007812 4.1875 -3.148438 4.5625 -2.546875 C 4.945312 -1.941406 5.488281 -1.640625 6.1875 -1.640625 C 7.613281 -1.640625 8.328125 -2.828125 8.328125 -5.203125 Z M 8.328125 -5.203125 "/></g></g></g><g fill="#282626" fill-opacity="1"><g transform="translate(150.950454, 53.016777)"><g><path d="M 11.15625 -5.171875 C 11.15625 -3.492188 10.691406 -2.179688 9.765625 -1.234375 C 8.835938 -0.285156 7.554688 0.1875 5.921875 0.1875 C 4.304688 0.1875 3.039062 -0.285156 2.125 -1.234375 C 1.21875 -2.191406 0.765625 -3.503906 0.765625 -5.171875 C 0.765625 -6.828125 1.21875 -8.128906 2.125 -9.078125 C 3.039062 -10.023438 4.320312 -10.5 5.96875 -10.5 C 7.65625 -10.5 8.941406 -10.039062 9.828125 -9.125 C 10.710938 -8.207031 11.15625 -6.890625 11.15625 -5.171875 Z M 8.359375 -5.171875 C 8.359375 -6.390625 8.15625 -7.273438 7.75 -7.828125 C 7.351562 -8.378906 6.773438 -8.65625 6.015625 -8.65625 C 4.390625 -8.65625 3.578125 -7.492188 3.578125 -5.171875 C 3.578125 -4.015625 3.773438 -3.132812 4.171875 -2.53125 C 4.566406 -1.9375 5.140625 -1.640625 5.890625 -1.640625 C 7.535156 -1.640625 8.359375 -2.816406 8.359375 -5.171875 Z M 8.359375 -5.171875 "/></g></g></g><g fill="#282626" fill-opacity="1"><g transform="translate(162.872781, 53.016777)"><g><path d="M 1.359375 0 L 1.359375 -7.890625 C 1.359375 -8.453125 1.347656 -8.921875 1.328125 -9.296875 C 1.316406 -9.679688 1.300781 -10.019531 1.28125 -10.3125 L 3.84375 -10.3125 C 3.863281 -10.195312 3.890625 -9.847656 3.921875 -9.265625 C 3.953125 -8.679688 3.96875 -8.296875 3.96875 -8.109375 L 4 -8.109375 C 4.257812 -8.835938 4.488281 -9.347656 4.6875 -9.640625 C 4.894531 -9.929688 5.140625 -10.148438 5.421875 -10.296875 C 5.703125 -10.441406 6.050781 -10.515625 6.46875 -10.515625 C 6.8125 -10.515625 7.085938 -10.46875 7.296875 -10.375 L 7.296875 -8.125 C 6.867188 -8.21875 6.488281 -8.265625 6.15625 -8.265625 C 5.488281 -8.265625 4.96875 -7.992188 4.59375 -7.453125 C 4.226562 -6.921875 4.046875 -6.125 4.046875 -5.0625 L 4.046875 0 Z M 1.359375 0 "/></g></g></g><g fill="#282626" fill-opacity="1"><g transform="translate(170.468369, 53.016777)"><g><path d="M 4 0.171875 C 3.21875 0.171875 2.613281 -0.0390625 2.1875 -0.46875 C 1.757812 -0.894531 1.546875 -1.546875 1.546875 -2.421875 L 1.546875 -8.5 L 0.234375 -8.5 L 0.234375 -10.3125 L 1.671875 -10.3125 L 2.515625 -12.734375 L 4.1875 -12.734375 L 4.1875 -10.3125 L 6.140625 -10.3125 L 6.140625 -8.5 L 4.1875 -8.5 L 4.1875 -3.140625 C 4.1875 -2.640625 4.28125 -2.269531 4.46875 -2.03125 C 4.664062 -1.789062 4.960938 -1.671875 5.359375 -1.671875 C 5.566406 -1.671875 5.867188 -1.71875 6.265625 -1.8125 L 6.265625 -0.15625 C 5.597656 0.0625 4.84375 0.171875 4 0.171875 Z M 4 0.171875 "/></g></g></g><g fill="#282626" fill-opacity="1"><g transform="translate(176.967988, 53.016777)"><g><path d="M 4.5 -8.5 L 4.5 0 L 1.84375 0 L 1.84375 -8.5 L 0.328125 -8.5 L 0.328125 -10.3125 L 1.84375 -10.3125 L 1.84375 -11.390625 C 1.84375 -12.316406 2.085938 -13.003906 2.578125 -13.453125 C 3.078125 -13.910156 3.832031 -14.140625 4.84375 -14.140625 C 5.34375 -14.140625 5.90625 -14.085938 6.53125 -13.984375 L 6.53125 -12.265625 C 6.269531 -12.316406 6.007812 -12.34375 5.75 -12.34375 C 5.289062 -12.34375 4.96875 -12.253906 4.78125 -12.078125 C 4.59375 -11.898438 4.5 -11.582031 4.5 -11.125 L 4.5 -10.3125 L 6.53125 -10.3125 L 6.53125 -8.5 Z M 4.5 -8.5 "/></g></g></g><g fill="#282626" fill-opacity="1"><g transform="translate(183.467606, 53.016777)"><g><path d="M 11.15625 -5.171875 C 11.15625 -3.492188 10.691406 -2.179688 9.765625 -1.234375 C 8.835938 -0.285156 7.554688 0.1875 5.921875 0.1875 C 4.304688 0.1875 3.039062 -0.285156 2.125 -1.234375 C 1.21875 -2.191406 0.765625 -3.503906 0.765625 -5.171875 C 0.765625 -6.828125 1.21875 -8.128906 2.125 -9.078125 C 3.039062 -10.023438 4.320312 -10.5 5.96875 -10.5 C 7.65625 -10.5 8.941406 -10.039062 9.828125 -9.125 C 10.710938 -8.207031 11.15625 -6.890625 11.15625 -5.171875 Z M 8.359375 -5.171875 C 8.359375 -6.390625 8.15625 -7.273438 7.75 -7.828125 C 7.351562 -8.378906 6.773438 -8.65625 6.015625 -8.65625 C 4.390625 -8.65625 3.578125 -7.492188 3.578125 -5.171875 C 3.578125 -4.015625 3.773438 -3.132812 4.171875 -2.53125 C 4.566406 -1.9375 5.140625 -1.640625 5.890625 -1.640625 C 7.535156 -1.640625 8.359375 -2.816406 8.359375 -5.171875 Z M 8.359375 -5.171875 "/></g></g></g><g fill="#282626" fill-opacity="1"><g transform="translate(195.389933, 53.016777)"><g><path d="M 1.359375 0 L 1.359375 -14.140625 L 4.046875 -14.140625 L 4.046875 0 Z M 1.359375 0 "/></g></g></g><g fill="#282626" fill-opacity="1"><g transform="translate(200.812629, 53.016777)"><g><path d="M 1.359375 -12.171875 L 1.359375 -14.140625 L 4.046875 -14.140625 L 4.046875 -12.171875 Z M 1.359375 0 L 1.359375 -10.3125 L 4.046875 -10.3125 L 4.046875 0 Z M 1.359375 0 "/></g></g></g><g fill="#282626" fill-opacity="1"><g transform="translate(206.235325, 53.016777)"><g><path d="M 11.15625 -5.171875 C 11.15625 -3.492188 10.691406 -2.179688 9.765625 -1.234375 C 8.835938 -0.285156 7.554688 0.1875 5.921875 0.1875 C 4.304688 0.1875 3.039062 -0.285156 2.125 -1.234375 C 1.21875 -2.191406 0.765625 -3.503906 0.765625 -5.171875 C 0.765625 -6.828125 1.21875 -8.128906 2.125 -9.078125 C 3.039062 -10.023438 4.320312 -10.5 5.96875 -10.5 C 7.65625 -10.5 8.941406 -10.039062 9.828125 -9.125 C 10.710938 -8.207031 11.15625 -6.890625 11.15625 -5.171875 Z M 8.359375 -5.171875 C 8.359375 -6.390625 8.15625 -7.273438 7.75 -7.828125 C 7.351562 -8.378906 6.773438 -8.65625 6.015625 -8.65625 C 4.390625 -8.65625 3.578125 -7.492188 3.578125 -5.171875 C 3.578125 -4.015625 3.773438 -3.132812 4.171875 -2.53125 C 4.566406 -1.9375 5.140625 -1.640625 5.890625 -1.640625 C 7.535156 -1.640625 8.359375 -2.816406 8.359375 -5.171875 Z M 8.359375 -5.171875 "/></g></g></g><g fill="#282626" fill-opacity="1"><g transform="translate(218.157652, 53.016777)"><g><path d="M 1.328125 0 L 1.328125 -2.90625 L 4.078125 -2.90625 L 4.078125 0 Z M 1.328125 0 "/></g></g></g></svg>