<svg xmlns="http://www.w3.org/2000/svg" xmlns:xlink="http://www.w3.org/1999/xlink" width="75" zoomAndPan="magnify" viewBox="0 0 56.25 44.999999" height="60" preserveAspectRatio="xMidYMid meet" version="1.0"><defs><clipPath id="ebde4d9990"><path d="M 17.855469 11.5625 L 37.839844 11.5625 L 37.839844 33.765625 L 17.855469 33.765625 Z M 17.855469 11.5625 " clip-rule="nonzero"/></clipPath><clipPath id="374c4e346e"><path d="M 17.855469 11.5625 L 37.839844 11.5625 L 37.839844 29 L 17.855469 29 Z M 17.855469 11.5625 " clip-rule="nonzero"/></clipPath><clipPath id="9563b07c55"><path d="M 27 16 L 37.839844 16 L 37.839844 29 L 27 29 Z M 27 16 " clip-rule="nonzero"/></clipPath><clipPath id="61167c57a4"><path d="M 30 22 L 37.839844 22 L 37.839844 24 L 30 24 Z M 30 22 " clip-rule="nonzero"/></clipPath></defs><g clip-path="url(#ebde4d9990)"><path fill="#dcdcdc" d="M 27.273438 11.765625 C 27.628906 11.5625 28.066406 11.5625 28.417969 11.765625 C 30.175781 12.753906 35.457031 15.738281 37.210938 16.726562 C 37.566406 16.925781 37.785156 17.296875 37.785156 17.699219 C 37.785156 19.679688 37.785156 25.644531 37.785156 27.625 C 37.785156 28.027344 37.566406 28.398438 37.210938 28.597656 C 35.457031 29.589844 30.175781 32.570312 28.417969 33.5625 C 28.066406 33.761719 27.628906 33.761719 27.273438 33.5625 C 25.519531 32.570312 20.238281 29.589844 18.480469 28.597656 C 18.128906 28.398438 17.910156 28.027344 17.910156 27.625 C 17.910156 25.644531 17.910156 19.679688 17.910156 17.699219 C 17.910156 17.296875 18.128906 16.929688 18.480469 16.726562 C 20.238281 15.738281 25.519531 12.753906 27.273438 11.765625 Z M 27.273438 11.765625 " fill-opacity="1" fill-rule="evenodd"/></g><g clip-path="url(#374c4e346e)"><path fill="#dcdcdc" d="M 18.066406 28.136719 C 17.929688 27.949219 17.910156 27.773438 17.910156 27.53125 C 17.910156 25.5625 17.910156 19.632812 17.910156 17.660156 C 17.910156 17.261719 18.125 16.894531 18.480469 16.695312 C 20.230469 15.710938 25.492188 12.746094 27.242188 11.761719 C 27.59375 11.5625 28.074219 11.566406 28.429688 11.765625 C 30.175781 12.75 35.421875 15.6875 37.171875 16.675781 C 37.3125 16.753906 37.421875 16.851562 37.515625 16.976562 Z M 18.066406 28.136719 " fill-opacity="1" fill-rule="evenodd"/></g><path fill="#242424" d="M 27.847656 15.296875 C 31.886719 15.296875 35.167969 18.597656 35.167969 22.664062 C 35.167969 26.726562 31.886719 30.027344 27.847656 30.027344 C 23.804688 30.027344 20.523438 26.726562 20.523438 22.664062 C 20.523438 18.597656 23.804688 15.296875 27.847656 15.296875 Z M 27.847656 18.980469 C 29.867188 18.980469 31.507812 20.628906 31.507812 22.664062 C 31.507812 24.695312 29.867188 26.34375 27.847656 26.34375 C 25.824219 26.34375 24.183594 24.695312 24.183594 22.664062 C 24.183594 20.628906 25.824219 18.980469 27.847656 18.980469 Z M 27.847656 18.980469 " fill-opacity="1" fill-rule="evenodd"/><g clip-path="url(#9563b07c55)"><path fill="#dcdcdc" d="M 37.515625 16.984375 C 37.785156 17.238281 37.78125 17.621094 37.78125 17.921875 C 37.78125 19.917969 37.761719 25.597656 37.785156 27.59375 C 37.785156 27.800781 37.71875 28.023438 37.617188 28.1875 L 27.632812 22.664062 Z M 37.515625 16.984375 " fill-opacity="1" fill-rule="evenodd"/></g><path fill="#242424" d="M 31.507812 21.085938 L 32.554688 21.085938 L 32.554688 24.242188 L 31.507812 24.242188 Z M 35.167969 21.085938 L 36.214844 21.085938 L 36.214844 24.242188 L 35.167969 24.242188 Z M 35.167969 21.085938 " fill-opacity="1" fill-rule="evenodd"/><g clip-path="url(#61167c57a4)"><path fill="#242424" d="M 30.460938 22.136719 L 33.601562 22.136719 L 33.601562 23.1875 L 30.460938 23.1875 Z M 34.125 22.136719 L 37.261719 22.136719 L 37.261719 23.1875 L 34.125 23.1875 Z M 34.125 22.136719 " fill-opacity="1" fill-rule="evenodd"/></g></svg>