<svg xmlns="http://www.w3.org/2000/svg" xmlns:xlink="http://www.w3.org/1999/xlink" width="75" zoomAndPan="magnify" viewBox="0 0 56.25 44.999999" height="60" preserveAspectRatio="xMidYMid meet" version="1.0"><defs><clipPath id="91d76526bc"><path d="M 16.570312 10.65625 L 38.773438 10.65625 L 38.773438 32.863281 L 16.570312 32.863281 Z M 16.570312 10.65625 " clip-rule="nonzero"/></clipPath></defs><g clip-path="url(#91d76526bc)"><path fill="#dcdcdc" d="M 20.644531 10.871094 L 34.832031 10.871094 C 35.347656 10.871094 35.84375 10.96875 36.320312 11.167969 C 36.796875 11.363281 37.214844 11.644531 37.582031 12.007812 C 37.945312 12.375 38.226562 12.792969 38.421875 13.269531 C 38.621094 13.746094 38.71875 14.242188 38.71875 14.757812 L 38.71875 28.394531 C 38.71875 28.910156 38.621094 29.40625 38.421875 29.882812 C 38.226562 30.359375 37.945312 30.78125 37.582031 31.144531 C 37.214844 31.507812 36.796875 31.789062 36.320312 31.988281 C 35.84375 32.183594 35.347656 32.285156 34.832031 32.285156 L 20.644531 32.285156 C 20.128906 32.285156 19.632812 32.183594 19.15625 31.988281 C 18.679688 31.789062 18.261719 31.507812 17.894531 31.144531 C 17.53125 30.78125 17.25 30.359375 17.054688 29.882812 C 16.855469 29.40625 16.757812 28.910156 16.757812 28.394531 L 16.757812 14.757812 C 16.757812 14.242188 16.855469 13.746094 17.054688 13.269531 C 17.25 12.792969 17.53125 12.375 17.894531 12.007812 C 18.261719 11.644531 18.679688 11.363281 19.15625 11.167969 C 19.632812 10.96875 20.128906 10.871094 20.644531 10.871094 Z M 20.644531 10.871094 " fill-opacity="1" fill-rule="nonzero"/></g><path fill="#242424" d="M 21.703125 25.886719 L 21.703125 16.472656 C 21.703125 16.402344 21.730469 16.367188 21.789062 16.367188 C 21.949219 16.367188 22.089844 16.367188 22.308594 16.363281 C 22.523438 16.355469 22.757812 16.351562 23.007812 16.347656 C 23.257812 16.34375 23.523438 16.335938 23.804688 16.332031 C 24.082031 16.328125 24.359375 16.324219 24.636719 16.324219 C 25.382812 16.324219 26.011719 16.417969 26.519531 16.605469 C 26.988281 16.761719 27.398438 17.011719 27.75 17.355469 C 28.050781 17.652344 28.273438 18 28.421875 18.394531 C 28.5625 18.777344 28.628906 19.171875 28.628906 19.582031 C 28.628906 20.367188 28.445312 21.015625 28.082031 21.523438 C 27.707031 22.050781 27.21875 22.421875 26.609375 22.636719 C 25.992188 22.867188 25.304688 22.945312 24.546875 22.945312 C 24.332031 22.945312 24.179688 22.945312 24.089844 22.941406 C 24 22.933594 23.871094 22.933594 23.691406 22.933594 L 23.691406 25.871094 C 23.699219 25.910156 23.6875 25.945312 23.660156 25.972656 C 23.632812 26 23.597656 26.007812 23.558594 26.003906 L 21.804688 26.003906 C 21.738281 26.003906 21.703125 25.964844 21.703125 25.886719 Z M 23.691406 18.136719 L 23.691406 21.207031 C 23.820312 21.21875 23.9375 21.222656 24.046875 21.222656 L 24.53125 21.222656 C 24.890625 21.222656 25.242188 21.164062 25.585938 21.054688 C 25.882812 20.964844 26.132812 20.804688 26.335938 20.566406 C 26.527344 20.34375 26.625 20.027344 26.625 19.625 C 26.632812 19.332031 26.5625 19.0625 26.410156 18.8125 C 26.253906 18.574219 26.039062 18.398438 25.769531 18.292969 C 25.421875 18.15625 25.066406 18.09375 24.695312 18.105469 C 24.457031 18.105469 24.25 18.109375 24.066406 18.113281 C 23.886719 18.121094 23.761719 18.128906 23.691406 18.136719 Z M 23.691406 18.136719 " fill-opacity="1" fill-rule="nonzero"/><path fill="#242424" d="M 34.324219 20.648438 C 34.046875 20.507812 33.753906 20.402344 33.449219 20.339844 C 33.109375 20.261719 32.769531 20.222656 32.425781 20.222656 C 32.238281 20.214844 32.050781 20.238281 31.871094 20.289062 C 31.753906 20.3125 31.65625 20.375 31.585938 20.472656 C 31.535156 20.546875 31.511719 20.632812 31.511719 20.722656 C 31.511719 20.8125 31.542969 20.890625 31.597656 20.957031 C 31.6875 21.058594 31.789062 21.140625 31.90625 21.203125 C 32.117188 21.316406 32.335938 21.414062 32.554688 21.503906 C 33.050781 21.667969 33.523438 21.894531 33.964844 22.175781 C 34.269531 22.367188 34.507812 22.617188 34.683594 22.933594 C 34.832031 23.230469 34.90625 23.542969 34.898438 23.875 C 34.90625 24.316406 34.789062 24.722656 34.546875 25.089844 C 34.285156 25.464844 33.941406 25.734375 33.519531 25.910156 C 33.074219 26.105469 32.523438 26.203125 31.863281 26.203125 C 31.445312 26.207031 31.03125 26.167969 30.617188 26.085938 C 30.296875 26.027344 29.984375 25.929688 29.683594 25.789062 C 29.613281 25.753906 29.578125 25.695312 29.582031 25.613281 L 29.582031 24.023438 C 29.578125 23.988281 29.589844 23.960938 29.617188 23.941406 C 29.644531 23.925781 29.671875 23.929688 29.699219 23.949219 C 30.054688 24.160156 30.429688 24.308594 30.832031 24.398438 C 31.1875 24.488281 31.542969 24.535156 31.90625 24.539062 C 32.25 24.539062 32.503906 24.496094 32.667969 24.40625 C 32.832031 24.332031 32.910156 24.203125 32.910156 24.023438 C 32.910156 23.894531 32.835938 23.773438 32.6875 23.65625 C 32.542969 23.535156 32.242188 23.394531 31.789062 23.226562 C 31.324219 23.066406 30.890625 22.84375 30.488281 22.5625 C 30.195312 22.359375 29.964844 22.101562 29.792969 21.789062 C 29.648438 21.496094 29.574219 21.183594 29.582031 20.855469 C 29.578125 20.457031 29.683594 20.089844 29.890625 19.75 C 30.125 19.375 30.445312 19.097656 30.847656 18.910156 C 31.28125 18.695312 31.820312 18.585938 32.46875 18.585938 C 32.847656 18.582031 33.226562 18.609375 33.601562 18.667969 C 33.875 18.703125 34.140625 18.773438 34.390625 18.882812 C 34.433594 18.894531 34.464844 18.921875 34.480469 18.960938 C 34.492188 19 34.496094 19.035156 34.496094 19.074219 L 34.496094 20.5625 C 34.496094 20.597656 34.484375 20.628906 34.453125 20.648438 C 34.410156 20.671875 34.367188 20.671875 34.324219 20.648438 Z M 34.324219 20.648438 " fill-opacity="1" fill-rule="nonzero"/></svg>