<svg xmlns="http://www.w3.org/2000/svg" xmlns:xlink="http://www.w3.org/1999/xlink" width="60" zoomAndPan="magnify" viewBox="0 0 45 44.999999" height="60" preserveAspectRatio="xMidYMid meet" version="1.0"><defs><clipPath id="102589dec6"><path d="M 3.824219 3.824219 L 41.324219 3.824219 L 41.324219 41 L 3.824219 41 Z M 3.824219 3.824219 " clip-rule="nonzero"/></clipPath></defs><g clip-path="url(#102589dec6)"><path fill="#DCDCDC" d="M 22.574219 3.824219 C 12.222656 3.824219 3.824219 12.21875 3.824219 22.574219 C 3.824219 30.859375 9.195312 37.886719 16.648438 40.367188 C 17.585938 40.539062 17.886719 39.960938 17.886719 39.464844 L 17.886719 35.976562 C 12.671875 37.109375 11.585938 33.761719 11.585938 33.761719 C 10.734375 31.59375 9.503906 31.019531 9.503906 31.019531 C 7.800781 29.855469 9.632812 29.878906 9.632812 29.878906 C 11.515625 30.011719 12.507812 31.8125 12.507812 31.8125 C 14.179688 34.679688 16.890625 33.851562 17.960938 33.371094 C 18.128906 32.160156 18.617188 31.332031 19.152344 30.863281 C 14.988281 30.386719 10.609375 28.78125 10.609375 21.597656 C 10.609375 19.546875 11.34375 17.875 12.542969 16.5625 C 12.347656 16.089844 11.707031 14.183594 12.726562 11.601562 C 12.726562 11.601562 14.300781 11.097656 17.882812 13.523438 C 19.378906 13.109375 20.980469 12.898438 22.574219 12.890625 C 24.167969 12.898438 25.773438 13.109375 27.273438 13.523438 C 30.851562 11.097656 32.421875 11.601562 32.421875 11.601562 C 33.445312 14.183594 32.800781 16.09375 32.609375 16.5625 C 33.8125 17.875 34.539062 19.550781 34.539062 21.597656 C 34.539062 28.796875 30.152344 30.382812 25.976562 30.847656 C 26.648438 31.429688 27.261719 32.570312 27.261719 34.320312 L 27.261719 39.464844 C 27.261719 39.964844 27.5625 40.550781 28.515625 40.367188 C 35.960938 37.882812 41.324219 30.855469 41.324219 22.574219 C 41.324219 12.21875 32.929688 3.824219 22.574219 3.824219 Z M 22.574219 3.824219 " fill-opacity="1" fill-rule="nonzero"/></g></svg>