<svg xmlns="http://www.w3.org/2000/svg" xmlns:xlink="http://www.w3.org/1999/xlink" width="60" zoomAndPan="magnify" viewBox="0 0 45 44.999999" height="60" preserveAspectRatio="xMidYMid meet" version="1.0"><defs><clipPath id="7969dc226f"><path d="M 3.636719 3.636719 L 41.136719 3.636719 L 41.136719 41.136719 L 3.636719 41.136719 Z M 3.636719 3.636719 " clip-rule="nonzero"/></clipPath></defs><g clip-path="url(#7969dc226f)"><path fill="#DCDCDC" d="M 3.636719 3.636719 L 41.136719 3.636719 L 41.136719 41.136719 L 3.636719 41.136719 Z M 3.636719 3.636719 " fill-opacity="1" fill-rule="nonzero"/></g><path fill="#242424" d="M 13.496094 34.976562 L 16.367188 33.238281 C 16.921875 34.21875 17.425781 35.050781 18.632812 35.050781 C 19.789062 35.050781 20.519531 34.597656 20.519531 32.835938 L 20.519531 20.855469 L 24.042969 20.855469 L 24.042969 32.886719 C 24.042969 36.535156 21.90625 38.199219 18.785156 38.199219 C 15.964844 38.199219 14.328125 36.738281 13.496094 34.976562 " fill-opacity="1" fill-rule="nonzero"/><path fill="#242424" d="M 25.957031 34.597656 L 28.828125 32.9375 C 29.585938 34.167969 30.566406 35.074219 32.300781 35.074219 C 33.761719 35.074219 34.695312 34.347656 34.695312 33.339844 C 34.695312 32.128906 33.738281 31.703125 32.125 30.996094 L 31.246094 30.621094 C 28.703125 29.539062 27.015625 28.179688 27.015625 25.308594 C 27.015625 22.664062 29.027344 20.652344 32.175781 20.652344 C 34.417969 20.652344 36.027344 21.433594 37.183594 23.472656 L 34.441406 25.234375 C 33.839844 24.152344 33.183594 23.722656 32.175781 23.722656 C 31.144531 23.722656 30.488281 24.378906 30.488281 25.234375 C 30.488281 26.292969 31.144531 26.71875 32.65625 27.375 L 33.535156 27.75 C 36.53125 29.035156 38.21875 30.34375 38.21875 33.289062 C 38.21875 36.460938 35.726562 38.199219 32.378906 38.199219 C 29.105469 38.199219 26.992188 36.636719 25.957031 34.597656 " fill-opacity="1" fill-rule="nonzero"/></svg>