<svg xmlns="http://www.w3.org/2000/svg" xmlns:xlink="http://www.w3.org/1999/xlink" width="75" zoomAndPan="magnify" viewBox="0 0 56.25 44.999999" height="60" preserveAspectRatio="xMidYMid meet" version="1.0"><defs><clipPath id="56d4147d3d"><path d="M 16.804688 11.550781 L 39.007812 11.550781 L 39.007812 33.753906 L 16.804688 33.753906 Z M 16.804688 11.550781 " clip-rule="nonzero"/></clipPath></defs><g clip-path="url(#56d4147d3d)"><path fill="#dcdcdc" d="M 16.804688 11.550781 L 39.007812 11.550781 L 39.007812 33.753906 L 16.804688 33.753906 Z M 16.804688 11.550781 " fill-opacity="1" fill-rule="nonzero"/></g><path fill="#242424" d="M 22.640625 30.105469 L 24.339844 29.078125 C 24.667969 29.65625 24.96875 30.148438 25.683594 30.148438 C 26.367188 30.148438 26.800781 29.878906 26.800781 28.839844 L 26.800781 21.742188 L 28.886719 21.742188 L 28.886719 28.867188 C 28.886719 31.027344 27.621094 32.011719 25.773438 32.011719 C 24.101562 32.011719 23.132812 31.148438 22.640625 30.105469 " fill-opacity="1" fill-rule="nonzero"/><path fill="#242424" d="M 30.019531 29.878906 L 31.71875 28.898438 C 32.167969 29.628906 32.75 30.164062 33.777344 30.164062 C 34.640625 30.164062 35.191406 29.730469 35.191406 29.136719 C 35.191406 28.421875 34.625 28.167969 33.671875 27.75 L 33.152344 27.527344 C 31.644531 26.886719 30.648438 26.082031 30.648438 24.378906 C 30.648438 22.816406 31.839844 21.625 33.703125 21.625 C 35.027344 21.625 35.984375 22.085938 36.667969 23.292969 L 35.042969 24.335938 C 34.6875 23.695312 34.296875 23.441406 33.703125 23.441406 C 33.089844 23.441406 32.703125 23.828125 32.703125 24.335938 C 32.703125 24.960938 33.089844 25.214844 33.984375 25.605469 L 34.507812 25.828125 C 36.28125 26.585938 37.28125 27.363281 37.28125 29.105469 C 37.28125 30.984375 35.804688 32.011719 33.820312 32.011719 C 31.882812 32.011719 30.632812 31.089844 30.019531 29.878906 " fill-opacity="1" fill-rule="nonzero"/></svg>