<svg xmlns="http://www.w3.org/2000/svg" xmlns:xlink="http://www.w3.org/1999/xlink" width="75" zoomAndPan="magnify" viewBox="0 0 56.25 44.999999" height="60" preserveAspectRatio="xMidYMid meet" version="1.0"><defs><clipPath id="6b7657cdd7"><path d="M 18 11.558594 L 38 11.558594 L 38 33.765625 L 18 33.765625 Z M 18 11.558594 " clip-rule="nonzero"/></clipPath><clipPath id="97a5d90839"><path d="M 30 14 L 38 14 L 38 33.765625 L 30 33.765625 Z M 30 14 " clip-rule="nonzero"/></clipPath></defs><g clip-path="url(#6b7657cdd7)"><path fill="#dcdcdc" d="M 35.25 15.890625 C 35.234375 15.792969 35.152344 15.71875 35.054688 15.707031 C 34.976562 15.695312 33.261719 15.578125 33.261719 15.578125 L 31.953125 14.269531 C 31.835938 14.140625 31.574219 14.179688 31.476562 14.203125 C 31.464844 14.203125 31.214844 14.28125 30.808594 14.414062 C 30.414062 13.273438 29.714844 12.226562 28.484375 12.226562 L 28.378906 12.226562 C 28.027344 11.769531 27.597656 11.558594 27.230469 11.558594 C 24.367188 11.574219 23.003906 15.144531 22.570312 16.96875 L 20.570312 17.585938 C 19.957031 17.78125 19.933594 17.792969 19.851562 18.378906 L 18.160156 31.394531 L 30.8125 33.765625 L 37.671875 32.285156 C 37.671875 32.273438 35.261719 16.015625 35.25 15.890625 Z M 30.109375 14.632812 C 29.789062 14.738281 29.425781 14.84375 29.035156 14.960938 L 29.035156 14.726562 C 29.046875 14.132812 28.960938 13.554688 28.773438 12.992188 C 29.414062 13.089844 29.847656 13.808594 30.109375 14.632812 Z M 28.003906 13.144531 C 28.210938 13.761719 28.308594 14.410156 28.289062 15.0625 L 28.289062 15.179688 L 26.078125 15.859375 C 26.511719 14.242188 27.308594 13.445312 28.003906 13.144531 Z M 27.152344 12.347656 C 27.285156 12.351562 27.40625 12.390625 27.519531 12.464844 C 26.59375 12.894531 25.621094 13.980469 25.203125 16.152344 L 23.449219 16.6875 C 23.945312 15.039062 25.097656 12.34375 27.152344 12.34375 Z M 27.152344 12.347656 " fill-opacity="1" fill-rule="nonzero"/></g><g clip-path="url(#97a5d90839)"><path fill="#dcdcdc" d="M 35.054688 15.707031 C 34.976562 15.695312 33.261719 15.578125 33.261719 15.578125 L 31.953125 14.269531 C 31.90625 14.222656 31.839844 14.191406 31.769531 14.191406 L 30.816406 33.765625 L 37.671875 32.285156 L 35.25 15.90625 C 35.234375 15.792969 35.167969 15.726562 35.054688 15.710938 Z M 35.054688 15.707031 " fill-opacity="1" fill-rule="nonzero"/></g><path fill="#242424" d="M 28.484375 19.5 L 27.636719 22.015625 C 27.121094 21.765625 26.558594 21.632812 25.984375 21.621094 C 24.652344 21.621094 24.585938 22.457031 24.585938 22.667969 C 24.585938 23.8125 27.582031 24.25 27.582031 26.945312 C 27.582031 29.066406 26.234375 30.425781 24.425781 30.425781 C 22.253906 30.425781 21.140625 29.078125 21.140625 29.078125 L 21.71875 27.152344 C 21.71875 27.152344 22.855469 28.136719 23.824219 28.136719 C 23.941406 28.140625 24.054688 28.121094 24.164062 28.078125 C 24.273438 28.035156 24.371094 27.976562 24.453125 27.894531 C 24.539062 27.8125 24.601562 27.71875 24.648438 27.609375 C 24.695312 27.5 24.714844 27.386719 24.714844 27.269531 C 24.714844 25.765625 22.253906 25.699219 22.253906 23.242188 C 22.253906 21.171875 23.746094 19.15625 26.742188 19.15625 C 27.917969 19.175781 28.484375 19.5 28.484375 19.5 Z M 28.484375 19.5 " fill-opacity="1" fill-rule="nonzero"/></svg>