<svg xmlns="http://www.w3.org/2000/svg" xmlns:xlink="http://www.w3.org/1999/xlink" width="95" zoomAndPan="magnify" viewBox="0 0 71.25 30.000001" height="40" preserveAspectRatio="xMidYMid meet" version="1.0"><defs><clipPath id="e0047e1ab6"><path d="M 7.855469 3.453125 L 63 3.453125 L 63 25 L 7.855469 25 Z M 7.855469 3.453125 " clip-rule="nonzero"/></clipPath></defs><g clip-path="url(#e0047e1ab6)"><path fill="#dcdcdc" d="M 39.398438 4.132812 C 38.304688 4.691406 37.898438 5.636719 37.898438 8.25 C 37.898438 8.25 38.453125 7.726562 39.273438 7.433594 C 39.871094 7.222656 40.382812 6.898438 40.679688 6.6875 C 41.601562 6.027344 41.746094 5.175781 41.746094 3.742188 C 41.746094 3.742188 40.238281 3.703125 39.398438 4.132812 M 32.921875 4.742188 C 32.027344 5.511719 31.769531 6.738281 31.769531 6.738281 L 28.820312 17.917969 L 26.367188 8.765625 C 26.125 7.792969 25.695312 6.589844 25.015625 5.777344 C 24.144531 4.742188 22.382812 4.675781 22.195312 4.675781 C 22.003906 4.675781 20.242188 4.742188 19.371094 5.777344 C 18.691406 6.589844 18.261719 7.792969 18.023438 8.765625 L 15.570312 17.917969 L 12.617188 6.738281 C 12.617188 6.738281 12.359375 5.511719 11.46875 4.742188 C 10.023438 3.496094 7.855469 3.765625 7.855469 3.765625 L 13.503906 24.660156 C 13.503906 24.660156 15.367188 24.789062 16.300781 24.324219 C 17.523438 23.714844 18.109375 23.242188 18.851562 20.402344 C 19.511719 17.867188 21.359375 10.421875 21.53125 9.890625 C 21.617188 9.628906 21.722656 9.003906 22.195312 9.003906 C 22.671875 9.003906 22.773438 9.628906 22.855469 9.890625 C 23.027344 10.421875 24.875 17.867188 25.539062 20.402344 C 26.277344 23.242188 26.863281 23.714844 28.085938 24.324219 C 29.019531 24.789062 30.882812 24.660156 30.882812 24.660156 L 36.53125 3.765625 C 36.53125 3.765625 34.363281 3.496094 32.921875 4.742188 M 41.742188 7.175781 C 41.742188 7.175781 41.390625 7.710938 40.582031 8.152344 C 40.066406 8.433594 39.566406 8.625 39.035156 8.875 C 38.140625 9.296875 37.898438 9.761719 37.898438 10.472656 L 37.898438 24.660156 C 37.898438 24.660156 39.324219 24.835938 40.257812 24.371094 C 41.457031 23.773438 41.734375 23.195312 41.742188 20.597656 Z M 55.820312 14.261719 L 62.988281 3.832031 C 62.988281 3.832031 59.964844 3.328125 58.46875 4.664062 C 57.507812 5.515625 56.4375 7.050781 56.4375 7.050781 L 53.800781 10.769531 C 53.671875 10.964844 53.503906 11.175781 53.238281 11.175781 C 52.96875 11.175781 52.800781 10.964844 52.675781 10.769531 L 50.039062 7.050781 C 50.039062 7.050781 48.964844 5.515625 48.007812 4.664062 C 46.507812 3.328125 43.484375 3.832031 43.484375 3.832031 L 50.652344 14.261719 L 43.503906 24.660156 C 43.503906 24.660156 46.652344 25.046875 48.152344 23.714844 C 49.109375 22.859375 50.039062 21.472656 50.039062 21.472656 L 52.675781 17.753906 C 52.800781 17.558594 52.96875 17.351562 53.238281 17.351562 C 53.503906 17.351562 53.671875 17.558594 53.800781 17.753906 L 56.4375 21.472656 C 56.4375 21.472656 57.417969 22.859375 58.375 23.714844 C 59.875 25.046875 62.96875 24.660156 62.96875 24.660156 Z M 55.820312 14.261719 " fill-opacity="1" fill-rule="evenodd"/></g></svg>