<svg xmlns="http://www.w3.org/2000/svg" xmlns:xlink="http://www.w3.org/1999/xlink" width="40" zoomAndPan="magnify" viewBox="0 0 30 30.000001" height="40" preserveAspectRatio="xMidYMid meet" version="1.0"><defs><clipPath id="4ba2dac473"><path d="M 7.265625 0 L 22.507812 0 L 22.507812 29 L 7.265625 29 Z M 7.265625 0 " clip-rule="nonzero"/></clipPath></defs><g clip-path="url(#4ba2dac473)"><path fill="var(--text)" d="M 7.636719 28.597656 C 7.820312 28.78125 8.0625 28.875 8.300781 28.875 C 8.542969 28.875 8.785156 28.78125 8.96875 28.597656 L 22.140625 15.238281 C 22.507812 14.867188 22.507812 14.261719 22.140625 13.890625 L 8.96875 0.53125 C 8.597656 0.160156 8.003906 0.160156 7.636719 0.53125 C 7.269531 0.902344 7.269531 1.507812 7.636719 1.878906 L 20.144531 14.5625 L 7.636719 27.246094 C 7.269531 27.621094 7.269531 28.222656 7.636719 28.597656 Z M 7.636719 28.597656 " fill-opacity="1" fill-rule="nonzero"/></g></svg>