<svg xmlns="http://www.w3.org/2000/svg" xmlns:xlink="http://www.w3.org/1999/xlink" width="40" zoomAndPan="magnify" viewBox="0 0 30 30.000001" height="40" preserveAspectRatio="xMidYMid meet" version="1.0"><defs><clipPath id="2ab8ed54dd"><path d="M 0.484375 0.289062 L 29.515625 0.289062 L 29.515625 28.597656 L 0.484375 28.597656 Z M 0.484375 0.289062 " clip-rule="nonzero"/></clipPath></defs><g clip-path="url(#2ab8ed54dd)"><path fill="#DCDCDC" d="M 25.640625 0.316406 C 24.769531 0.316406 23.902344 0.652344 23.253906 1.296875 L 15 9.484375 L 6.773438 1.296875 C 6.097656 0.652344 5.257812 0.316406 4.386719 0.316406 C 3.515625 0.316406 2.644531 0.652344 2 1.296875 L 1.804688 1.492188 C 0.484375 2.804688 0.484375 4.929688 1.804688 6.242188 L 10.03125 14.429688 L 1.804688 22.644531 C 0.484375 23.957031 0.484375 26.082031 1.804688 27.394531 L 2 27.589844 C 2.644531 28.234375 3.515625 28.570312 4.386719 28.570312 C 5.257812 28.570312 6.128906 28.234375 6.773438 27.589844 L 15 19.402344 L 23.226562 27.589844 C 23.871094 28.234375 24.742188 28.570312 25.613281 28.570312 C 26.484375 28.570312 27.355469 28.234375 28 27.589844 L 28.195312 27.394531 C 29.515625 26.082031 29.515625 23.957031 28.195312 22.644531 L 19.96875 14.429688 L 28.195312 6.242188 C 29.515625 4.929688 29.515625 2.804688 28.195312 1.492188 L 28 1.296875 C 27.355469 0.652344 26.484375 0.316406 25.640625 0.316406 Z M 25.640625 0.316406 " fill-opacity="1" fill-rule="nonzero"/></g></svg>