<svg xmlns="http://www.w3.org/2000/svg" xmlns:xlink="http://www.w3.org/1999/xlink" width="40" zoomAndPan="magnify" viewBox="0 0 30 30.000001" height="40" preserveAspectRatio="xMidYMid meet" version="1.0"><defs><clipPath id="360f7270dd"><path d="M 0.484375 1.324219 L 29.515625 1.324219 L 29.515625 7 L 0.484375 7 Z M 0.484375 1.324219 " clip-rule="nonzero"/></clipPath><clipPath id="35d0966f06"><path d="M 0.484375 11 L 29.515625 11 L 29.515625 18 L 0.484375 18 Z M 0.484375 11 " clip-rule="nonzero"/></clipPath><clipPath id="35de99b1d8"><path d="M 0.484375 22 L 29.515625 22 L 29.515625 27.453125 L 0.484375 27.453125 Z M 0.484375 22 " clip-rule="nonzero"/></clipPath></defs><g clip-path="url(#360f7270dd)"><path fill="black" d="M 3.128906 6.550781 L 26.871094 6.550781 C 27.21875 6.550781 27.554688 6.484375 27.878906 6.351562 C 28.203125 6.21875 28.488281 6.03125 28.734375 5.785156 C 28.984375 5.539062 29.171875 5.257812 29.308594 4.9375 C 29.441406 4.617188 29.507812 4.285156 29.507812 3.9375 C 29.507812 3.589844 29.441406 3.257812 29.308594 2.9375 C 29.171875 2.617188 28.984375 2.335938 28.734375 2.089844 C 28.488281 1.84375 28.203125 1.65625 27.878906 1.523438 C 27.554688 1.390625 27.21875 1.324219 26.871094 1.324219 L 3.128906 1.324219 C 2.78125 1.324219 2.445312 1.390625 2.121094 1.523438 C 1.796875 1.65625 1.511719 1.84375 1.265625 2.089844 C 1.015625 2.335938 0.828125 2.617188 0.691406 2.9375 C 0.558594 3.257812 0.492188 3.589844 0.492188 3.9375 C 0.492188 4.285156 0.558594 4.617188 0.691406 4.9375 C 0.828125 5.257812 1.015625 5.539062 1.265625 5.785156 C 1.511719 6.03125 1.796875 6.21875 2.121094 6.351562 C 2.445312 6.484375 2.78125 6.550781 3.128906 6.550781 Z M 3.128906 6.550781 " fill-opacity="1" fill-rule="nonzero"/></g><g clip-path="url(#35d0966f06)"><path fill="#303A40" d="M 26.871094 11.777344 L 3.128906 11.777344 C 2.78125 11.777344 2.445312 11.84375 2.121094 11.976562 C 1.796875 12.109375 1.511719 12.296875 1.265625 12.542969 C 1.015625 12.785156 0.828125 13.070312 0.691406 13.390625 C 0.558594 13.710938 0.492188 14.042969 0.492188 14.390625 C 0.492188 14.734375 0.558594 15.070312 0.691406 15.390625 C 0.828125 15.710938 1.015625 15.992188 1.265625 16.238281 C 1.511719 16.480469 1.796875 16.671875 2.121094 16.804688 C 2.445312 16.9375 2.78125 17.003906 3.128906 17.003906 L 26.871094 17.003906 C 27.21875 17.003906 27.554688 16.9375 27.878906 16.804688 C 28.203125 16.671875 28.488281 16.480469 28.734375 16.238281 C 28.984375 15.992188 29.171875 15.710938 29.308594 15.390625 C 29.441406 15.070312 29.507812 14.734375 29.507812 14.390625 C 29.507812 14.042969 29.441406 13.710938 29.308594 13.390625 C 29.171875 13.070312 28.984375 12.785156 28.734375 12.542969 C 28.488281color: black; 12.296875 28.203125 12.109375 27.878906 11.976562 C 27.554688 11.84375 27.21875 11.777344 26.871094 11.777344 Z M 26.871094 11.777344 " fill-opacity="1" fill-rule="nonzero"/></g><g clip-path="url(#35de99b1d8)"><path fill="black" d="M 26.871094 22.226562 L 3.128906 22.226562 C 2.78125 22.226562 2.445312 22.292969 2.121094 22.425781 C 1.796875 22.558594 1.511719 22.75 1.265625 22.992188 C 1.015625 23.238281 0.828125 23.519531 0.691406 23.839844 C 0.558594 24.160156 0.492188 24.496094 0.492188 24.839844 C 0.492188 25.1875 0.558594 25.519531 0.691406 25.839844 C 0.828125 26.160156 1.015625 26.441406 1.265625 26.6875 C 1.511719 26.933594 1.796875 27.121094 2.121094 27.253906 C 2.445312 27.386719 2.78125 27.453125 3.128906 27.453125 L 26.871094 27.453125 C 27.21875 27.453125 27.554688 27.386719 27.878906 27.253906 C 28.203125 27.121094 28.488281 26.933594 28.734375 26.6875 C 28.984375 26.441406 29.171875 26.160156 29.308594 25.839844 C 29.441406 25.519531 29.507812 25.1875 29.507812 24.839844 C 29.507812 24.496094 29.441406 24.160156 29.308594 23.839844 C 29.171875 23.519531 28.984375 23.238281 28.734375 22.992188 C 28.488281 22.75 28.203125 22.558594 27.878906 22.425781 C 27.554688 22.292969 27.21875 22.226562 26.871094 22.226562 Z M 26.871094 22.226562 " fill-opacity="1" fill-rule="nonzero"/></g></svg>