<svg height="60" preserveAspectRatio="xMidYMid meet" viewBox="0 0 45 44.999999" width="60" xmlns="http://www.w3.org/2000/svg" zoomAndPan="magnify"><path d="m29.59375-6.71875c-.78125 0-1.445312-.203125-1.984375-.609375-.542969-.414063-.84375-1.066406-.90625-1.953125l-.109375-.09375c-.75.78125-1.578125 1.421875-2.484375 1.921875-.898437.492187-1.78125.734375-2.65625.734375-1.375 0-2.671875-.398438-3.890625-1.203125-1.210938-.800781-2.183594-1.859375-2.921875-3.171875-.730469-1.3125-1.09375-2.71875-1.09375-4.21875 0-2.0625.445313-4.015625 1.34375-5.859375.90625-1.851563 2.15625-3.351563 3.75-4.5 1.601563-1.144531 3.40625-1.71875 5.40625-1.71875 2.65625 0 4.632813 1.0625 5.9375 3.1875l.640625-2.59375h4.3125l-2.84375 12.515625c-.230469 1.011719-.34375 1.683594-.34375 2.015625 0 .71875.257812 1.078125.78125 1.078125.914062 0 1.800781-.375 2.65625-1.125.851562-.757812 1.539062-1.789062 2.0625-3.09375.519531-1.3125.78125-2.785156.78125-4.421875 0-2.488281-.558594-4.664063-1.671875-6.53125-1.105469-1.863281-2.671875-3.3125-4.703125-4.34375s-4.371094-1.546875-7.015625-1.546875c-2.75 0-5.183594.640625-7.296875 1.921875-2.105469 1.273437-3.746094 3.03125-4.921875 5.28125-1.179687 2.242187-1.765625 4.75-1.765625 7.53125s.601562 5.273437 1.8125 7.46875c1.207031 2.1875 2.921875 3.914063 5.140625 5.171875 2.226563 1.25 4.800781 1.875 7.71875 1.875 1.988281 0 3.867187-.347656 5.640625-1.046875 1.769531-.707031 3.320312-1.679687 4.65625-2.921875h4.375c-1.742188 2.554688-3.902344 4.511719-6.484375 5.875-2.585937 1.351562-5.414063 2.03125-8.484375 2.03125-3.5 0-6.726562-.808594-9.671875-2.421875-2.949219-1.625-5.28125-3.859375-7-6.703125-1.710937-2.851562-2.5625-6-2.5625-9.4375 0-3.394531.847656-6.515625 2.546875-9.359375 1.695312-2.851563 3.992188-5.097656 6.890625-6.734375 2.894531-1.632812 6.0625-2.453125 9.5-2.453125 3.039063 0 5.882813.640625 8.53125 1.921875 2.65625 1.273438 4.773437 3.070312 6.359375 5.390625 1.59375 2.324219 2.390625 4.992187 2.390625 8 0 3.074219-.730469 5.679687-2.1875 7.8125-1.460937 2.125-3.171875 3.714844-5.140625 4.765625-1.960938 1.042969-3.65625 1.5625-5.09375 1.5625zm-1.078125-11.734375c0-1.207031-.371094-2.203125-1.109375-2.984375-.730469-.789062-1.683594-1.1875-2.859375-1.1875-.992187 0-1.929687.3125-2.8125.9375-.875.617188-1.578125 1.4375-2.109375 2.46875-.523438 1.03125-.78125 2.105469-.78125 3.21875 0 1.3125.34375 2.371094 1.03125 3.171875.6875.804687 1.617188 1.203125 2.796875 1.203125 1.082031 0 2.0625-.328125 2.9375-.984375.882813-.65625 1.585937-1.515625 2.109375-2.578125.53125-1.0625.796875-2.148438.796875-3.265625zm0 0" fill="#dcdcdc" transform="translate(-1.462288 38.094517)"/></svg>