<svg height="60" preserveAspectRatio="xMidYMid meet" viewBox="0 0 56.25 44.999999" width="75" xmlns="http://www.w3.org/2000/svg" xmlns:xlink="http://www.w3.org/1999/xlink" zoomAndPan="magnify"><clipPath id="a"><path d="m15.570312 11.222656h24.425782v21.777344h-24.425782zm0 0"/></clipPath><g clip-path="url(#a)"><path d="m35.636719 18.578125c-.253907-.085937-.515625-.167969-.785157-.242187.042969-.179688.085938-.355469.121094-.527344.59375-2.832032.207032-5.113282-1.121094-5.863282-1.269531-.722656-3.351562.03125-5.449218 1.824219-.203125.171875-.40625.355469-.609375.546875-.132813-.125-.269531-.25-.402344-.367187-2.203125-1.917969-4.40625-2.726563-5.734375-1.972657-1.269531.722657-1.644531 2.867188-1.109375 5.550782.050781.257812.109375.523437.179687.792968-.3125.085938-.613281.179688-.902343.277344-2.582031.882813-4.230469 2.269532-4.230469 3.707032 0 1.484374 1.769531 2.972656 4.457031 3.875.214844.070312.433594.136718.660157.203124-.074219.289063-.136719.574219-.191407.851563-.507812 2.640625-.109375 4.734375 1.15625 5.449219 1.308594.742187 3.503907-.019532 5.644531-1.855469.167969-.144531.335938-.296875.507813-.460937.21875.210937.441406.40625.660156.589843 2.070313 1.753907 4.117188 2.460938 5.382813 1.742188 1.304687-.746094 1.730468-2.996094 1.179687-5.730469-.042969-.210938-.089843-.425781-.144531-.640625.152344-.046875.304688-.09375.453125-.140625 2.792969-.910156 4.609375-2.378906 4.609375-3.882812 0-1.441407-1.699219-2.835938-4.332031-3.726563zm-.605469 6.640625c-.132812.042969-.269531.082031-.410156.125-.308594-.960938-.722656-1.980469-1.234375-3.035156.484375-1.027344.886719-2.035156 1.1875-2.988282.246093.070313.488281.144532.722656.222657 2.257813.765625 3.632813 1.890625 3.632813 2.761719 0 .925781-1.484376 2.125-3.898438 2.914062zm-1.003906 1.945312c.246094 1.210938.28125 2.304688.117187 3.160157-.144531.769531-.433593 1.28125-.796875 1.488281-.769531.4375-2.410156-.132812-4.179687-1.628906-.207031-.171875-.410157-.355469-.613281-.550782.683593-.738281 1.371093-1.59375 2.042968-2.546874 1.175782-.101563 2.289063-.269532 3.300782-.5.046874.199218.09375.390624.128906.578124zm-10.121094 4.570313c-.75.261719-1.347656.269531-1.710938.066406-.769531-.4375-1.085937-2.117187-.652343-4.375.050781-.257812.109375-.523437.179687-.792969.996094.214844 2.101563.371094 3.285156.464844.671876.933594 1.378907 1.789063 2.089844 2.539063-.15625.148437-.308594.289062-.464844.421875-.945312.8125-1.890624 1.386718-2.726562 1.675781zm-3.515625-6.523437c-1.191406-.398438-2.171875-.917969-2.84375-1.484376-.605469-.507812-.910156-1.011718-.910156-1.421874 0-.871094 1.324219-1.984376 3.53125-2.738282.265625-.09375.546875-.179687.839843-.261718.304688.976562.703126 1.996093 1.1875 3.023437-.492187 1.046875-.894531 2.082031-1.203124 3.070313-.207032-.0625-.410157-.121094-.601563-.1875zm1.175781-7.878907c-.457031-2.300781-.152344-4.035156.613282-4.472656.816406-.460937 2.617187.199219 4.519531 1.855469.121093.105468.242187.21875.367187.332031-.710937.746094-1.410156 1.597656-2.078125 2.523437-1.144531.105469-2.242187.273438-3.253906.496094-.0625-.25-.117187-.496094-.167969-.734375zm10.515625 2.546875c-.242187-.40625-.488281-.808594-.742187-1.195312.777344.097656 1.523437.222656 2.222656.382812-.207031.660156-.46875 1.351563-.777344 2.058594-.222656-.410156-.457031-.828125-.703125-1.246094zm-4.289062-4.101562c.480469.511718.964843 1.082031 1.4375 1.703125-.476563-.023438-.960938-.035157-1.449219-.035157-.480469 0-.960938.011719-1.433594.035157.472656-.617188.960938-1.183594 1.445313-1.703125zm-4.3125 4.109375c-.242188.410156-.472657.824219-.6875 1.238281-.304688-.707031-.566407-1.398438-.777344-2.070312.695313-.152344 1.4375-.277344 2.210937-.375-.257812.394531-.503906.796874-.746093 1.207031zm.769531 6.113281c-.800781-.085938-1.550781-.207031-2.246094-.355469.214844-.683593.480469-1.390625.789063-2.113281.21875.414062.449219.828125.691406 1.238281.246094.421875.5.828125.765625 1.230469zm3.574219 2.902344c-.496094-.523438-.988281-1.101563-1.46875-1.722656.46875.015624.945312.027343 1.425781.027343.5 0 .988281-.011719 1.472656-.035156-.472656.636719-.953125 1.214844-1.429687 1.730469zm4.96875-5.40625c.324219.726562.601562 1.433594.820312 2.105468-.707031.15625-1.472656.285157-2.273437.378907.25-.390625.5-.800781.746094-1.21875.25-.421875.484374-.84375.707031-1.265625zm-1.609375.757812c-.378906.648438-.773438 1.265625-1.167969 1.851563-.722656.050781-1.472656.078125-2.234375.078125-.757812 0-1.496094-.023438-2.207031-.070313-.410157-.589843-.8125-1.210937-1.191407-1.855469-.375-.640624-.722656-1.285156-1.039062-1.929687.316406-.644531.664062-1.289063 1.039062-1.929687.375-.640626.769532-1.257813 1.179688-1.847657.726562-.054687 1.46875-.082031 2.21875-.082031.757812 0 1.5.027344 2.226562.082031.402344.585938.796876 1.199219 1.171876 1.84375.382812.648438.734374 1.289063 1.050781 1.921875-.316407.640625-.664063 1.289063-1.046875 1.9375zm2.148437-11.425781c.816407.464844 1.132813 2.328125.621094 4.773437-.03125.15625-.070313.316407-.109375.476563-1.011719-.230469-2.109375-.398437-3.257812-.503906-.671876-.9375-1.367188-1.789063-2.0625-2.527344.1875-.175781.375-.347656.5625-.503906 1.796874-1.539063 3.480468-2.148438 4.246093-1.714844zm-5.550781 7.335937c1.203125 0 2.179688.957032 2.179688 2.140626 0 1.179687-.976563 2.136718-2.179688 2.136718-1.199219 0-2.175781-.957031-2.175781-2.136718 0-1.183594.976562-2.140626 2.175781-2.140626zm0 0" fill="#dcdcdc"/></g></svg>