<svg height="60" preserveAspectRatio="xMidYMid meet" viewBox="0 0 45 44.999999" width="60" xmlns="http://www.w3.org/2000/svg" zoomAndPan="magnify"><path d="m22.648438 12.300781c-5.710938 0-10.347657 4.636719-10.347657 10.347657 0 5.710937 4.636719 10.351562 10.347657 10.351562 5.710937 0 10.351562-4.640625 10.351562-10.351562 0-5.710938-4.640625-10.347657-10.351562-10.347657zm0 .898438c5.226562 0 9.453124 4.226562 9.453124 9.449219 0 5.226562-4.226562 9.453124-9.453124 9.453124-5.222657 0-9.449219-4.226562-9.449219-9.453124 0-5.222657 4.226562-9.449219 9.449219-9.449219zm0 1.800781c-1.734376 0-3.148438 1.335938-3.148438 2.976562 0 1.597657 1.476562 3.40625 2.859375 4.566407.085937.070312.1875.105469.289063.105469.105468 0 .207031-.035157.289062-.105469 1.382812-1.160157 2.863281-2.96875 2.863281-4.566407 0-1.640624-1.414062-2.976562-3.152343-2.976562zm-4.304688 7.652344c-.703125.019531-1.359375.152344-1.882812.453125-.671876.382812-1.152344 1.015625-1.355469 1.777343-.21875.808594-.09375 1.703126.339843 2.449219.601563 1.03125 1.679688 1.617188 2.757813 1.617188.492187 0 .984375-.121094 1.4375-.378907 1.394531-.796874 2.234375-2.988281 2.550781-4.769531.039063-.214843-.082031-.425781-.289062-.5-1.070313-.386719-2.382813-.679687-3.558594-.648437zm8.613281 0c-1.175781-.03125-2.488281.261718-3.558593.648437-.207032.074219-.332032.285157-.292969.5.320312 1.78125 1.15625 3.972657 2.554687 4.769531.449219.257813.941406.378907 1.433594.378907 1.082031 0 2.15625-.585938 2.761719-1.617188.433593-.746093.558593-1.640625.339843-2.449219-.203124-.761718-.683593-1.394531-1.355468-1.777343-.523438-.300781-1.175782-.433594-1.882813-.453125zm0 0" fill="#dcdcdc"/></svg>