<svg xmlns="http://www.w3.org/2000/svg" xmlns:xlink="http://www.w3.org/1999/xlink" width="60" zoomAndPan="magnify" viewBox="0 0 45 44.999999" height="60" preserveAspectRatio="xMidYMid meet" version="1.0"><path fill="#dcdcdc" d="M 22.648438 12.300781 C 16.9375 12.300781 12.300781 16.9375 12.300781 22.648438 C 12.300781 28.359375 16.9375 33 22.648438 33 C 28.359375 33 33 28.359375 33 22.648438 C 33 16.9375 28.359375 12.300781 22.648438 12.300781 Z M 22.648438 13.199219 C 27.875 13.199219 32.101562 17.425781 32.101562 22.648438 C 32.101562 27.875 27.875 32.101562 22.648438 32.101562 C 17.425781 32.101562 13.199219 27.875 13.199219 22.648438 C 13.199219 17.425781 17.425781 13.199219 22.648438 13.199219 Z M 22.648438 15 C 20.914062 15 19.5 16.335938 19.5 17.976562 C 19.5 19.574219 20.976562 21.382812 22.359375 22.542969 C 22.445312 22.613281 22.546875 22.648438 22.648438 22.648438 C 22.753906 22.648438 22.855469 22.613281 22.9375 22.542969 C 24.320312 21.382812 25.800781 19.574219 25.800781 17.976562 C 25.800781 16.335938 24.386719 15 22.648438 15 Z M 18.34375 22.652344 C 17.640625 22.671875 16.984375 22.804688 16.460938 23.105469 C 15.789062 23.488281 15.308594 24.121094 15.105469 24.882812 C 14.886719 25.691406 15.011719 26.585938 15.445312 27.332031 C 16.046875 28.363281 17.125 28.949219 18.203125 28.949219 C 18.695312 28.949219 19.1875 28.828125 19.640625 28.570312 C 21.035156 27.773438 21.875 25.582031 22.191406 23.800781 C 22.230469 23.585938 22.109375 23.375 21.902344 23.300781 C 20.832031 22.914062 19.519531 22.621094 18.34375 22.652344 Z M 26.957031 22.652344 C 25.78125 22.621094 24.46875 22.914062 23.398438 23.300781 C 23.191406 23.375 23.066406 23.585938 23.105469 23.800781 C 23.425781 25.582031 24.261719 27.773438 25.660156 28.570312 C 26.109375 28.828125 26.601562 28.949219 27.09375 28.949219 C 28.175781 28.949219 29.25 28.363281 29.855469 27.332031 C 30.289062 26.585938 30.414062 25.691406 30.195312 24.882812 C 29.992188 24.121094 29.511719 23.488281 28.839844 23.105469 C 28.316406 22.804688 27.664062 22.671875 26.957031 22.652344 Z M 26.957031 22.652344 " fill-opacity="1" fill-rule="nonzero"/></svg>