<svg xmlns="http://www.w3.org/2000/svg" xmlns:xlink="http://www.w3.org/1999/xlink" width="60" zoomAndPan="magnify" viewBox="0 0 45 44.999999" height="60" preserveAspectRatio="xMidYMid meet" version="1.0"><defs><clipPath id="f947f4434a"><path d="M 5.371094 3.570312 L 39.871094 3.570312 L 39.871094 41 L 5.371094 41 Z M 5.371094 3.570312 " clip-rule="nonzero"/></clipPath><clipPath id="10761ee1ee"><path d="M 5.371094 3.570312 L 39.871094 3.570312 L 39.871094 32 L 5.371094 32 Z M 5.371094 3.570312 " clip-rule="nonzero"/></clipPath><clipPath id="6e3167a3ca"><path d="M 22 12 L 39.871094 12 L 39.871094 32 L 22 32 Z M 22 12 " clip-rule="nonzero"/></clipPath></defs><g clip-path="url(#f947f4434a)"><path fill="#00549d" d="M 21.628906 3.914062 C 22.242188 3.578125 22.996094 3.578125 23.609375 3.914062 C 26.640625 5.589844 35.761719 10.625 38.792969 12.296875 C 39.40625 12.636719 39.785156 13.261719 39.785156 13.9375 C 39.785156 17.285156 39.785156 27.359375 39.785156 30.703125 C 39.785156 31.382812 39.40625 32.007812 38.792969 32.34375 C 35.761719 34.019531 26.640625 39.054688 23.609375 40.730469 C 22.996094 41.066406 22.242188 41.066406 21.628906 40.730469 C 18.597656 39.054688 9.476562 34.019531 6.445312 32.34375 C 5.832031 32.007812 5.457031 31.382812 5.457031 30.707031 C 5.457031 27.359375 5.457031 17.285156 5.457031 13.9375 C 5.457031 13.261719 5.832031 12.636719 6.445312 12.296875 C 9.476562 10.625 18.597656 5.589844 21.628906 3.914062 Z M 21.628906 3.914062 " fill-opacity="1" fill-rule="evenodd"/></g><g clip-path="url(#10761ee1ee)"><path fill="#0086d4" d="M 5.730469 31.566406 C 5.488281 31.25 5.457031 30.949219 5.457031 30.546875 C 5.457031 27.21875 5.457031 17.203125 5.457031 13.875 C 5.457031 13.203125 5.832031 12.582031 6.445312 12.246094 C 9.464844 10.582031 18.554688 5.574219 21.574219 3.910156 C 22.183594 3.574219 23.015625 3.578125 23.625 3.917969 C 26.644531 5.582031 35.703125 10.542969 38.726562 12.207031 C 38.96875 12.34375 39.15625 12.507812 39.320312 12.71875 Z M 5.730469 31.566406 " fill-opacity="1" fill-rule="evenodd"/></g><path fill="#ffffff" d="M 22.621094 9.882812 C 29.601562 9.882812 35.269531 15.457031 35.269531 22.320312 C 35.269531 29.1875 29.601562 34.761719 22.621094 34.761719 C 15.640625 34.761719 9.972656 29.1875 9.972656 22.320312 C 9.972656 15.457031 15.640625 9.882812 22.621094 9.882812 Z M 22.621094 16.101562 C 26.109375 16.101562 28.945312 18.886719 28.945312 22.320312 C 28.945312 25.753906 26.109375 28.542969 22.621094 28.542969 C 19.128906 28.542969 16.296875 25.753906 16.296875 22.320312 C 16.296875 18.886719 19.128906 16.101562 22.621094 16.101562 Z M 22.621094 16.101562 " fill-opacity="1" fill-rule="evenodd"/><g clip-path="url(#6e3167a3ca)"><path fill="#0075c0" d="M 39.320312 12.730469 C 39.785156 13.160156 39.777344 13.804688 39.777344 14.3125 C 39.777344 17.6875 39.746094 27.277344 39.785156 30.652344 C 39.789062 31.003906 39.667969 31.375 39.492188 31.652344 L 22.253906 22.320312 Z M 39.320312 12.730469 " fill-opacity="1" fill-rule="evenodd"/></g><path fill="#ffffff" d="M 28.945312 19.65625 L 30.75 19.65625 L 30.75 24.988281 L 28.945312 24.988281 Z M 35.269531 19.65625 L 37.074219 19.65625 L 37.074219 24.988281 L 35.269531 24.988281 Z M 35.269531 19.65625 " fill-opacity="1" fill-rule="evenodd"/><path fill="#ffffff" d="M 27.136719 21.433594 L 32.558594 21.433594 L 32.558594 23.210938 L 27.136719 23.210938 Z M 33.460938 21.433594 L 38.882812 21.433594 L 38.882812 23.210938 L 33.460938 23.210938 Z M 33.460938 21.433594 " fill-opacity="1" fill-rule="evenodd"/></svg>