<svg xmlns="http://www.w3.org/2000/svg" xmlns:xlink="http://www.w3.org/1999/xlink" width="60" zoomAndPan="magnify" viewBox="0 0 45 44.999999" height="60" preserveAspectRatio="xMidYMid meet" version="1.0"><defs><clipPath id="165fbb377f"><path d="M 3.542969 3.613281 L 41.792969 3.613281 L 41.792969 41.113281 L 3.542969 41.113281 Z M 3.542969 3.613281 " clip-rule="nonzero"/></clipPath></defs><g clip-path="url(#165fbb377f)"><path fill="#DCDCDC" d="M 22.675781 3.625 C 12.109375 3.625 3.542969 12.050781 3.542969 22.453125 C 3.542969 31.792969 10.46875 39.550781 19.53125 41.019531 L 19.53125 28.253906 L 14.660156 28.253906 L 14.660156 22.664062 L 19.53125 22.664062 L 19.53125 18.605469 C 19.53125 14.203125 23.15625 11.222656 27.628906 11.222656 C 29.617188 11.222656 30.859375 11.515625 30.859375 11.515625 L 30.859375 16.207031 L 27.628906 16.207031 C 26.289062 16.207031 25.195312 17.285156 25.195312 18.605469 L 25.195312 22.664062 L 30.414062 22.664062 L 29.683594 28.253906 L 25.195312 28.253906 L 25.195312 41.101562 C 34.554688 39.878906 41.777344 31.988281 41.777344 22.453125 C 41.792969 12.050781 33.230469 3.625 22.675781 3.625 Z M 22.675781 3.625 " fill-opacity="1" fill-rule="nonzero"/></g></svg>