<svg xmlns="http://www.w3.org/2000/svg" xmlns:xlink="http://www.w3.org/1999/xlink" width="60" zoomAndPan="magnify" viewBox="0 0 45 44.999999" height="60" preserveAspectRatio="xMidYMid meet" version="1.0"><defs><clipPath id="be56d01dad"><path d="M 9.15625 11 L 36.15625 11 L 36.15625 41.183594 L 9.15625 41.183594 Z M 9.15625 11 " clip-rule="nonzero"/></clipPath><clipPath id="c652a50fc7"><path d="M 11 3.683594 L 17 3.683594 L 17 9 L 11 9 Z M 11 3.683594 " clip-rule="nonzero"/></clipPath><clipPath id="62aa30dd86"><path d="M 17 3.683594 L 23 3.683594 L 23 9 L 17 9 Z M 17 3.683594 " clip-rule="nonzero"/></clipPath><clipPath id="1f86426fa4"><path d="M 22 3.683594 L 29 3.683594 L 29 9 L 22 9 Z M 22 3.683594 " clip-rule="nonzero"/></clipPath><clipPath id="a001921ba2"><path d="M 29 3.683594 L 34 3.683594 L 34 9 L 29 9 Z M 29 3.683594 " clip-rule="nonzero"/></clipPath></defs><g clip-path="url(#be56d01dad)"><path fill="#e44d26" d="M 36.148438 11.050781 L 33.691406 38.164062 L 22.644531 41.183594 L 11.628906 38.171875 L 9.175781 11.050781 Z M 36.148438 11.050781 " fill-opacity="1" fill-rule="nonzero"/></g><path fill="#f16529" d="M 22.664062 38.875 L 31.589844 36.441406 L 33.6875 13.269531 L 22.664062 13.269531 Z M 22.664062 38.875 " fill-opacity="1" fill-rule="nonzero"/><path fill="#ebebeb" d="M 17.886719 19.921875 L 22.664062 19.921875 L 22.664062 16.59375 L 14.195312 16.59375 L 14.277344 17.488281 L 15.105469 26.652344 L 22.664062 26.652344 L 22.664062 23.328125 L 18.195312 23.328125 Z M 17.886719 19.921875 " fill-opacity="1" fill-rule="nonzero"/><path fill="#ebebeb" d="M 18.644531 28.316406 L 15.257812 28.316406 L 15.730469 33.539062 L 22.648438 35.429688 L 22.664062 35.425781 L 22.664062 31.964844 L 22.648438 31.96875 L 18.886719 30.96875 Z M 18.644531 28.316406 " fill-opacity="1" fill-rule="nonzero"/><g clip-path="url(#c652a50fc7)"><path fill="#000000" d="M 11.683594 3.683594 L 13.402344 3.683594 L 13.402344 5.351562 L 14.972656 5.351562 L 14.972656 3.683594 L 16.6875 3.683594 L 16.6875 8.738281 L 14.972656 8.738281 L 14.972656 7.046875 L 13.402344 7.046875 L 13.402344 8.738281 L 11.683594 8.738281 Z M 11.683594 3.683594 " fill-opacity="1" fill-rule="nonzero"/></g><g clip-path="url(#62aa30dd86)"><path fill="#000000" d="M 18.945312 5.359375 L 17.433594 5.359375 L 17.433594 3.683594 L 22.171875 3.683594 L 22.171875 5.359375 L 20.660156 5.359375 L 20.660156 8.738281 L 18.945312 8.738281 Z M 18.945312 5.359375 " fill-opacity="1" fill-rule="nonzero"/></g><g clip-path="url(#1f86426fa4)"><path fill="#000000" d="M 22.921875 3.683594 L 24.710938 3.683594 L 25.8125 5.460938 L 26.914062 3.683594 L 28.703125 3.683594 L 28.703125 8.738281 L 26.996094 8.738281 L 26.996094 6.234375 L 25.8125 8.03125 L 25.785156 8.03125 L 24.601562 6.234375 L 24.601562 8.738281 L 22.921875 8.738281 Z M 22.921875 3.683594 " fill-opacity="1" fill-rule="nonzero"/></g><g clip-path="url(#a001921ba2)"><path fill="#000000" d="M 29.558594 3.683594 L 31.273438 3.683594 L 31.273438 7.070312 L 33.6875 7.070312 L 33.6875 8.738281 L 29.558594 8.738281 Z M 29.558594 3.683594 " fill-opacity="1" fill-rule="nonzero"/></g><path fill="#ffffff" d="M 22.652344 26.652344 L 26.808594 26.652344 L 26.417969 30.964844 L 22.652344 31.96875 L 22.652344 35.425781 L 29.574219 33.539062 L 29.625 32.976562 L 30.417969 24.21875 L 30.5 23.328125 L 22.652344 23.328125 Z M 22.652344 26.652344 " fill-opacity="1" fill-rule="nonzero"/><path fill="#ffffff" d="M 22.652344 19.914062 L 22.652344 19.921875 L 30.808594 19.921875 L 30.875 19.171875 L 31.027344 17.488281 L 31.109375 16.59375 L 22.652344 16.59375 Z M 22.652344 19.914062 " fill-opacity="1" fill-rule="nonzero"/></svg>