<svg xmlns="http://www.w3.org/2000/svg" xmlns:xlink="http://www.w3.org/1999/xlink" width="60" zoomAndPan="magnify" viewBox="0 0 45 44.999999" height="60" preserveAspectRatio="xMidYMid meet" version="1.0"><defs><clipPath id="53fab3db84"><path d="M 3.863281 3.863281 L 41.363281 3.863281 L 41.363281 41.363281 L 3.863281 41.363281 Z M 3.863281 3.863281 " clip-rule="nonzero"/></clipPath></defs><g clip-path="url(#53fab3db84)"><path fill="#f7df1e" d="M 3.863281 3.863281 L 41.363281 3.863281 L 41.363281 41.363281 L 3.863281 41.363281 Z M 3.863281 3.863281 " fill-opacity="1" fill-rule="nonzero"/></g><path fill="#000000" d="M 13.722656 35.199219 L 16.59375 33.464844 C 17.144531 34.445312 17.648438 35.277344 18.859375 35.277344 C 20.015625 35.277344 20.746094 34.820312 20.746094 33.0625 L 20.746094 21.078125 L 24.269531 21.078125 L 24.269531 33.109375 C 24.269531 36.761719 22.128906 38.421875 19.007812 38.421875 C 16.191406 38.421875 14.554688 36.960938 13.722656 35.199219 " fill-opacity="1" fill-rule="nonzero"/><path fill="#000000" d="M 26.183594 34.820312 L 29.054688 33.160156 C 29.808594 34.394531 30.789062 35.300781 32.527344 35.300781 C 33.988281 35.300781 34.917969 34.570312 34.917969 33.5625 C 34.917969 32.355469 33.960938 31.925781 32.351562 31.222656 L 31.46875 30.84375 C 28.925781 29.761719 27.242188 28.40625 27.242188 25.535156 C 27.242188 22.890625 29.253906 20.875 32.402344 20.875 C 34.640625 20.875 36.253906 21.65625 37.410156 23.695312 L 34.667969 25.457031 C 34.0625 24.375 33.410156 23.949219 32.402344 23.949219 C 31.371094 23.949219 30.714844 24.601562 30.714844 25.457031 C 30.714844 26.515625 31.371094 26.945312 32.878906 27.597656 L 33.761719 27.976562 C 36.753906 29.261719 38.441406 30.566406 38.441406 33.515625 C 38.441406 36.683594 35.953125 38.421875 32.601562 38.421875 C 29.332031 38.421875 27.214844 36.859375 26.183594 34.820312 " fill-opacity="1" fill-rule="nonzero"/></svg>