<svg xmlns="http://www.w3.org/2000/svg" xmlns:xlink="http://www.w3.org/1999/xlink" width="60" zoomAndPan="magnify" viewBox="0 0 45 44.999999" height="60" preserveAspectRatio="xMidYMid meet" version="1.0"><defs><clipPath id="4226ffdf5f"><path d="M 3.601562 3.601562 L 41.101562 3.601562 L 41.101562 41.101562 L 3.601562 41.101562 Z M 3.601562 3.601562 " clip-rule="nonzero"/></clipPath></defs><g clip-path="url(#4226ffdf5f)"><path fill="#DCDCDC" d="M 22.351562 3.601562 C 11.996094 3.601562 3.601562 11.996094 3.601562 22.351562 C 3.601562 32.707031 11.996094 41.101562 22.351562 41.101562 C 32.707031 41.101562 41.101562 32.707031 41.101562 22.351562 C 41.101562 11.996094 32.707031 3.601562 22.351562 3.601562 Z M 16.691406 31.542969 L 12.75 31.542969 L 12.75 19.054688 L 16.691406 19.054688 Z M 14.621094 17.492188 L 14.589844 17.492188 C 13.164062 17.492188 12.238281 16.539062 12.238281 15.328125 C 12.238281 14.113281 13.191406 13.160156 14.648438 13.160156 C 16.101562 13.160156 16.996094 14.089844 17.023438 15.324219 C 17.023438 16.535156 16.101562 17.492188 14.621094 17.492188 Z M 32.460938 31.542969 L 27.988281 31.542969 L 27.988281 25.078125 C 27.988281 23.386719 27.289062 22.230469 25.753906 22.230469 C 24.578125 22.230469 23.921875 23.011719 23.621094 23.761719 C 23.503906 24.03125 23.523438 24.40625 23.523438 24.78125 L 23.523438 31.539062 L 19.097656 31.539062 C 19.097656 31.539062 19.152344 20.09375 19.097656 19.050781 L 23.523438 19.050781 L 23.523438 21.011719 C 23.785156 20.15625 25.199219 18.933594 27.457031 18.933594 C 30.257812 18.933594 32.460938 20.726562 32.460938 24.597656 Z M 32.460938 31.542969 " fill-opacity="1" fill-rule="nonzero"/></g></svg>