<svg xmlns="http://www.w3.org/2000/svg" xmlns:xlink="http://www.w3.org/1999/xlink" width="60" zoomAndPan="magnify" viewBox="0 0 45 44.999999" height="60" preserveAspectRatio="xMidYMid meet" version="1.0"><defs><g/></defs><g fill="#DCDCDC" fill-opacity="1"><g transform="translate(-1.462288, 38.094517)"><g><path d="M 29.59375 -6.71875 C 28.8125 -6.71875 28.148438 -6.921875 27.609375 -7.328125 C 27.066406 -7.742188 26.765625 -8.394531 26.703125 -9.28125 L 26.59375 -9.375 C 25.84375 -8.59375 25.015625 -7.953125 24.109375 -7.453125 C 23.210938 -6.960938 22.328125 -6.71875 21.453125 -6.71875 C 20.078125 -6.71875 18.78125 -7.117188 17.5625 -7.921875 C 16.351562 -8.722656 15.378906 -9.78125 14.640625 -11.09375 C 13.910156 -12.40625 13.546875 -13.8125 13.546875 -15.3125 C 13.546875 -17.375 13.992188 -19.328125 14.890625 -21.171875 C 15.796875 -23.023438 17.046875 -24.523438 18.640625 -25.671875 C 20.242188 -26.816406 22.046875 -27.390625 24.046875 -27.390625 C 26.703125 -27.390625 28.679688 -26.328125 29.984375 -24.203125 L 30.625 -26.796875 L 34.9375 -26.796875 L 32.09375 -14.28125 C 31.863281 -13.269531 31.75 -12.597656 31.75 -12.265625 C 31.75 -11.546875 32.007812 -11.1875 32.53125 -11.1875 C 33.445312 -11.1875 34.332031 -11.5625 35.1875 -12.3125 C 36.039062 -13.070312 36.726562 -14.101562 37.25 -15.40625 C 37.769531 -16.71875 38.03125 -18.191406 38.03125 -19.828125 C 38.03125 -22.316406 37.472656 -24.492188 36.359375 -26.359375 C 35.253906 -28.222656 33.6875 -29.671875 31.65625 -30.703125 C 29.625 -31.734375 27.285156 -32.25 24.640625 -32.25 C 21.890625 -32.25 19.457031 -31.609375 17.34375 -30.328125 C 15.238281 -29.054688 13.597656 -27.296875 12.421875 -25.046875 C 11.242188 -22.804688 10.65625 -20.296875 10.65625 -17.515625 C 10.65625 -14.734375 11.257812 -12.242188 12.46875 -10.046875 C 13.675781 -7.859375 15.390625 -6.132812 17.609375 -4.875 C 19.835938 -3.625 22.410156 -3 25.328125 -3 C 27.316406 -3 29.195312 -3.347656 30.96875 -4.046875 C 32.738281 -4.753906 34.289062 -5.726562 35.625 -6.96875 L 40 -6.96875 C 38.257812 -4.414062 36.097656 -2.457031 33.515625 -1.09375 C 30.929688 0.257812 28.101562 0.9375 25.03125 0.9375 C 21.53125 0.9375 18.304688 0.128906 15.359375 -1.484375 C 12.410156 -3.109375 10.078125 -5.34375 8.359375 -8.1875 C 6.648438 -11.039062 5.796875 -14.1875 5.796875 -17.625 C 5.796875 -21.019531 6.644531 -24.140625 8.34375 -26.984375 C 10.039062 -29.835938 12.335938 -32.082031 15.234375 -33.71875 C 18.128906 -35.351562 21.296875 -36.171875 24.734375 -36.171875 C 27.773438 -36.171875 30.617188 -35.53125 33.265625 -34.25 C 35.921875 -32.976562 38.039062 -31.179688 39.625 -28.859375 C 41.21875 -26.535156 42.015625 -23.867188 42.015625 -20.859375 C 42.015625 -17.785156 41.285156 -15.179688 39.828125 -13.046875 C 38.367188 -10.921875 36.65625 -9.332031 34.6875 -8.28125 C 32.726562 -7.238281 31.03125 -6.71875 29.59375 -6.71875 Z M 28.515625 -18.453125 C 28.515625 -19.660156 28.144531 -20.65625 27.40625 -21.4375 C 26.675781 -22.226562 25.722656 -22.625 24.546875 -22.625 C 23.554688 -22.625 22.617188 -22.3125 21.734375 -21.6875 C 20.859375 -21.070312 20.15625 -20.25 19.625 -19.21875 C 19.101562 -18.1875 18.84375 -17.113281 18.84375 -16 C 18.84375 -14.6875 19.1875 -13.628906 19.875 -12.828125 C 20.5625 -12.023438 21.492188 -11.625 22.671875 -11.625 C 23.753906 -11.625 24.734375 -11.953125 25.609375 -12.609375 C 26.492188 -13.265625 27.195312 -14.125 27.71875 -15.1875 C 28.25 -16.25 28.515625 -17.335938 28.515625 -18.453125 Z M 28.515625 -18.453125 "/></g></g></g></svg>