<svg xmlns="http://www.w3.org/2000/svg" xmlns:xlink="http://www.w3.org/1999/xlink" width="60" zoomAndPan="magnify" viewBox="0 0 45 44.999999" height="60" preserveAspectRatio="xMidYMid meet" version="1.0"><defs><clipPath id="d02efff815"><path d="M 3.578125 4 L 41 4 L 41 40.75 L 3.578125 40.75 Z M 3.578125 4 " clip-rule="nonzero"/></clipPath></defs><g clip-path="url(#d02efff815)"><path fill="#001e36" d="M 10.453125 4.347656 L 34.40625 4.347656 C 34.839844 4.347656 35.265625 4.390625 35.6875 4.472656 C 36.113281 4.558594 36.523438 4.683594 36.921875 4.847656 C 37.320312 5.011719 37.699219 5.214844 38.054688 5.453125 C 38.414062 5.695312 38.746094 5.964844 39.050781 6.269531 C 39.355469 6.574219 39.628906 6.90625 39.867188 7.265625 C 40.109375 7.625 40.308594 8.003906 40.476562 8.402344 C 40.640625 8.800781 40.765625 9.210938 40.847656 9.632812 C 40.933594 10.058594 40.976562 10.484375 40.976562 10.914062 L 40.976562 33.945312 C 40.976562 34.375 40.933594 34.800781 40.847656 35.226562 C 40.765625 35.648438 40.640625 36.058594 40.476562 36.457031 C 40.308594 36.855469 40.109375 37.234375 39.867188 37.59375 C 39.628906 37.953125 39.355469 38.28125 39.050781 38.589844 C 38.746094 38.894531 38.414062 39.164062 38.054688 39.40625 C 37.699219 39.644531 37.320312 39.847656 36.921875 40.011719 C 36.523438 40.175781 36.113281 40.300781 35.6875 40.386719 C 35.265625 40.46875 34.839844 40.511719 34.40625 40.511719 L 10.453125 40.511719 C 10.019531 40.511719 9.59375 40.46875 9.171875 40.386719 C 8.746094 40.300781 8.335938 40.175781 7.9375 40.011719 C 7.539062 39.847656 7.160156 39.644531 6.804688 39.40625 C 6.445312 39.164062 6.113281 38.894531 5.808594 38.589844 C 5.503906 38.28125 5.230469 37.953125 4.992188 37.59375 C 4.75 37.234375 4.546875 36.855469 4.382812 36.457031 C 4.21875 36.058594 4.09375 35.648438 4.011719 35.226562 C 3.925781 34.800781 3.882812 34.375 3.882812 33.945312 L 3.882812 10.914062 C 3.882812 10.484375 3.925781 10.058594 4.011719 9.632812 C 4.09375 9.210938 4.21875 8.800781 4.382812 8.402344 C 4.546875 8.003906 4.75 7.625 4.992188 7.265625 C 5.230469 6.90625 5.503906 6.574219 5.808594 6.269531 C 6.113281 5.964844 6.445312 5.695312 6.804688 5.453125 C 7.160156 5.214844 7.539062 5.011719 7.9375 4.847656 C 8.335938 4.683594 8.746094 4.558594 9.171875 4.472656 C 9.59375 4.390625 10.019531 4.347656 10.453125 4.347656 Z M 10.453125 4.347656 " fill-opacity="1" fill-rule="nonzero"/></g><path fill="#31a8ff" d="M 12.234375 29.707031 L 12.234375 13.808594 C 12.234375 13.691406 12.285156 13.632812 12.386719 13.632812 C 12.648438 13.632812 12.890625 13.628906 13.257812 13.621094 C 13.621094 13.613281 14.015625 13.605469 14.4375 13.597656 C 14.863281 13.589844 15.308594 13.582031 15.78125 13.570312 C 16.253906 13.5625 16.722656 13.558594 17.1875 13.558594 C 18.449219 13.558594 19.511719 13.71875 20.375 14.03125 C 21.160156 14.296875 21.855469 14.722656 22.453125 15.300781 C 22.957031 15.804688 23.335938 16.386719 23.582031 17.054688 C 23.816406 17.703125 23.933594 18.371094 23.933594 19.058594 C 23.933594 20.386719 23.625 21.480469 23.011719 22.34375 C 22.378906 23.230469 21.550781 23.855469 20.523438 24.222656 C 19.476562 24.613281 18.316406 24.742188 17.039062 24.742188 C 16.675781 24.742188 16.417969 24.738281 16.269531 24.730469 C 16.117188 24.722656 15.894531 24.71875 15.597656 24.71875 L 15.597656 29.683594 C 15.605469 29.75 15.585938 29.804688 15.539062 29.851562 C 15.492188 29.898438 15.4375 29.917969 15.371094 29.90625 L 12.410156 29.90625 C 12.292969 29.90625 12.234375 29.839844 12.234375 29.707031 Z M 15.597656 16.621094 L 15.597656 21.804688 C 15.8125 21.824219 16.011719 21.832031 16.195312 21.832031 L 17.015625 21.832031 C 17.621094 21.828125 18.214844 21.734375 18.792969 21.546875 C 19.296875 21.398438 19.71875 21.125 20.0625 20.726562 C 20.386719 20.34375 20.546875 19.8125 20.546875 19.132812 C 20.5625 18.640625 20.441406 18.183594 20.1875 17.765625 C 19.917969 17.355469 19.558594 17.0625 19.105469 16.882812 C 18.519531 16.652344 17.914062 16.550781 17.289062 16.570312 C 16.890625 16.570312 16.539062 16.574219 16.230469 16.582031 C 15.921875 16.589844 15.710938 16.605469 15.597656 16.621094 Z M 15.597656 16.621094 " fill-opacity="1" fill-rule="nonzero"/><path fill="#31a8ff" d="M 33.550781 20.863281 C 33.082031 20.621094 32.589844 20.449219 32.070312 20.339844 C 31.503906 20.210938 30.925781 20.144531 30.34375 20.140625 C 30.027344 20.132812 29.714844 20.171875 29.410156 20.253906 C 29.210938 20.296875 29.046875 20.402344 28.925781 20.5625 C 28.839844 20.691406 28.800781 20.835938 28.800781 20.988281 C 28.804688 21.136719 28.855469 21.269531 28.949219 21.386719 C 29.097656 21.558594 29.269531 21.695312 29.472656 21.796875 C 29.828125 21.988281 30.191406 22.15625 30.566406 22.304688 C 31.40625 22.585938 32.195312 22.964844 32.941406 23.4375 C 33.457031 23.761719 33.863281 24.191406 34.164062 24.71875 C 34.414062 25.222656 34.535156 25.75 34.523438 26.3125 C 34.539062 27.058594 34.339844 27.742188 33.925781 28.363281 C 33.484375 28.996094 32.90625 29.453125 32.195312 29.746094 C 31.441406 30.078125 30.507812 30.242188 29.398438 30.242188 C 28.6875 30.25 27.988281 30.183594 27.292969 30.042969 C 26.746094 29.945312 26.21875 29.777344 25.714844 29.546875 C 25.59375 29.484375 25.535156 29.382812 25.539062 29.25 L 25.539062 26.5625 C 25.535156 26.503906 25.554688 26.457031 25.601562 26.425781 C 25.652344 26.398438 25.695312 26.402344 25.738281 26.4375 C 26.339844 26.789062 26.976562 27.042969 27.65625 27.195312 C 28.25 27.34375 28.855469 27.421875 29.472656 27.433594 C 30.050781 27.433594 30.480469 27.355469 30.753906 27.207031 C 31.03125 27.082031 31.167969 26.867188 31.164062 26.5625 C 31.164062 26.34375 31.039062 26.136719 30.789062 25.9375 C 30.542969 25.738281 30.035156 25.5 29.273438 25.21875 C 28.488281 24.945312 27.753906 24.570312 27.070312 24.097656 C 26.578125 23.753906 26.1875 23.320312 25.902344 22.792969 C 25.652344 22.292969 25.53125 21.765625 25.539062 21.210938 C 25.539062 20.539062 25.714844 19.917969 26.0625 19.34375 C 26.460938 18.714844 27 18.242188 27.679688 17.925781 C 28.410156 17.5625 29.324219 17.378906 30.417969 17.378906 C 31.058594 17.375 31.699219 17.417969 32.332031 17.515625 C 32.792969 17.574219 33.238281 17.695312 33.667969 17.878906 C 33.738281 17.898438 33.789062 17.945312 33.816406 18.015625 C 33.832031 18.074219 33.839844 18.136719 33.839844 18.199219 L 33.839844 20.714844 C 33.84375 20.777344 33.820312 20.828125 33.765625 20.863281 C 33.695312 20.898438 33.625 20.898438 33.550781 20.863281 Z M 33.550781 20.863281 " fill-opacity="1" fill-rule="nonzero"/></svg>