<svg xmlns="http://www.w3.org/2000/svg" xmlns:xlink="http://www.w3.org/1999/xlink" width="60" zoomAndPan="magnify" viewBox="0 0 45 44.999999" height="60" preserveAspectRatio="xMidYMid meet" version="1.0"><defs><clipPath id="96d01c7145"><path d="M 3.933594 6 L 41.433594 6 L 41.433594 39.820312 L 3.933594 39.820312 Z M 3.933594 6 " clip-rule="nonzero"/></clipPath></defs><g clip-path="url(#96d01c7145)"><path fill="#00d8ff" d="M 34.742188 16.746094 C 34.355469 16.613281 33.953125 16.488281 33.539062 16.367188 C 33.605469 16.089844 33.671875 15.820312 33.726562 15.550781 C 34.636719 11.148438 34.042969 7.605469 32.003906 6.4375 C 30.050781 5.320312 26.859375 6.484375 23.632812 9.277344 C 23.324219 9.542969 23.011719 9.828125 22.703125 10.125 C 22.496094 9.929688 22.289062 9.738281 22.082031 9.554688 C 18.703125 6.574219 15.316406 5.316406 13.28125 6.488281 C 11.332031 7.609375 10.753906 10.941406 11.574219 15.113281 C 11.652344 15.515625 11.746094 15.925781 11.851562 16.34375 C 11.371094 16.480469 10.90625 16.625 10.464844 16.777344 C 6.503906 18.152344 3.972656 20.304688 3.972656 22.535156 C 3.972656 24.839844 6.6875 27.152344 10.816406 28.554688 C 11.140625 28.667969 11.480469 28.773438 11.828125 28.871094 C 11.714844 29.324219 11.617188 29.765625 11.535156 30.199219 C 10.75 34.296875 11.363281 37.550781 13.308594 38.664062 C 15.316406 39.816406 18.691406 38.632812 21.972656 35.78125 C 22.234375 35.554688 22.492188 35.316406 22.753906 35.066406 C 23.09375 35.386719 23.429688 35.695312 23.765625 35.984375 C 26.945312 38.703125 30.089844 39.800781 32.03125 38.683594 C 34.039062 37.527344 34.691406 34.03125 33.84375 29.78125 C 33.78125 29.453125 33.703125 29.125 33.621094 28.785156 C 33.855469 28.714844 34.089844 28.644531 34.316406 28.570312 C 38.605469 27.15625 41.398438 24.871094 41.398438 22.535156 C 41.398438 20.296875 38.785156 18.128906 34.742188 16.746094 Z M 33.8125 27.0625 C 33.609375 27.128906 33.398438 27.191406 33.183594 27.253906 C 32.710938 25.765625 32.074219 24.179688 31.289062 22.542969 C 32.035156 20.945312 32.648438 19.378906 33.109375 17.898438 C 33.492188 18.007812 33.863281 18.125 34.222656 18.246094 C 37.6875 19.433594 39.796875 21.1875 39.796875 22.535156 C 39.796875 23.972656 37.519531 25.839844 33.8125 27.0625 Z M 32.277344 30.089844 C 32.652344 31.96875 32.703125 33.667969 32.457031 35 C 32.234375 36.191406 31.785156 36.988281 31.230469 37.308594 C 30.050781 37.988281 27.527344 37.105469 24.808594 34.777344 C 24.496094 34.511719 24.183594 34.226562 23.867188 33.925781 C 24.921875 32.777344 25.976562 31.445312 27.003906 29.964844 C 28.8125 29.804688 30.523438 29.542969 32.074219 29.1875 C 32.148438 29.496094 32.21875 29.792969 32.277344 30.089844 Z M 16.730469 37.191406 C 15.578125 37.59375 14.660156 37.605469 14.105469 37.289062 C 12.925781 36.613281 12.4375 34 13.105469 30.496094 C 13.183594 30.09375 13.273438 29.679688 13.378906 29.261719 C 14.910156 29.597656 16.609375 29.839844 18.421875 29.984375 C 19.457031 31.433594 20.542969 32.765625 21.632812 33.929688 C 21.394531 34.160156 21.15625 34.378906 20.921875 34.582031 C 19.46875 35.847656 18.015625 36.742188 16.730469 37.191406 Z M 11.332031 27.050781 C 9.507812 26.433594 8 25.625 6.96875 24.746094 C 6.039062 23.957031 5.570312 23.171875 5.570312 22.535156 C 5.570312 21.179688 7.601562 19.453125 10.992188 18.277344 C 11.402344 18.136719 11.832031 18 12.28125 17.875 C 12.75 19.390625 13.363281 20.972656 14.105469 22.574219 C 13.351562 24.199219 12.730469 25.808594 12.257812 27.339844 C 11.9375 27.25 11.628906 27.152344 11.332031 27.050781 Z M 13.144531 14.808594 C 12.441406 11.234375 12.90625 8.539062 14.082031 7.863281 C 15.335938 7.140625 18.101562 8.167969 21.019531 10.746094 C 21.207031 10.910156 21.394531 11.082031 21.582031 11.257812 C 20.496094 12.421875 19.421875 13.742188 18.394531 15.183594 C 16.632812 15.34375 14.949219 15.605469 13.402344 15.953125 C 13.304688 15.5625 13.21875 15.179688 13.144531 14.808594 Z M 29.285156 18.769531 C 28.917969 18.132812 28.535156 17.511719 28.148438 16.910156 C 29.34375 17.058594 30.484375 17.257812 31.5625 17.503906 C 31.238281 18.53125 30.835938 19.605469 30.363281 20.707031 C 30.023438 20.066406 29.664062 19.417969 29.285156 18.769531 Z M 22.703125 12.394531 C 23.441406 13.191406 24.179688 14.078125 24.90625 15.039062 C 24.171875 15.003906 23.433594 14.984375 22.683594 14.984375 C 21.945312 14.984375 21.210938 15.003906 20.480469 15.039062 C 21.207031 14.085938 21.953125 13.199219 22.703125 12.394531 Z M 16.078125 18.78125 C 15.707031 19.417969 15.355469 20.0625 15.019531 20.703125 C 14.554688 19.605469 14.15625 18.527344 13.832031 17.484375 C 14.898438 17.246094 16.039062 17.054688 17.226562 16.90625 C 16.832031 17.515625 16.449219 18.140625 16.078125 18.78125 Z M 17.257812 28.277344 C 16.035156 28.140625 14.878906 27.957031 13.808594 27.726562 C 14.140625 26.664062 14.546875 25.5625 15.023438 24.441406 C 15.359375 25.085938 15.710938 25.726562 16.082031 26.367188 L 16.085938 26.367188 C 16.464844 27.019531 16.855469 27.65625 17.257812 28.277344 Z M 22.746094 32.785156 C 21.988281 31.972656 21.234375 31.074219 20.496094 30.109375 C 21.210938 30.136719 21.941406 30.152344 22.683594 30.152344 C 23.449219 30.152344 24.203125 30.132812 24.945312 30.101562 C 24.214844 31.085938 23.480469 31.984375 22.746094 32.785156 Z M 30.378906 24.386719 C 30.878906 25.519531 31.300781 26.613281 31.636719 27.660156 C 30.550781 27.902344 29.378906 28.101562 28.144531 28.25 C 28.53125 27.636719 28.917969 27.007812 29.292969 26.355469 C 29.675781 25.699219 30.035156 25.042969 30.378906 24.386719 Z M 27.90625 25.5625 C 27.324219 26.570312 26.722656 27.535156 26.113281 28.441406 C 25.003906 28.519531 23.855469 28.5625 22.683594 28.5625 C 21.519531 28.5625 20.386719 28.527344 19.296875 28.453125 C 18.660156 27.535156 18.046875 26.570312 17.46875 25.570312 C 16.886719 24.574219 16.355469 23.570312 15.871094 22.574219 C 16.355469 21.574219 16.886719 20.566406 17.460938 19.574219 C 18.039062 18.578125 18.648438 17.617188 19.277344 16.703125 C 20.390625 16.617188 21.53125 16.574219 22.683594 16.574219 C 23.84375 16.574219 24.988281 16.621094 26.097656 16.703125 C 26.71875 17.613281 27.324219 18.570312 27.902344 19.566406 C 28.488281 20.574219 29.027344 21.570312 29.515625 22.550781 C 29.03125 23.546875 28.492188 24.554688 27.90625 25.5625 Z M 31.207031 7.8125 C 32.460938 8.53125 32.945312 11.429688 32.160156 15.230469 C 32.109375 15.472656 32.050781 15.71875 31.992188 15.96875 C 30.4375 15.613281 28.753906 15.347656 26.988281 15.183594 C 25.957031 13.726562 24.894531 12.402344 23.824219 11.257812 C 24.109375 10.984375 24.398438 10.722656 24.683594 10.472656 C 27.445312 8.082031 30.03125 7.140625 31.207031 7.8125 Z M 22.683594 19.210938 C 24.53125 19.210938 26.027344 20.699219 26.027344 22.535156 C 26.027344 24.371094 24.53125 25.855469 22.683594 25.855469 C 20.839844 25.855469 19.34375 24.371094 19.34375 22.535156 C 19.34375 20.699219 20.839844 19.210938 22.683594 19.210938 Z M 22.683594 19.210938 " fill-opacity="1" fill-rule="nonzero"/></g></svg>