<svg xmlns="http://www.w3.org/2000/svg" xmlns:xlink="http://www.w3.org/1999/xlink" width="60" zoomAndPan="magnify" viewBox="0 0 45 44.999999" height="60" preserveAspectRatio="xMidYMid meet" version="1.0"><defs><clipPath id="68cc808312"><path d="M 3.585938 5 L 41.085938 5 L 41.085938 40 L 3.585938 40 Z M 3.585938 5 " clip-rule="nonzero"/></clipPath></defs><g clip-path="url(#68cc808312)"><path fill="#DCDCDC" d="M 34.394531 16.671875 C 34.007812 16.535156 33.605469 16.40625 33.191406 16.285156 C 33.257812 16.003906 33.324219 15.722656 33.378906 15.449219 C 34.289062 10.953125 33.695312 7.332031 31.65625 6.140625 C 29.703125 4.996094 26.511719 6.1875 23.285156 9.039062 C 22.976562 9.3125 22.664062 9.601562 22.355469 9.90625 C 22.144531 9.707031 21.941406 9.511719 21.734375 9.324219 C 18.351562 6.277344 14.964844 4.992188 12.929688 6.1875 C 10.980469 7.335938 10.402344 10.742188 11.222656 15.003906 C 11.300781 15.414062 11.394531 15.832031 11.5 16.261719 C 11.019531 16.398438 10.558594 16.546875 10.113281 16.703125 C 6.152344 18.105469 3.621094 20.304688 3.621094 22.585938 C 3.621094 24.941406 6.335938 27.304688 10.464844 28.738281 C 10.789062 28.851562 11.128906 28.957031 11.476562 29.058594 C 11.363281 29.519531 11.265625 29.972656 11.183594 30.417969 C 10.402344 34.605469 11.011719 37.929688 12.957031 39.066406 C 14.96875 40.246094 18.339844 39.035156 21.625 36.121094 C 21.882812 35.890625 22.144531 35.644531 22.40625 35.390625 C 22.742188 35.71875 23.082031 36.03125 23.417969 36.324219 C 26.597656 39.105469 29.738281 40.226562 31.683594 39.085938 C 33.691406 37.90625 34.34375 34.332031 33.496094 29.988281 C 33.433594 29.65625 33.355469 29.316406 33.273438 28.972656 C 33.507812 28.902344 33.742188 28.828125 33.96875 28.75 C 38.261719 27.308594 41.050781 24.972656 41.050781 22.585938 C 41.050781 20.296875 38.4375 18.082031 34.394531 16.671875 Z M 33.464844 27.210938 C 33.261719 27.277344 33.050781 27.34375 32.835938 27.410156 C 32.363281 25.886719 31.722656 24.269531 30.941406 22.59375 C 31.6875 20.960938 32.300781 19.363281 32.761719 17.847656 C 33.144531 17.960938 33.515625 18.082031 33.875 18.207031 C 37.339844 19.417969 39.453125 21.207031 39.453125 22.585938 C 39.453125 24.054688 37.171875 25.964844 33.464844 27.210938 Z M 31.925781 30.304688 C 32.304688 32.226562 32.355469 33.960938 32.109375 35.320312 C 31.886719 36.542969 31.4375 37.355469 30.882812 37.679688 C 29.703125 38.375 27.179688 37.472656 24.460938 35.09375 C 24.148438 34.820312 23.832031 34.53125 23.519531 34.222656 C 24.574219 33.050781 25.628906 31.691406 26.65625 30.175781 C 28.464844 30.015625 30.175781 29.75 31.726562 29.382812 C 31.800781 29.699219 31.867188 30.003906 31.925781 30.304688 Z M 16.382812 37.558594 C 15.230469 37.972656 14.3125 37.984375 13.757812 37.660156 C 12.578125 36.96875 12.085938 34.300781 12.753906 30.71875 C 12.832031 30.308594 12.921875 29.886719 13.027344 29.457031 C 14.5625 29.800781 16.257812 30.050781 18.070312 30.199219 C 19.109375 31.679688 20.191406 33.039062 21.285156 34.230469 C 21.046875 34.464844 20.808594 34.6875 20.570312 34.894531 C 19.121094 36.1875 17.664062 37.101562 16.382812 37.558594 Z M 10.984375 27.203125 C 9.15625 26.566406 7.652344 25.746094 6.617188 24.84375 C 5.6875 24.039062 5.21875 23.238281 5.21875 22.585938 C 5.21875 21.203125 7.253906 19.4375 10.640625 18.238281 C 11.050781 18.089844 11.484375 17.953125 11.929688 17.824219 C 12.398438 19.371094 13.011719 20.992188 13.753906 22.625 C 13.003906 24.285156 12.378906 25.929688 11.90625 27.496094 C 11.589844 27.402344 11.28125 27.304688 10.984375 27.203125 Z M 12.792969 14.691406 C 12.089844 11.039062 12.554688 8.285156 13.730469 7.59375 C 14.984375 6.859375 17.753906 7.90625 20.671875 10.539062 C 20.859375 10.707031 21.046875 10.882812 21.234375 11.066406 C 20.144531 12.25 19.070312 13.601562 18.046875 15.074219 C 16.285156 15.238281 14.597656 15.503906 13.050781 15.859375 C 12.953125 15.464844 12.867188 15.074219 12.792969 14.691406 Z M 28.9375 18.738281 C 28.566406 18.089844 28.1875 17.453125 27.800781 16.835938 C 28.996094 16.992188 30.136719 17.195312 31.210938 17.445312 C 30.890625 18.492188 30.488281 19.589844 30.015625 20.71875 C 29.675781 20.0625 29.316406 19.402344 28.9375 18.738281 Z M 22.355469 12.226562 C 23.09375 13.039062 23.832031 13.945312 24.558594 14.925781 C 23.824219 14.890625 23.082031 14.875 22.335938 14.875 C 21.597656 14.875 20.859375 14.890625 20.132812 14.925781 C 20.859375 13.953125 21.605469 13.046875 22.355469 12.226562 Z M 15.726562 18.75 C 15.359375 19.402344 15.003906 20.058594 14.671875 20.714844 C 14.207031 19.59375 13.808594 18.492188 13.480469 17.425781 C 14.550781 17.183594 15.6875 16.984375 16.875 16.835938 C 16.480469 17.457031 16.097656 18.097656 15.726562 18.75 Z M 16.910156 28.453125 C 15.683594 28.316406 14.527344 28.125 13.460938 27.890625 C 13.789062 26.808594 14.195312 25.679688 14.671875 24.535156 C 15.007812 25.191406 15.363281 25.847656 15.734375 26.503906 C 16.113281 27.167969 16.507812 27.816406 16.910156 28.453125 Z M 22.398438 33.0625 C 21.640625 32.230469 20.882812 31.3125 20.144531 30.324219 C 20.863281 30.351562 21.59375 30.367188 22.335938 30.367188 C 23.097656 30.367188 23.855469 30.347656 24.59375 30.316406 C 23.867188 31.320312 23.128906 32.242188 22.398438 33.0625 Z M 30.03125 24.476562 C 30.53125 25.636719 30.953125 26.753906 31.289062 27.820312 C 30.203125 28.070312 29.03125 28.273438 27.796875 28.425781 C 28.183594 27.800781 28.566406 27.152344 28.945312 26.492188 C 29.328125 25.820312 29.6875 25.148438 30.03125 24.476562 Z M 27.558594 25.679688 C 26.972656 26.710938 26.375 27.691406 25.761719 28.621094 C 24.652344 28.703125 23.503906 28.742188 22.335938 28.742188 C 21.171875 28.742188 20.039062 28.707031 18.945312 28.632812 C 18.3125 27.695312 17.699219 26.707031 17.117188 25.6875 C 16.539062 24.671875 16.003906 23.644531 15.519531 22.625 C 16.003906 21.605469 16.535156 20.578125 17.113281 19.5625 C 17.691406 18.542969 18.300781 17.5625 18.929688 16.628906 C 20.039062 16.542969 21.183594 16.496094 22.335938 16.496094 C 23.496094 16.496094 24.636719 16.542969 25.75 16.628906 C 26.371094 17.554688 26.972656 18.535156 27.554688 19.550781 C 28.140625 20.582031 28.679688 21.601562 29.167969 22.601562 C 28.683594 23.621094 28.144531 24.652344 27.558594 25.679688 Z M 30.859375 7.546875 C 32.113281 8.28125 32.597656 11.238281 31.8125 15.121094 C 31.761719 15.371094 31.703125 15.621094 31.644531 15.878906 C 30.089844 15.511719 28.402344 15.242188 26.640625 15.074219 C 25.609375 13.585938 24.542969 12.234375 23.472656 11.066406 C 23.761719 10.785156 24.050781 10.515625 24.335938 10.261719 C 27.097656 7.820312 29.683594 6.855469 30.859375 7.546875 Z M 22.335938 19.191406 C 24.179688 19.191406 25.679688 20.710938 25.679688 22.585938 C 25.679688 24.460938 24.179688 25.980469 22.335938 25.980469 C 20.492188 25.980469 18.992188 24.460938 18.992188 22.585938 C 18.992188 20.710938 20.492188 19.191406 22.335938 19.191406 Z M 22.335938 19.191406 " fill-opacity="1" fill-rule="nonzero"/></g></svg>